<?xml version="1.0" encoding="utf-8"?><svg xmlns="http://www.w3.org/2000/svg" viewBox="0 0 266.5 238.5" xml:space="preserve"><path d="M225.3 238.5c-4.6-4.1-32.6-28.6-39.7-38.4-4.5-6.2 2-14.3 4.2-16.7l26.4 26.1-.5-3.1c-4.4-25.2-19.4-85-64.9-96.7l-1.3-.3.1 1.4c1.4 20.6-11.8 43.8-30 52.9a34 34 0 0 1-15.5 3.9c-8.8 0-17.3-3.9-24.6-11.2-10.6-12.3-12.2-27.4-4.3-41.4 9.1-16.3 28.9-27.6 48-27.6 1.1 0 2.3 0 3.4.1l1.4.1-.4-1.4c-11-42-48.6-63.3-118.3-67.1C6.1 18.3 0 15.3 0 9.3v-.4c0-.2.1-.5.1-.8C1 1.7 6.7 0 10 0h4.5c32.1 0 63 7.9 86.9 22.3 26.6 16.1 42.5 38.9 45.8 66l.1.7.7.1c54.4 9.7 80.3 69.9 85.9 118.4l.2 2 26.6-26.2c2.2 2.4 8.7 10.4 4.2 16.7-7 9.9-35 34.5-39.6 38.5M122.5 103.7c-11.5 0-18.1 4.9-24.4 10.3-8.2 7.1-13.5 24.2-7.4 31.4 2.5 2.9 6.7 4.6 11.4 4.6 4.1 0 10.5-1.4 17.8-7.8 9.5-8.6 13.4-21.7 11-37l-.1-.7-.7-.1c-2.7-.5-5.2-.7-7.6-.7" style="fill:#2e3192"/></svg>