<?xml version="1.0" encoding="utf-8"?><svg xmlns="http://www.w3.org/2000/svg" viewBox="0 0 228.3 357.6" xml:space="preserve"><path d="M166.6 357.6c-1.4-6.2-9.7-44.2-9.8-54.7-.1-7.8 9.8-10.5 13-11.2l5.6 38.4 1.4-2.3c28.2-44.1 33-94.7 13.9-146.5-26.9-73.1-98-136.7-181.2-162.1-3.9-1.3-7.1-4-8.7-7.4-1-2.2-1.1-4.3-.3-6.2C2.1 1.8 4.7 0 8.7 0c1.7 0 3.6.3 5.8 1C105.9 28.8 180.4 95.9 209 176c20.4 57.2 14.4 114.6-17 161.5l-1.3 1.9 37.4-5.9c.4 3.2 1 13.6-6.3 16-12.5 4.2-49.1 7.6-55.2 8.1" style="fill:#2e3192"/></svg>