<?xml version="1.0" encoding="utf-8"?><svg xmlns="http://www.w3.org/2000/svg" viewBox="0 0 126.9 242.5" xml:space="preserve"><path d="M49.4 241c-1.2 0-2.1-.2-2.5-.4C36 236 6 215.1.6 211.2c4-7.9 20.3-38.5 27.5-47.2.6-.8 3-2.7 7.1-2.7 2.8 0 5.8.9 8.9 2.8l-19.9 33.2 1-.1c60.3-6.4 87.3-50.3 87-88.3-.3-41.7-32.4-86.6-103.3-92.7C3 16 .4 11.9.5 8.2S3.3.5 9 .5h.5c36 1.5 66.1 13.8 87.1 35.6 18.5 19.2 29 44.9 29.5 72.2.8 46.5-29.2 98.8-97 104.1l-1.5.1L61 233.1c-4.2 6.8-9 7.9-11.6 7.9" style="fill:#2e3192"/></svg>
