<?xml version="1.0" encoding="utf-8"?><svg xmlns="http://www.w3.org/2000/svg" viewBox="0 0 126.9 242.5" xml:space="preserve"><path d="M49.4 241c-1.2 0-2.1-.2-2.5-.4C36 236 6 215.1.6 211.2c4-7.9 20.3-38.5 27.5-47.2.6-.8 3-2.7 7.1-2.7 2.8 0 5.8.9 8.9 2.8l-19.9 33.2 1-.1c60.3-6.4 87.3-50.3 87-88.3-.3-41.7-32.4-86.6-103.3-92.7C3 16 .4 11.9.5 8.2S3.3.5 9 .5h.5c36 1.5 66.1 13.8 87.1 35.6 18.5 19.2 29 44.9 29.5 72.2.8 46.5-29.2 98.8-97 104.1l-1.5.1L61 233.1c-4.2 6.8-9 7.9-11.6 7.9" style="fill:#2e3192"/><path d="M9.1 0v1h.5c35.9 1.5 65.9 13.8 86.8 35.5 18.5 19.1 28.9 44.7 29.4 71.8.5 25.6-8 49.9-23.7 68.5-17.5 20.6-42.6 32.7-72.8 35.1l-3.1.2 2.6 1.6 31.6 19.6c-4.1 6.2-8.6 7.1-11 7.1-1.4 0-2.2-.3-2.4-.4-10.6-4.4-39.6-24.5-45.8-29 4.3-8.4 20.2-38.2 27.3-46.8.5-.7 2.9-2.5 6.7-2.5 2.6 0 5.4.8 8.2 2.5l-19.1 31.9-1 1.7 2-.2c60.6-6.5 87.8-50.6 87.4-88.8-.4-41.9-32.7-87-103.9-93.2-5.6-.2-8-3.9-7.9-7.5C1.1 4.7 3.6 1 9.1 1zm0 0C-2.7 0-3.2 16.2 8.9 16.7c136.1 11.8 132.7 167.6 16.4 180l19.6-32.8c-3.8-2.3-7-3.1-9.6-3.1-4.2 0-6.8 2-7.5 2.9-7.7 9.3-25 42.1-27.8 47.7 5.1 3.7 35.6 25 46.7 29.6.5.2 1.4.5 2.7.5 3.1 0 8.1-1.4 12.4-8.5l-32.5-20.1C162.3 202.6 162.4 6.4 9.6 0z" style="fill:#fff"/></svg>