<?xml version="1.0" encoding="utf-8"?><svg xmlns="http://www.w3.org/2000/svg" viewBox="0 0 126.9 239.5" xml:space="preserve"><path d="M50.3 239.5c-1 0-2.1-.2-3.1-.6C36.1 234.3 5.5 213 .5 209.5c2.8-5.5 20-38.4 27.8-47.7q2.55-3 6.9-3c4.2 0 8.6 2.1 10.3 3.1l-18.3 30.8 1.8-.1c13.9-.5 62.6-12.5 75.1-37.9 4.7-9.5 3.6-18.4-3.2-27.9l-.7-1.1-.8 1c-9.9 11.7-27 19.2-43.7 19.2-5.2 0-10.1-.7-14.6-2.2-14.8-4.7-23.4-16.8-23.6-33.2 1-16.2 10.3-28.2 25.7-32.7 4.4-1.3 9.1-2 14-2 16 0 32.2 6.9 42 18.1l.7.8.8-.8c6.6-7 8.3-15.2 4.8-23.7C95.2 45.6 44.1 19.6 9.4 18.7c-2.4-.1-5.1-1.5-7-3.8C.6 12.8-.2 10.4.1 8.4.7 2.7 3.7 0 9.4 0c48.8.5 101.2 32 114.4 64.3 6.5 15.9 2.9 31.4-10.4 44.7l-.6.6.6.7c13.5 17 16.9 32.9 10.2 48.6-13.5 31.7-66.3 49.2-90.8 51.6l-3 .3 32.7 20c-1.6 2.3-6.4 8.7-12.2 8.7m8-146.4c-10.4 0-25.1 5.4-25.1 17.4 0 12.6 16.3 17.9 25.1 17.9s21-4.5 28.7-14.7c2.1-2.9 1.9-6.8-.4-9.5-8.8-9.8-19.2-11.1-28.3-11.1" style="fill:#2e3192"/></svg>