<?xml version="1.0" encoding="utf-8"?><svg xmlns="http://www.w3.org/2000/svg" viewBox="0 0 201.4 371.3" xml:space="preserve"><path d="M130.1 371.3c-1.3-6-9.2-42.3-9.2-54.4.1-7.7 10.1-10.3 13.3-10.9l5.8 36.3c71.3-98 51.7-250-12.9-264.4 0 0 3.2 35.3-22.3 51.8-9.2 5.9-32.1 13.1-46.7-2.4s-10.7-36-2.7-46c21.1-26.4 41-22.5 50-20.9-4-8-32-37.8-98.5-41.9C-3.4 17.8-2.2-.8 10.5 0c24 1.5 97.2 17.5 113.6 62 86.8 11.2 105.6 177.2 30 291.5l37.2-5.4c.3 3.2.8 13.6-6.5 15.9-11.5 3.5-48.5 6.8-54.7 7.3M73.8 86.4c-4.5 4.5-14.2 17.8-4.7 28.7s26.3.2 31.2-4.8c15.3-13.9 10.6-33.9 10.6-33.9s-18.7-8.5-37.1 10" style="fill:#2e3192"/></svg>