<svg xmlns="http://www.w3.org/2000/svg" style="style=&quot;enable-background:new 0 0 200.0 100.0&quot;" viewBox="22.48 0 74.98 99.96"><path fill="#000000" d="M96.6 90.1C87.8 60.2 73.5 21.7 71.8 17 70 12.4 64 0 60 0S49.9 12.4 48.1 17c-1.7 4.7-16 43.2-24.7 73.1-2.4 8.4.5 9.1 1.7 9.4 16.1 2.1 13.2-3 15.7-14 2.3-10 2.2-14.6 10-14.6 3.8 0 5.6.1 9.2.1s5.3-.1 9.1-.1c7.8 0 7.7 4.6 10 14.6 2.5 11-.4 16.1 15.7 14 1.2-.3 4.1-1 1.8-9.4M67.5 56.4H52.4c-1.4 0-2.3-.7-1.9-2.3L60 19.6l9.4 34.5c.4 1.6-.5 2.3-1.9 2.3"/></svg>