<svg xmlns="http://www.w3.org/2000/svg" style="style=&quot;enable-background:new 0 0 200.0 100.0&quot;" viewBox="27.34 0.05 65.48 100.06"><path fill="#000000" d="M42.3 29.8c0 3.6.2 10.2.2 10.2s21.8.1 35.3.8c5 .2 8.9-.7 9.5 7.8.4 6.1-3.2 7.4-8.7 7.8-12.8.9-34.9.5-34.9.5s.2 11.7.7 16.6c.3 4 1 8.9 1 8.9s35.3.1 39.3 0c3.3-.1 8.4 0 8.1 8.5-.3 9-4.2 8.4-9.8 8.8-14.9 1.1-41.2 0-48.4-3.8-10.2-5.5-7.9-55-3.7-89.2C31.7-.1 70.7-.5 80.5.4c4.4.4 6.7 5.3 6.7 8.3.1 3.2 0 8.8-5.9 9.1-13.8.8-38.6 1.6-38.6 1.6s-.4 8-.4 10.4"/></svg>