<svg xmlns="http://www.w3.org/2000/svg" style="style=&quot;enable-background:new 0 0 200.0 100.0&quot;" viewBox="19.43 0 81.02 100.11"><path fill="#000000" d="M91.2 16.5c-4.2-.2-11.1-.3-13.3-.5-25-1.6-39.9 17.7-42.3 40.8-.8 7.4.7 12.4 6.3 17.7 9.6 8.8 26.5 10.8 36.8 3.3 2.9-2.1 5.6-5.7 6.8-9.2 2.3-7-.6-11.2-7.3-11.5-5.5-.2-11.1.7-16.7 1-4.7.2-9.8.5-11.1-6.2-1.1-5.7 3.5-10.4 10.7-11.3 6-.7 12-.8 18-1.3 4.1-.4 9.2-.1 14.1-.3 8.6 15.7 9.3 24.5 3.4 39.1-6.6 16.2-19 22.3-33.8 22-7.6-.2-16.1-2.1-22.7-6.2C17.1 79 14 56.6 27.3 29.8 40.3-.4 69.8.1 82.6 0c8.4-.1 10.6 1.5 8.6 16.5"/></svg>