<svg xmlns="http://www.w3.org/2000/svg" style="style=&quot;enable-background:new 0 0 200.0 100.0&quot;" viewBox="-0.01 -0.1 119.97 100.07"><path fill="#00000" d="M111.8 99.9c-4.7.6-9.6-2.7-12-11.5-4.2-15.4-9.4-37-14.4-56.3-11.1 27.2-18.7 43.9-25 43.8-.1 0-.2 0-.4-.1-.1.1-.2.1-.4.1-6.3.1-13.9-16.6-25-43.8C29.4 51.4 24.4 73 20.2 88.4c-2.4 8.6-7.3 12.1-12 11.5-5.9-.7-9.9-4.9-7.5-12.5 2.5-8.1 18.5-60.6 23.2-77.1 4.8-16.6 16-9.1 18.1-4.9 2 4 13.6 36.6 18 45.8 4.4-9.3 16-41.8 18.1-46 2-4.1 13.3-11.6 18.1 4.9 4.6 16.6 20.5 69.1 23 77.2 2.5 7.7-1.5 11.9-7.4 12.6"/></svg>