<svg xmlns="http://www.w3.org/2000/svg" style="style=&quot;enable-background:new 0 0 200.0 100.0&quot;" viewBox="10.02 -0.01 99.97 100"><path fill="#000000" d="M107.3 85.1 97 75.2l-.2-.2c13-21.7 5.4-44.7-1.3-56.2C86.4 3.1 53.9-7.4 34.3 6.4c-22 15.4-28 32.6-22.2 62.3 3.2 16.6 24.6 34.8 50.7 30.7 8.3-1.4 16.1-5.3 22.4-10.7l8.9 8.6c3.6 3.4 9.4 3.5 13.1.1s3.7-8.9.1-12.3M35.7 73.7c-8.2-7.7-11.1-31.2.6-45.6 13.1-15.9 34-9 39.8-4.1 6.8 5.8 16.2 22.6 8.6 39.3l-1.1-1v-.1L72.8 51.9a9.6 9.6 0 0 0-13.1-.1C57.8 53.4 57 55.7 57 58s.8 4.5 2.6 6.2l11.6 11.2 1.6 1.5c-12 7.4-28.1 5.4-37.1-3.2"/></svg>