<svg xmlns="http://www.w3.org/2000/svg" style="style=&quot;enable-background:new 0 0 200.0 100.0&quot;" viewBox="22.6 -0.13 74.91 100.03"><path fill="#00000" d="M95.3 86.3 66.5 56c9.3-2.5 15.7-6.4 19.3-11.4 7-10.2 8.2-26.5-5.7-38.6C71.3-1.6 47.6-2.2 25 4.6l-.6.2-.2.5c-2.8 5.4-1.5 22.2.7 52.7.9 10.6 1.7 22.6 2.6 36.2.2 3.7 4.4 5.7 8.4 5.7 3.2 0 8.2-1.7 8.9-6.2.6-4.2-.5-28.7-.9-34.8h1.8l36.5 38.3c1.7 1.8 4 2.7 6.5 2.7 2.1 0 4.3-.7 5.9-2.1 3.6-2.9 3.9-8.2.7-11.5M41.6 43.2l-.3-2c-1.4-8.2-2.1-12.1-1.2-25 4-1 20.6-2.7 29 1.5 3 1.4 4.7 3.4 5 5.9.9 5-.6 9.5-4 13-5.6 5.2-15.6 7.6-28.5 6.6"/></svg>