<svg xmlns="http://www.w3.org/2000/svg" style="style=&quot;enable-background:new 0 0 200.0 100.0&quot;" viewBox="22.47 0 75.05 100"><path fill="#000000" d="M97 76.3C94.4 88.2 82.1 100 63.7 100h-1.1c-10.3-.4-28.6-2.6-36.2-12.5-4-5.2-4.8-11.3-1.9-14.4 2.4-2.7 7-2.4 12.6.8 11.1 10.6 26 10.8 35.1 6.4 5.4-2.6 8.5-6.5 7.9-10.3-.3-3.3-3.7-9.4-21.8-13.5C32.7 51 21.8 36.8 22.5 25.2c.6-10.3 10.7-22.4 37-25.1.7-.1 1.3-.1 2-.1 11.1 0 27.4 8.3 30.4 15.9 1.3 3.2.4 5.9-2.6 8.2-1.9 1.4-6.1-.5-11.3-3-4.9-2.3-10.4-4.9-15.6-5.5-1.4-.2-2.7-.3-4.1-.3-9.8 0-17.3 4.8-18.7 9.9-1.3 4.6 2.3 9 9.9 12l30.8 12.1c15.3 6.2 18.7 18 16.7 27"/></svg>