<svg xmlns="http://www.w3.org/2000/svg" style="style=&quot;enable-background:new 0 0 200.0 100.0&quot;" viewBox="18.86 -0.11 82.27 100.11"><path fill="#00000" d="M99.2 55.2c-1.1 7.3-3 14.2-5.8 21.1-6 14.2-18 23-32.1 23.7h-2.6c-14.1-.7-26-9.5-32.1-23.7-2.8-6.7-4.6-13.6-5.7-21.1-1.9-13.1-2.4-26-1.8-43.5.2-4.7 1.3-8 3.4-9.9C23.9.5 25.7-.1 27.7-.1c6.4.4 7.8 6.6 8.2 12.1.1 1.8 0 4.8-.1 8.6-.5 15.1-1.4 43.5 9.3 53.6 2.1 2 5.8 4.3 9.4 5.6 3.5 1.4 7.3 1.4 10.8 0 3.6-1.4 7.4-3.7 9.5-5.6 10.6-10.1 9.8-38.1 9.3-53.3-.1-4-.2-7.1 0-8.9.3-4.9 1.5-11.7 8-12.1 2.1-.1 3.9.6 5.2 1.9 2.2 1.9 3.3 5.3 3.4 9.9.9 18.1.4 30.7-1.5 43.5"/></svg>