<svg xmlns="http://www.w3.org/2000/svg" style="style=&quot;enable-background:new 0 0 200.0 100.0&quot;" viewBox="13.9 10.08 92.22 100"><path d="M104.6 60.4c-5.8 0-8.3 2.2-11.4 5.9-1.5 1.7-3.4 10.4-6.7 4.9-6.7-11.4.2-40.6 9.5-53.5 2.4-3.3-1-5.2-2.7-6.2 0 0-3.7-1.9-5.7-1.3-2.6.8-5.3-1.1-12.4 14.5-10.5-12.1-22.9-10.5-31.3-10.2-7.5.3-30 8.6-30 34.9C13.9 81 41 86.9 49.2 86.9s22.1-5.3 25.6-8.5c2.1 6.4 6 10.3 10.8 11.3 7.5 1.6 10.8-2.1 13.8-6.3 4.3-6.1 9.3-22.9 5.2-23m-55.4 8.8c-10.9 0-19.7-9-19.7-19.8s8.9-19.7 19.7-19.7S69 38.6 69 49.4s-8.9 19.8-19.8 19.8"/></svg>