<svg xmlns="http://www.w3.org/2000/svg" style="style=&quot;enable-background:new 0 0 200.0 100.0&quot;" viewBox="26.98 -0.09 66.05 100"><path d="M88.4 41.2c-1.6-2-3.4-3.7-5.3-5.3 29.4-33.5-39.3-54.2-40.3-13.5-.1 19.3-.2 34.5-.2 53.8-6.8-2.1-14.5 2.3-15.6 9.8-.7 18.9 18.2 15.6 25 7.4 2.6-3.1 3.6-5.6 4.5-15.1 25.8 13.7 46-14.8 31.9-37.1M77.3 67.1c-7.7 6.1-11.2.1-16.6-1.5a6 6 0 0 0-3.7.3c0-15.4.1-30.6.2-46.2-1.3-8.6 11-11.4 16.4-5.6 4.6 4.9 3.7 13.3-1.7 15.2-17.7-4.7-16 20.8 0 14.4 7.5 2.2 13.1 15.4 5.4 23.4"/></svg>