<?xml version="1.0" encoding="utf-8"?><svg xmlns="http://www.w3.org/2000/svg" viewBox="0 0 377.1 131.8" xml:space="preserve"><path d="M9.7 16.4c55.6-.9 93.8 2.5 144.3 42.2-5 4.3-14.4 10.5-15.7 20.6-2.5 17 8.9 29.3 25.7 31.6s27.2-9.1 31.6-22.4c4.2-12.7-10-23.3-9.9-23.3 49.3-6.4 112.4 18.4 159.9 41.7l-33.8 14.6c.3.7.7 1.4 1.3 2.4 2.4 4.2 6.6 9.1 12.4 7.8 10.3-2.3 45.7-18.5 51.5-21.1-1.9-5.9-12.7-40.5-19.4-52 0 .1-.1 0-.1 0-4-6.6-13.9-3.7-17-2.8l13.3 35.1C304.6 66.9 242.1 39.9 169 52.6 122.4 6.4 63.3-1.4 10.8.2-6 .7-.7 16.5 9.7 16.4M169 69.2c4.9 3.7 12.4 8.7 11.4 15.5-.8 6.8-7.7 12.7-14.3 11.7-6.9-.9-13-7.5-11.9-15.4 1.2-7.9 7.8-10.5 14.8-11.8" style="fill:#2e3192"/></svg>