<?xml version="1.0" encoding="utf-8"?><svg xmlns="http://www.w3.org/2000/svg" viewBox="0 0 413.5 360.9" xml:space="preserve"><path d="M18.6 105.2C119 34.3 252.1-17.6 315.5 54h-.7c-19.1 0-38.9 11.3-48 27.6-7.9 14-6.3 29.1 4.3 41.4 7.3 7.3 15.8 11.2 24.6 11.2 5.2 0 10.4-1.3 15.5-3.9 18.2-9.1 31.4-32.3 30-52.9v-.6c77.9 47.3 79.1 160.8-25.1 256.4l-2.8-37.2c-3.1.3-13.4 1.6-14.5 9.3-1.4 11.9 2.2 48.9 2.8 55.1 6.2.2 43.4 1.4 55.2-.8 7.7-1.6 8.3-11.9 8.5-15.3l-36.6 1.1C434.2 248.3 445 115.9 339.8 56.2 273.5-37.4 153.3-6.2 4.4 91.9c-10.5 7-.9 24 14.2 13.3m303.8-34.1.1.7c2.4 15.3-1.5 28.4-11 37-7.3 6.4-13.7 7.8-17.8 7.8-4.7 0-8.9-1.7-11.4-4.6-6.1-7.2-.8-24.3 7.4-31.4 6.3-5.4 12.9-10.3 24.4-10.3 2.4 0 4.9.2 7.6.7z" style="fill:#2e3192"/></svg>