<?xml version="1.0" encoding="utf-8"?><svg xmlns="http://www.w3.org/2000/svg" viewBox="0 0 105.2 348" xml:space="preserve"><path d="M50.9 348c-7.7 0-10.4-10-11-13.2l34.8-6c-86-89-77.8-190.5-57-230.5C1.9 75.7-1.9 26.2.8 10.2S19-1.3 17.1 11.8C15.3 25 14 53 26.5 80.8c0 0 9.5-13.8 26.7-13.8s29.4 14.4 29.4 31.3-11.4 28.9-29.4 28.9c-11.9 0-15.7-4.2-24.3-13.5-15.5 43.9-13.8 126.5 58 201.9l-5.5-38.2c.8-.1 13.7-1.1 15.9 6.3 3.7 11.4 7.3 48.4 7.9 54.6-6 1.4-42.2 9.6-54.3 9.7m1.9-263.6c-8.6 0-14.8 6.4-17.1 13.2 2.9 5.4 7.3 13.2 17.1 13.2s13.6-5.8 13.6-12.5c0-6.9-5-13.9-13.6-13.9" style="fill:#2e3192"/></svg>