<?xml version="1.0" encoding="utf-8"?><svg xmlns="http://www.w3.org/2000/svg" viewBox="0 0 230.2 255.1" xml:space="preserve"><path d="M186.5 255.1c-5 0-10-4.1-11.8-5.8l27.8-28.2-2.3-.1c-38.5-1.4-62.7-9.4-76-25.2-12.2-14.4-15.9-35.6-11.7-66.8l.2-1.5-1.4.3c-10.7 2.6-20.8 3.9-30 3.9-27.5 0-48.5-11.5-62.2-34.2C6.4 76.7 0 46.9 0 9.1 0 2.8 4.8 0 9.2 0c4.5 0 9.3 2.9 9.3 9.2 0 38.7 5.6 65.4 17 81.7 9.8 14 23.9 20.6 44.2 20.6 16.4 0 34.9-4.2 54.4-8.6l2-.5c-10.4 40.2-9.4 66.6 3.3 83 10.2 13.2 27.7 19.7 53.5 19.7 2.4 0 4.9-.1 7.5-.2l2.3-.1-27.9-27.4c1.8-1.6 6.7-5.6 11.6-5.6 1.8 0 3.5.6 5 1.7 8.5 6.2 34.5 35.2 38.8 39.9-4 4.6-28.1 32.3-38.8 40a8 8 0 0 1-4.9 1.7" style="fill:#2e3192"/></svg>