<?xml version="1.0" encoding="utf-8"?><svg xmlns="http://www.w3.org/2000/svg" viewBox="0 0 255.6 265.8" xml:space="preserve"><path d="M212.2 265.8c-5 0-10-4.1-11.8-5.8l21.3-21.5c.6-.4 1.2-1 1.6-1.6l3.8-4-2.5.1c-3 .1-5.9.2-8.6.2-24.8 0-38.6-4.7-51-17.2-15.2-15.3-12.8-35.2-9.9-45.6l.5-1.8-1.8.6c-5.2 1.9-11.3 2.9-16.9 2.9-7.2 0-17.3-1.6-24.8-9.1-10.5-10.5-10-22.6-5.4-41.2l.5-1.8-1.8.7c-5.2 2-10.8 3-16.4 3-10.1 0-19.5-3.3-24.9-8.7-7.9-7.9-9.6-22.6-4.6-40.3l.5-1.9-2 .5C50.3 76.2 44.4 78 38.7 78c-8 0-15.4-3.7-23.7-12C-.2 51 0 24.9 0 13.8v-1.7C0 3.8 4.2 0 8 0c4.3 0 8.6 4.4 8.6 12.8 0 14.1 1.8 32.6 10.3 41.1 3.3 3.3 8 5 14.1 5s12.1-1.7 16.1-3.2c9.2-3.3 27.8-11.8 29-12.3.5-.2 1.3-.7 2.1-1.1-.4.8-.8 1.6-1.1 2.3-.1.4-.5 1.2-1 2.3-2.5 5.9-8.5 19.8-10.6 27.5l-.1.3c-2.5 9.2-6 21.8.2 28.1 2.7 2.7 7.4 4.1 13.9 4.1 7.2 0 14.2-1.7 16.2-2.2 7-1.9 21.3-9.2 26.7-12 .8-.4 1.4-.7 1.7-.9.7-.4 1.4-.7 2-1-.3.6-.7 1.3-1 2l-.6 1.1c-2.4 4.8-9.8 19.4-12.3 27.3l-.2.5c-2.8 8.9-6.6 21.1 1.6 29.2 2.9 2.9 6.6 4.3 11.1 4.3s9.2-1.4 13.3-2.6c1.5-.5 3-.9 4.3-1.2 8.3-2.1 26.7-9.7 29.4-11 1-.5 2-.9 2.8-1.4-.6 1.1-1.1 2.2-1.5 2.9-.1.3-8.7 20-10.6 29.6-2.8 13.9-4.3 25.1 3.6 32.9 8.2 8.2 15 10.2 34.5 10.2h14l2.4-.1-26.8-26.3c1.8-1.6 6.7-5.6 11.6-5.6 1.8 0 3.5.6 5 1.7 8.5 6.3 34.5 35.3 38.8 40-4 4.6-27.9 32.2-38.6 40-1.3 1-2.9 1.5-4.7 1.5" style="fill:#2e3192"/></svg>