<?xml version="1.0" encoding="utf-8"?><svg xmlns="http://www.w3.org/2000/svg" viewBox="0 0 247.9 262.2" xml:space="preserve"><path d="M204.2 262.2c-5 0-10-4.1-11.8-5.8l21.2-21.5c.6-.4 1.2-1 1.6-1.6l3.8-4-2.5.1c-2.1.1-4.1.1-6.1.1-28.8 0-49.5-8-61.7-23.8-12.8-16.6-9.7-39.7-7.8-48.9l.3-1.5-2.9.6c-5.1 1.1-13.6 2.8-22.7 2.8-13 0-23.2-3.6-30.5-10.6-13.8-13.9-11.6-35.9-10.3-49.1.3-2.7.5-5 .6-6.8v-1.3l-1.3.3c-3 .8-7.7 1.3-12.5 1.3-8.4 0-29.5-1.5-43.8-15.5C.1 59.6.1 51.3 0 11.4v-.1C0 3.9 4.4 0 8.8 0c4.1 0 8.6 3.6 8.6 11.4 0 1.1-.1 2.8-.2 4.7-.7 11-2 34 11.1 47 6.8 6.7 16 10.1 27.3 10.1 14.4 0 29.7-5.2 43-10.2l2.7-1.1-.8 2.8c-9.9 34.5-13.7 58.1-2.5 69.1 5.2 5.1 13.1 7.7 23.5 7.7 19.5 0 41.6-9 45.9-10.8l3.9-1.7-1.8 3.7c-13.2 27.6-16.1 48-8.5 60.6 6.7 11.2 21.9 17.6 41.9 17.6h1.4c1.3 0 2.9 0 4.7.1 2 0 4.1.1 5.9.1h2l2.3-.1-26.7-26.5c1.8-1.6 6.7-5.6 11.6-5.6 1.8 0 3.5.6 5 1.7 8.5 6.2 34.5 35.2 38.8 39.9-4 4.6-28.1 32.3-38.8 40a8 8 0 0 1-4.9 1.7" style="fill:#2e3192"/></svg>