<?xml version='1.0' encoding='utf-8'?><svg xmlns="http://www.w3.org/2000/svg" data-name="Layer 2" viewBox="-73.86 0 200 100" width="200" height="100" style="style=&quot;enable-background:new 0 0 200.0 100.0&quot;"><path d="M42.28 93.87C38.87 97.67 34 100 30.01 100c-.68 0-1.36 0-1.95-.19a6 6 0 0 1-4.77-4.38c-.58-2.14 2.43-5.26 7.4-9.93 2.14-2.14 5.16-4.97 5.26-5.74-.29-.29-2.92-.78-5.06-1.17-4.28-.68-10.22-1.66-16.16-4.58C3.82 68.65-1.92 54.43 1.97 42.36c2.92-8.86 11.59-16.94 19.18-23.95 1.85-1.75 3.7-3.41 5.35-5.06-1.66 0-3.5 0-5.45.1-7.79.19-16.75.39-19.86-3.89C-.17 7.7-.37 5.36.61 2.34A2.7 2.7 0 0 1 3.14.49c1.46 0 3.99 0 7.11-.1C20.96.2 38.68-.19 45.4.1a3.5 3.5 0 0 1 3.02 2.34q2.63 7.57-6.13 15.29c-2.43 2.53-5.55 5.16-8.76 7.98-8.08 7.01-17.23 14.9-18.11 24.05-1.07 11.29 9.74 13.53 20.15 15.77 7.59 1.66 14.7 3.21 16.36 8.28 1.46 4.48-1.56 10.81-9.64 20.06Z" data-name="Layer 1"/></svg>