<?xml version='1.0' encoding='utf-8'?><svg xmlns="http://www.w3.org/2000/svg" data-name="Layer 2" viewBox="-57.06 0 200 100" width="200" height="100" style="style=&quot;enable-background:new 0 0 200.0 100.0&quot;"><path d="M85.87 8.79c0 6.72-1.46 10.08-7.39 10.08s-22.23.59-22.23.59c-7.3 16.64-11.63 27.01-15.38 43.81-3.43 15.35 5.87 24.13 16.21 12.5 3.39-3.81 6.39-6.87 9.01-6.13s6.33 7.13.02 17.29c-6.3 10.16-15.03 14.44-23.38 12.69-34.12-7.14-16.37-47.98-3.43-80.17-2.74-.61-14.25-.95-19.18 1.3a19.2 19.2 0 0 0-8.95 8.75c-2.39 5.12-4.06 4.09-9.85 2.8-3.47-.77.7-9.02 3.74-14.3C11.47 6.88 18.51-.62 31.83.04h46.65c6.13 0 7.39 2.03 7.39 8.75" data-name="Layer 1"/></svg>