<?xml version='1.0' encoding='utf-8'?><svg xmlns="http://www.w3.org/2000/svg" data-name="Layer 2" viewBox="-55.01 -5 200 100" width="200" height="100" style="style=&quot;enable-background:new 0 0 200.0 100.0&quot;"><path d="M75.01 11.54A45 45 0 0 0 37.69.59 44.9 44.9 0 0 0 1.21 34.44c-3.39 14.84.42 29.69 10.43 40.8A45.5 45.5 0 0 0 45.15 90c1.95 0 3.9-.17 5.94-.42 21.12-2.8 37.83-20.95 38.85-42.33a45.3 45.3 0 0 0-14.93-35.71M38.79 77.2c-12.81-2.29-23.75-13.23-25.96-25.96h25.96zm0-38.43H12.83c2.29-12.81 13.23-23.67 25.96-25.96zM51.17 77.2V51.24h26.04C74.92 64.05 63.98 74.91 51.17 77.2m0-64.38c12.89 2.29 23.58 13.06 26.04 25.96H51.17z" data-name="Layer 1"/></svg>