<?xml version="1.0" encoding="utf-8"?>
<!-- Generator: Adobe Illustrator 27.1.0, SVG Export Plug-In . SVG Version: 6.00 Build 0)  -->
<svg version="1.1" id="Layer_1" xmlns="http://www.w3.org/2000/svg" xmlns:xlink="http://www.w3.org/1999/xlink" x="0px" y="0px"
	 viewBox="0 0 252.8 44.4" style="enable-background:new 0 0 252.8 44.4;" xml:space="preserve">
<style type="text/css">
	.st0{fill:#FFFFFF;}
	.st1{fill:#2E3192;}
	.st2{fill:#0000FF;fill-opacity:0;}
</style>
<g>
	<path class="st0" d="M90.1,44.4c-5.5-1.2-10.9-0.9-16.4-1.4C68.3,42.6,63,40.5,57.4,40c-5.8-0.5-11.6-0.2-17.4-0.2
		c-2.6,0-4.9,0.9-7.5,1c-0.5,0-2.4,0.2-2.6-0.7c-0.2-0.9,1.4-1,1.2-1.7c-0.2-1-5.8-0.3-6.6-0.5c-2.6-0.2-4.9-1.2-7.5-1.7
		c-1.4-0.3-5.5-0.5-6-2c-0.7-2,3.6-1.2,4.6-1.2c0.9,0,3.7,0.9,2.4-0.5s-4.9-2-6.6-2.9c-1.5-0.7-4.9-1.4-6.1-2.9
		c-1.4-1.5-0.7-2.4,1.2-1.9c0.9,0.3,3.7,1.4,2.6-0.2c-0.5-0.7-5.6-1.2-4.1-2.7c1-1,5.8,0.5,7,0.7c1.7,0.2,3.9,0.3,1.5-1.2
		c-1.7-1-3.4-1.9-5.1-2.7c-1.2-0.5-2.2-0.7-3.4-0.9c-0.3,0-1.5,0.2-1.9-0.3c-1.2-0.9,1-0.9,0.7-2C3.6,15,0,11.4,0,11.6
		c0-1,0-2,0-3.1c2,0.5,2.6,2.2,4.1,3.6c1.4,1.4,3.2,2.7,4.9,3.6c3.4,1.7,6.6-1,9.9-1.4c2.4-0.2,4.4,0.7,6.6,1.2
		c2.6,0.5,5.1,0.7,7.7,0.7c4.9,0,9.4-1.2,14.3-1.9c4.3-0.5,7.7-2.4,12.1-1.9c2.6,0.3,5.1,0.5,7.5,0C74.4,11,80.4,7.3,87,5.1
		c1.9-0.7,3.6-1.4,4.9-2.7c0.7-0.7,1.7-1.2,2.6-1.4c8.2-2.4,23,0.2,25.7,1c2.7,0.9,5.6,2.2,8.5,2.6c2.6,0.3,5.5-1,8-1.4
		c2.9-0.5,5.8-0.7,8.7-0.5c5.1,0.2,10.2,1,15,3.2c4.1,1.9,8.9,4.4,13.5,4.9c5.5,0.5,10.9-0.3,16.2,0.3s10.7,0.5,16.2,0.9
		c5.3,0.3,10.7,1.4,15.8,0.3c2.4-0.5,3.4-1.5,4.9-3.2c1.2-1.4,2.9-4.1,4.6-4.4c1.2-0.2,1.7,1.4,2.7,1.7c1.2,0.5,1.9-0.7,3.1-0.9
		c2.2-0.5,3.1,2,5.5,2.4c1,0.2,2.4-0.9,3.1-0.2c0.7,0.5,0.3,0.9,1.2,1.5c0.9,0.7,1.2,0.5,2.4,1.5c1.4,1,3.6,4.8,3.2,6.5
		c-0.5,2.6-1.7,1.7-1.9,3.6c-0.2,1.7,0.3,2.4,0.9,3.9c1.7,5.3-3.9-1.2-5.3,1.4c-0.5,1,1.7,4.1,0,4.1c-1.2,0-2.4-1.9-3.2-2.4
		c-2.2-1.5-8-3.6-8,0.9c0,3.1-4.9,6.5-9.5,0.7c-1.4-2.2-2.6-4.6-5.5-4.9c-3.2-0.5-6.8-0.2-10.2-0.2c-3.4,0-6.6,0.5-10,0.7
		c-3.4,0.2-6.8,0-10.2,0.3c-3.6,0.3-7,0.5-10.6,0.9c-3.1,0.3-6.1,2.4-8.9,3.7c-2.9,1.5-5.8,2.9-8.7,4.6c-2.6,1.4-4.8,3.4-7.5,4.4
		c-5.3,2-12.8,3.2-18.2,2c-0.5-0.2-1.2-0.7-1.5-0.9c-2-0.9-5.6-1.4-7.8-1.4c-3.2,0.2-6.5,0.7-9.5,1.5c-6.3,1.5-11.9,3.7-18.4,4.1
		 M21,26.9c0.3,0.3,0.9,0.3,1.2,0.3c2.7,0.7,5.5,1.2,8.2,2.2c2.2,0.9,4.1,2.2,6.5,2.7c5.3,1.2,10.2,2.4,15.7,1.4
		c2.4-0.5,4.6-1.4,7-1.4c2,0,3.9,0.5,6,0.7c4.6,0.5,8.9,2.2,13.5,1.9c1.5-0.2,4.8-0.5,5.6-2c1-2-2-4.6-3.1-5.5
		c-1.7-1.2-5.3-2.9-10-3.1c-2.2,0-4.6-0.3-6.8-0.2c-4.9,0.2-9.9-0.2-14.8-0.2c-4.9-0.2-9.9,0-14.8,0.5C30.7,24.5,24.4,24.7,21,26.9z
		"/>
	<path class="st1" d="M90.2,43.6c-3.5-0.8-7.1-0.9-10.6-1c-1.9-0.1-3.9-0.1-5.8-0.3c-2.6-0.2-5.2-0.8-7.9-1.5
		c-2.7-0.6-5.6-1.3-8.5-1.6c-2.2-0.2-4.6-0.3-7.5-0.3c-1.7,0-3.3,0-5,0.1c-1.7,0-3.3,0.1-5,0.1c-1.5,0-2.9,0.3-4.3,0.5
		c-1.1,0.2-2.2,0.4-3.3,0.5l-0.6,0c-0.4,0-0.6,0-0.8-0.1c0,0,0,0,0.1,0c0.4-0.2,1.1-0.8,0.9-1.7c-0.2-1.1-1.8-1.2-3.5-1.2
		c-0.7,0-1.5,0-2.2,0.1c-0.5,0-1,0-1.3,0c-0.2,0-0.3,0-0.3,0c-1.6-0.1-3-0.5-4.5-1c-1-0.3-1.9-0.5-2.9-0.8c-0.3-0.1-0.8-0.2-1.4-0.2
		c-1-0.2-3.7-0.6-4-1.2c-0.1-0.1,0.2-0.2,1.2-0.2c0.6,0,1.2,0.1,1.7,0.1c0.4,0,0.7,0.1,0.9,0.1c0.2,0,0.5,0.1,0.8,0.1
		c0.5,0.1,1,0.2,1.4,0.2c0.7,0,1.1-0.2,1.3-0.7c0.3-0.7-0.3-1.3-0.5-1.5c-1-1-2.8-1.6-4.6-2.2c-0.9-0.3-1.7-0.6-2.3-0.8
		c-0.5-0.2-1.1-0.4-1.8-0.6c-1.4-0.5-3.4-1.1-4.1-2c-0.3-0.3-0.4-0.5-0.5-0.6c0,0,0,0,0,0c0.1,0,0.4,0,0.7,0.1
		c0.3,0.1,1.8,0.7,2.6,0.7c0.8,0,1.1-0.4,1.2-0.6c0.3-0.7-0.2-1.3-0.4-1.6c-0.3-0.4-0.9-0.6-2.1-1c-0.5-0.1-1.4-0.4-1.9-0.7
		c0.1,0,0.3-0.1,0.6-0.1c1.2,0,2.9,0.4,4.1,0.7c0.6,0.1,1.1,0.3,1.4,0.3c0.6,0.1,1.2,0.1,1.7,0.1c0.5,0,1.5,0,1.8-0.9
		c0.3-0.9-0.6-1.5-1.4-2c-1.8-1.1-3.5-1.9-5.2-2.8c-1.3-0.6-2.4-0.8-3.7-0.9l-0.4,0c-0.1,0-0.3,0-0.4,0C4.1,17,4,17,4,17
		c0.4-0.3,0.8-0.9,0.6-1.8c-0.1-0.3-2.3-3-3.7-4.1V9.8c0.5,0.3,0.8,0.8,1.3,1.3c0.4,0.5,0.8,1,1.4,1.6c1.4,1.4,3.3,2.8,5.1,3.7
		c0.9,0.4,1.8,0.6,2.8,0.6c1.5,0,3-0.5,4.4-1c1.1-0.4,2.2-0.8,3.2-0.9c0.2,0,0.4,0,0.5,0c1.4,0,2.7,0.4,4.1,0.7
		c0.6,0.2,1.1,0.3,1.7,0.4c2.4,0.5,4.9,0.7,7.9,0.7c3.4,0,6.6-0.6,9.8-1.1c1.5-0.3,3-0.5,4.6-0.7c1.6-0.2,3.2-0.6,4.6-1
		c2-0.5,3.8-1,5.8-1c0.5,0,0.9,0,1.4,0.1c1.7,0.2,3,0.3,4.3,0.3c1.3,0,2.4-0.1,3.5-0.3c4.6-0.9,8.7-2.7,12.7-4.4
		c2.4-1,4.8-2.1,7.3-2.9c2-0.7,3.8-1.5,5.3-2.9c0.5-0.5,1.4-1,2.1-1.1c2.3-0.7,5.1-1,8.6-1c7.3,0,14.9,1.4,16.7,2
		c0.8,0.3,1.7,0.6,2.5,0.9c2,0.7,4.1,1.5,6.2,1.7c0.3,0,0.6,0.1,0.9,0.1c1.5,0,3-0.4,4.5-0.8c1-0.3,1.9-0.5,2.8-0.6
		c2.1-0.4,4.3-0.6,6.4-0.6c0.7,0,1.4,0,2.1,0.1c5.7,0.2,10.5,1.2,14.7,3.2c0.6,0.3,1.3,0.6,1.9,0.9c3.6,1.7,7.8,3.7,11.8,4.1
		c1.3,0.1,2.7,0.2,4.3,0.2c1.2,0,2.3,0,3.5-0.1c1.1,0,2.3-0.1,3.4-0.1c2,0,3.5,0.1,5,0.3c3.3,0.4,6.8,0.5,10.2,0.6
		c2,0.1,4,0.1,6.1,0.2c1.3,0.1,2.6,0.2,3.9,0.3c2.3,0.2,4.7,0.4,7,0.4c1.9,0,3.6-0.1,5.1-0.5c2.6-0.6,3.8-1.7,5.4-3.5
		c0.3-0.3,0.6-0.7,0.9-1.2c0.9-1.2,2.2-2.8,3.2-3c0.2,0,0.5,0.2,0.8,0.6c0.4,0.4,0.8,0.8,1.4,1.1c0.2,0.1,0.5,0.2,0.9,0.2
		c0.7,0,1.2-0.3,1.7-0.6c0.3-0.2,0.6-0.4,0.9-0.4c0.2,0,0.3-0.1,0.4-0.1c0.6,0,1.1,0.4,1.8,0.9c0.8,0.6,1.7,1.3,3,1.5
		c0.1,0,0.2,0,0.4,0c0.5,0,1-0.1,1.4-0.3c0.3-0.1,0.6-0.2,0.8-0.2c0.3,0.2,0.3,0.2,0.4,0.4c0.2,0.4,0.4,0.7,0.9,1.2
		c0.4,0.4,0.8,0.5,1.1,0.7c0.3,0.2,0.7,0.3,1.3,0.8c1.3,1,3.2,4.4,3,5.7c-0.2,1.1-0.5,1.3-0.8,1.6c-0.4,0.4-0.9,0.8-1,2
		c-0.1,1.5,0.2,2.4,0.6,3.3c0.1,0.3,0.2,0.6,0.3,0.9c0.1,0.4,0.2,0.7,0.2,0.9c-0.3-0.1-0.6-0.3-0.9-0.4c-0.9-0.4-1.8-0.9-2.7-0.9
		c-0.8,0-1.4,0.4-1.8,1.1c-0.4,0.8-0.1,1.7,0.2,2.6c0.1,0.3,0.2,0.7,0.3,0.9c-0.4-0.2-1-0.8-1.4-1.2c-0.4-0.4-0.8-0.8-1.2-1
		c-1.4-1-3.8-2-5.8-2c-2.3,0-3.5,1.3-3.5,3.5c0,1.4-1.4,3-3.4,3c-1.6,0-3.2-1-4.6-2.8l-0.3-0.5c-1.3-2.1-2.7-4.4-5.7-4.8
		c-1.2-0.2-2.6-0.3-4.4-0.3c-1,0-2,0-3,0.1c-1,0-2,0.1-2.9,0.1c-2.1,0-4.1,0.2-6.1,0.4c-1.3,0.1-2.7,0.2-4,0.3
		c-1.3,0.1-2.7,0.1-4,0.1c-2,0-4.1,0-6.2,0.3c-1.8,0.2-3.5,0.3-5.2,0.4c-1.8,0.1-3.5,0.3-5.3,0.4c-2.6,0.3-5.1,1.6-7.3,2.8
		c-0.6,0.3-1.3,0.7-1.9,1c-1,0.5-1.9,1-2.9,1.5c-1.9,1-3.9,2-5.8,3.1c-1,0.5-2,1.2-3,1.9c-1.4,1-2.8,1.9-4.4,2.5
		c-4,1.5-8.9,2.5-13.1,2.5c-1.7,0-3.3-0.2-4.7-0.5c-0.1-0.1-0.5-0.3-0.8-0.5c-0.2-0.1-0.4-0.2-0.5-0.3c-2.2-0.9-5.9-1.5-8.2-1.5
		c-3.4,0.2-6.7,0.7-9.8,1.6c-1.8,0.4-3.6,1-5.4,1.5c-4.3,1.2-8.3,2.4-12.8,2.6H90.2z M59.4,33c1.1,0,2.2,0.2,3.4,0.4
		c0.8,0.1,1.6,0.3,2.5,0.3c1.7,0.2,3.3,0.5,4.9,0.9c2.4,0.5,4.8,1,7.4,1c0.4,0,0.9,0,1.3,0c1.9-0.2,5.2-0.6,6.3-2.5
		c1.3-2.7-2.1-5.6-3.3-6.5c-1.1-0.7-4.8-3.1-10.6-3.3c-0.9,0-1.8-0.1-2.7-0.1c-0.9-0.1-1.9-0.1-2.8-0.1c-0.5,0-0.9,0-1.4,0
		c-0.9,0-1.9,0-2.9,0c-2,0-3.9-0.1-5.9-0.1c-2-0.1-4-0.1-5.9-0.1c-1.2,0-2.5-0.1-3.7-0.1c-3.7,0-7.5,0.2-11.2,0.6l-0.4,0
		C30,23.7,24,23.9,20.5,26.2l-0.9,0.6l0.7,0.7c0.5,0.5,1.3,0.6,1.7,0.6c0.7,0.2,1.3,0.3,2,0.5c2,0.5,4,0.9,6,1.7
		c0.8,0.3,1.6,0.7,2.3,1.1c1.3,0.7,2.7,1.3,4.2,1.7l0.5,0.1c3.8,0.9,7.3,1.7,11.1,1.7c0,0,0,0,0,0c1.5,0,3-0.1,4.4-0.4
		c0.8-0.2,1.5-0.3,2.2-0.5C56.4,33.4,57.9,33,59.4,33z"/>
	<circle id="centerPoint" class="st2" cx="126.5" cy="38" r="3.4"/>
</g>
</svg>
