<?xml version="1.0" encoding="utf-8"?>
<!-- Generator: Adobe Illustrator 27.1.0, SVG Export Plug-In . SVG Version: 6.00 Build 0)  -->
<svg version="1.1" id="Layer_1" xmlns="http://www.w3.org/2000/svg" xmlns:xlink="http://www.w3.org/1999/xlink" x="0px" y="0px"
	 viewBox="0 0 250.5 64.4" style="enable-background:new 0 0 250.5 64.4;" xml:space="preserve">
<style type="text/css">
	.st0{fill:#2E3192;}
	.st1{fill:none;}
</style>
<path class="st0" d="M108.1,40.6h-92c-1.1,5.8-6.6,5-7.7,5c-8,0-8.2-6.7-8.2-10.3V29c0-3.6,0.1-10.3,8.2-10.3c1.1,0,6.6-0.7,7.7,5
	h92c0,0,62.3-23.2,72.7-23.4c10.7-0.4,15.9-0.2,23.9,1.7L248.6,21c0,0,0.7,1.9,1.1,5.2c0.6,3,0.6,5.2,0.6,6c0,0.7,0,3-0.6,6
	c-0.4,3.4-1.1,5.2-1.1,5.2l-43.8,18.9c-8,1.9-13.3,2.1-23.9,1.7C170.4,63.8,108.1,40.6,108.1,40.6L108.1,40.6z"/>
<path class="st1" d="M76.3,98h49.2c0.6,3.1,3.5,2.7,4.1,2.7c4.3,0,4.4-3.6,4.4-5.5v-3.4c0-1.9-0.1-5.5-4.4-5.5
	c-0.6,0-3.5-0.4-4.1,2.7H76.3c0,0-33.3-12.4-38.9-12.5c-5.7-0.2-8.5-0.1-12.8,0.9L1.2,87.5c0,0-0.4,1-0.6,2.8
	c-0.3,1.6-0.3,2.8-0.3,3.2s0,1.6,0.3,3.2c0.2,1.8,0.6,2.8,0.6,2.8l23.4,10.1c4.3,1,7.1,1.1,12.8,0.9C43,110.4,76.3,98,76.3,98"/>
</svg>
