<?xml version="1.0" encoding="utf-8"?><svg version="1.1" id="Layer_1" xmlns="http://www.w3.org/2000/svg" x="0" y="0" viewBox="0 0 600 309.5" xml:space="preserve"><style>.st0{fill:#2e3192}</style><path class="st0" d="M154.8 309.5C69.4 309.5 0 240.1 0 154.8 0 69.4 69.4 0 154.8 0c85.3 0 154.8 69.4 154.8 154.8-.1 85.3-69.5 154.7-154.8 154.7m0-290.2c-74.7 0-135.4 60.8-135.4 135.4s60.8 135.4 135.4 135.4c74.7 0 135.4-60.8 135.4-135.4S229.4 19.3 154.8 19.3"/><path class="st0" d="M445.2 309.5c-85.3 0-154.8-69.4-154.8-154.8C290.5 69.4 359.9 0 445.2 0S600 69.4 600 154.8c0 85.3-69.4 154.7-154.8 154.7m0-290.2c-74.7 0-135.4 60.8-135.4 135.4s60.8 135.4 135.4 135.4 135.4-60.8 135.4-135.4S519.9 19.3 445.2 19.3"/></svg>