<?xml version="1.0" encoding="utf-8"?><svg xmlns="http://www.w3.org/2000/svg" viewBox="0 0 600 300" xml:space="preserve"><path d="M450 300c-82.7 0-150-67.3-150-150S367.3 0 450 0s150 67.3 150 150-67.3 150-150 150m0-284.8c-74.3 0-134.8 60.5-134.8 134.8S375.7 284.8 450 284.8 584.8 224.3 584.8 150 524.3 15.2 450 15.2" style="fill:#2e3192"/><path d="M150 0c82.7 0 150 67.3 150 150s-67.3 150-150 150S0 232.7 0 150 67.3 0 150 0m0 284.8c74.3 0 134.8-60.5 134.8-134.8S224.3 15.2 150 15.2 15.2 75.7 15.2 150 75.7 284.8 150 284.8" style="fill:none"/><path d="M312 176.3v-3.4h31.9c2.7 0 4.8-1.5 5.6-3.9 1.1-3.7-1.6-7.3-5.5-7.3h-31.9v-3.3H351c3.3 0 5.7-2.4 5.7-5.6s-2.5-5.6-5.8-5.6H312v-3.3h31c3 0 5.2-1.9 5.6-5 .5-3.1-2.1-6.2-5.2-6.2h-49.6c-.8 0-1.5-.2-1.9-.9-.4-.9-.1-1.7.8-2.3 3.6-2.1 7.2-4.3 10.9-6.4 2.8-1.6 3.7-4.4 2.5-7.4-1.3-3-4.7-4.1-7.7-2.4-5 2.9-10.1 5.9-15.1 8.9-3.7 2.2-7.4 4.3-11 6.5-1.2.7-2.3 1.8-3.3 2.8-4.2 4.3-7.6 9.1-9.9 14.8-2 5-3 10.2-2.5 15.6.9 9.8 5.8 17.1 14.4 21.7 3.9 2.1 8.1 3.2 12.5 3.6 2.1.2 4.2.2 6.2.2h41.7c3.3 0 5.8-2.5 5.7-5.7-.1-3-2.5-5.4-5.4-5.4z" style="fill:#c9ac68"/></svg>