<?xml version="1.0" encoding="utf-8"?><svg xmlns="http://www.w3.org/2000/svg" viewBox="0 0 262.6 135.9" xml:space="preserve"><path d="M193.1 134.5c-8.1 0-16.1-1.4-24-4.1-20.2-7.1-35.7-22.1-42.1-41.1-.2-.9-1-4.1-2.8-11.4l-2.3-10c-.6-2.4-1-4.2-1.2-4.7-7.2-24.9-34.4-41.8-59.3-36.6-22.2 2.8-40.7 19-46.1 40.4l-.2 1.3c-.7 1.5-1.6 3.7-4 4.9-1.7.6-3.4.8-5.1.2-4.6-1.7-4.6-6.7-4.6-8.5 0-3 .5-7 1.5-12.4 5.3-18 16.8-32.8 31.7-41.1C51.4.6 72.9-1.6 93.4 5.5c20.2 7 35.5 22 42.1 41.1.6 1.7 1.8 7.2 3.7 15.4.5 2.2.9 4.3 1.4 6.1.4 1.6.7 2.9.8 3.7l.2.8c7.4 25 34.7 41.8 59.7 36.7a54.8 54.8 0 0 0 45.9-40.5l.5-1.3c.2-.8 1.1-3.6 4-4.8 1.6-.7 3.3-.8 5.1-.1 5.9 2.4 4.9 10 3 20.6l-.1.7c-5.1 17.5-16.7 32.3-31.6 40.6a67 67 0 0 1-35 10z" style="fill:#2e3191;stroke:#fff;stroke-width:2.75;stroke-miterlimit:10"/></svg>