<?xml version="1.0" encoding="utf-8"?>
<!-- Generator: Adobe Illustrator 27.1.0, SVG Export Plug-In . SVG Version: 6.00 Build 0)  -->
<svg version="1.1" id="Layer_1" xmlns="http://www.w3.org/2000/svg" xmlns:xlink="http://www.w3.org/1999/xlink" x="0px" y="0px"
	 viewBox="0 0 325 30.3" style="enable-background:new 0 0 325 30.3;" xml:space="preserve">
<style type="text/css">
	.st0{fill:#FFFFFF;}
	.st1{fill:#2E3192;}
	.st2{fill:#0000FF;fill-opacity:0;}
	.st3{fill:none;}
</style>
<g>
	<g>
		<path class="st0" d="M263.4,0c3.8,0.8,7.5,0.6,11.2,1c3.7,0.3,7.3,1.7,11.1,2.1c4,0.3,7.9,0.1,11.9,0.1c1.8,0,3.3-0.6,5.1-0.7
			c0.3,0,1.6-0.1,1.8,0.5s-1,0.7-0.8,1.2c0.1,0.7,4,0.2,4.5,0.3c1.8,0.1,3.3,0.8,5.1,1.2c1,0.2,3.8,0.3,4.1,1.4
			c0.5,1.4-2.5,0.8-3.1,0.8c-0.6,0-2.5-0.6-1.6,0.3c0.9,1,3.3,1.4,4.5,2c1,0.5,3.3,1,4.2,2c1,1,0.5,1.6-0.8,1.3
			c-0.6-0.2-2.5-1-1.8,0.1c0.3,0.5,3.8,0.8,2.8,1.8c-0.7,0.7-4-0.3-4.8-0.5c-1.2-0.1-2.7-0.2-1,0.8c1.2,0.7,2.3,1.3,3.5,1.8
			c0.8,0.3,1.5,0.5,2.3,0.6c0.2,0,1-0.1,1.3,0.2c0.8,0.6-0.7,0.6-0.5,1.4c0.1,0.3,2.6,2.8,2.6,2.7c0,0.7,0,1.4,0,2.1
			c-1.4-0.3-1.8-1.5-2.8-2.5c-1-1-2.2-1.8-3.3-2.5c-2.3-1.2-4.5,0.7-6.8,1c-1.6,0.1-3-0.5-4.5-0.8c-1.8-0.3-3.5-0.5-5.3-0.5
			c-3.3,0-6.4,0.8-9.8,1.3c-2.9,0.3-5.3,1.6-8.3,1.3c-1.8-0.2-3.5-0.3-5.1,0c-5,1-9.1,3.5-13.6,5c-1.3,0.5-2.5,1-3.3,1.8
			c-0.5,0.5-1.2,0.8-1.8,1c-5.6,1.6-15.7-0.1-17.6-0.7c-1.8-0.6-3.8-1.5-5.8-1.8c-1.8-0.2-3.8,0.7-5.5,1c-2,0.3-4,0.5-5.9,0.3
			c-3.5-0.1-7-0.7-10.3-2.2c-2.8-1.3-6.1-3-9.2-3.3c-3.8-0.3-7.5,0.2-11.1-0.2c-3.6-0.4-7.3-0.3-11.1-0.6c-3.6-0.2-7.3-1-10.8-0.2
			c-1.6,0.3-2.3,1-3.3,2.2c-0.8,1-2,2.8-3.1,3c-0.8,0.1-1.2-1-1.8-1.2c-0.8-0.3-1.3,0.5-2.1,0.6c-1.5,0.3-2.1-1.4-3.8-1.6
			c-0.7-0.1-1.6,0.6-2.1,0.1c-0.5-0.3-0.2-0.6-0.8-1c-0.6-0.5-0.8-0.3-1.6-1c-1-0.7-2.5-3.3-2.2-4.4c0.3-1.8,1.2-1.2,1.3-2.5
			c0.1-1.2-0.2-1.6-0.6-2.7c-1.2-3.6,2.7,0.8,3.6-1c0.3-0.7-1.2-2.8,0-2.8c0.8,0,1.6,1.3,2.2,1.6c1.5,1,5.5,2.5,5.5-0.6
			c0-2.1,3.3-4.4,6.5-0.5c1,1.5,1.8,3.1,3.8,3.3c2.2,0.3,4.6,0.1,7,0.1c2.3,0,4.5-0.3,6.8-0.5s4.6,0,7-0.2c2.5-0.2,4.8-0.3,7.2-0.6
			c2.1-0.2,4.2-1.6,6.1-2.5c2-1,4-2,5.9-3.1c1.8-1,3.3-2.3,5.1-3c3.6-1.4,8.8-2.2,12.4-1.4c0.3,0.1,0.8,0.5,1,0.6
			c1.4,0.6,3.8,1,5.3,1c2.2-0.1,4.4-0.5,6.5-1c4.3-1,8.1-2.5,12.6-2.8 M310.6,12c-0.2-0.2-0.6-0.2-0.8-0.2c-1.8-0.5-3.8-0.8-5.6-1.5
			c-1.5-0.6-2.8-1.5-4.4-1.8c-3.6-0.8-7-1.6-10.7-1c-1.6,0.3-3.1,1-4.8,1c-1.4,0-2.7-0.3-4.1-0.5c-3.1-0.3-6.1-1.5-9.2-1.3
			c-1,0.1-3.3,0.3-3.8,1.4c-0.7,1.4,1.4,3.1,2.1,3.8c1.2,0.8,3.6,2,6.8,2.1c1.5,0,3.1,0.2,4.6,0.1c3.3-0.1,6.8,0.1,10.1,0.1
			c3.3,0.1,6.8,0,10.1-0.3C304,13.6,308.3,13.5,310.6,12z"/>
		<path class="st1" d="M263.3,0.5c2.4,0.5,4.9,0.6,7.2,0.7c1.3,0.1,2.7,0.1,4,0.2c1.8,0.1,3.6,0.5,5.4,1c1.8,0.4,3.8,0.9,5.8,1.1
			c1.5,0.1,3.1,0.2,5.1,0.2c1.2,0,2.3,0,3.4-0.1c1.2,0,2.3-0.1,3.4-0.1c1,0,2-0.2,2.9-0.3c0.8-0.1,1.5-0.3,2.3-0.3h0.4
			c0.3,0,0.4,0,0.5,0.1c0,0,0,0-0.1,0c-0.3,0.1-0.8,0.5-0.6,1.2c0.1,0.8,1.2,0.8,2.4,0.8c0.5,0,1,0,1.5-0.1c0.3,0,0.7,0,0.9,0
			c0.1,0,0.2,0,0.2,0c1.1,0.1,2.1,0.3,3.1,0.7c0.7,0.2,1.3,0.3,2,0.5c0.2,0.1,0.5,0.1,1,0.1c0.7,0.1,2.5,0.4,2.7,0.8
			c0.1,0.1-0.1,0.1-0.8,0.1c-0.4,0-0.8-0.1-1.2-0.1c-0.3,0-0.5-0.1-0.6-0.1S314,7,313.8,7c-0.3-0.1-0.7-0.1-1-0.1
			c-0.5,0-0.8,0.1-0.9,0.5c-0.2,0.5,0.2,0.9,0.3,1c0.7,0.7,1.9,1.1,3.1,1.5c0.6,0.2,1.2,0.4,1.6,0.5c0.3,0.1,0.8,0.3,1.2,0.4
			c1,0.3,2.3,0.8,2.8,1.4c0.2,0.2,0.3,0.3,0.3,0.4l0,0c-0.1,0-0.3,0-0.5-0.1s-1.2-0.5-1.8-0.5c-0.5,0-0.8,0.3-0.8,0.4
			c-0.2,0.5,0.1,0.9,0.3,1.1c0.2,0.3,0.6,0.4,1.4,0.7c0.3,0.1,1,0.3,1.3,0.5c-0.1,0-0.2,0.1-0.4,0.1c-0.8,0-2-0.3-2.8-0.5
			c-0.4-0.1-0.8-0.2-1-0.2c-0.4-0.1-0.8-0.1-1.2-0.1s-1,0-1.2,0.6c-0.2,0.6,0.4,1,1,1.4c1.2,0.8,2.4,1.3,3.6,1.9
			c0.9,0.4,1.6,0.5,2.5,0.6h0.3c0.1,0,0.2,0,0.3,0c-0.1,0.1-0.1,0.1-0.1,0.1c-0.3,0.2-0.5,0.6-0.4,1.2c0.1,0.2,1.6,2.1,2.5,2.8v0.9
			c-0.3-0.2-0.5-0.5-0.9-0.9c-0.3-0.3-0.5-0.7-1-1.1c-1-1-2.3-1.9-3.5-2.5c-0.6-0.3-1.2-0.4-1.9-0.4c-1,0-2.1,0.3-3,0.7
			c-0.8,0.3-1.5,0.5-2.2,0.6c-0.1,0-0.3,0-0.3,0c-1,0-1.8-0.3-2.8-0.5c-0.4-0.1-0.8-0.2-1.2-0.3c-1.6-0.3-3.3-0.5-5.4-0.5
			c-2.3,0-4.5,0.4-6.7,0.8c-1,0.2-2.1,0.3-3.1,0.5s-2.2,0.4-3.1,0.7c-1.4,0.3-2.6,0.7-4,0.7c-0.3,0-0.6,0-1-0.1
			c-1.2-0.1-2.1-0.2-2.9-0.2c-0.9,0-1.6,0.1-2.4,0.2c-3.1,0.6-5.9,1.8-8.7,3c-1.6,0.7-3.3,1.4-5,2c-1.4,0.5-2.6,1-3.6,2
			c-0.3,0.3-1,0.7-1.4,0.8c-1.6,0.5-3.5,0.7-5.9,0.7c-5,0-10.2-1-11.4-1.4c-0.5-0.2-1.2-0.4-1.7-0.6c-1.4-0.5-2.8-1-4.2-1.2
			c-0.2,0-0.4-0.1-0.6-0.1c-1,0-2.1,0.3-3.1,0.5c-0.7,0.2-1.3,0.3-1.9,0.4c-1.4,0.3-2.9,0.4-4.4,0.4c-0.5,0-1,0-1.4-0.1
			c-3.9-0.1-7.2-0.8-10-2.2c-0.4-0.2-0.9-0.4-1.3-0.6c-2.5-1.2-5.3-2.5-8.1-2.8c-0.9-0.1-1.8-0.1-2.9-0.1c-0.8,0-1.6,0-2.4,0.1
			c-0.8,0-1.6,0.1-2.3,0.1c-1.4,0-2.4-0.1-3.4-0.2c-2.3-0.3-4.6-0.3-7-0.4c-1.4-0.1-2.7-0.1-4.2-0.1c-0.9-0.1-1.8-0.1-2.7-0.2
			c-1.6-0.1-3.2-0.3-4.8-0.3c-1.3,0-2.5,0.1-3.5,0.3c-1.8,0.4-2.6,1.2-3.7,2.4c-0.2,0.2-0.4,0.5-0.6,0.8c-0.6,0.8-1.5,1.9-2.2,2.1
			c-0.1,0-0.3-0.1-0.5-0.4c-0.3-0.3-0.5-0.5-1-0.8c-0.1-0.1-0.3-0.1-0.6-0.1c-0.5,0-0.8,0.2-1.2,0.4c-0.2,0.1-0.4,0.3-0.6,0.3
			c-0.1,0-0.2,0.1-0.3,0.1c-0.4,0-0.8-0.3-1.2-0.6c-0.5-0.4-1.2-0.9-2.1-1c-0.1,0-0.1,0-0.3,0c-0.3,0-0.7,0.1-1,0.2
			c-0.2,0.1-0.4,0.1-0.5,0.1c-0.2-0.1-0.2-0.1-0.3-0.3c-0.1-0.3-0.3-0.5-0.6-0.8c-0.3-0.3-0.5-0.3-0.8-0.5c-0.2-0.1-0.5-0.2-0.9-0.5
			c-0.9-0.7-2.2-3-2.1-3.9c0.1-0.8,0.3-0.9,0.5-1.1c0.3-0.3,0.6-0.5,0.7-1.4c0.1-1-0.1-1.6-0.4-2.3c-0.1-0.2-0.1-0.4-0.2-0.6
			c-0.1-0.3-0.1-0.5-0.1-0.6c0.2,0.1,0.4,0.2,0.6,0.3c0.6,0.3,1.2,0.6,1.8,0.6c0.5,0,1-0.3,1.2-0.8c0.3-0.5,0.1-1.2-0.1-1.8
			c-0.1-0.2-0.1-0.5-0.2-0.6c0.3,0.1,0.7,0.5,1,0.8c0.3,0.3,0.5,0.5,0.8,0.7c1,0.7,2.6,1.4,4,1.4c1.6,0,2.4-0.9,2.4-2.4
			c0-1,1-2.1,2.3-2.1c1.1,0,2.2,0.7,3.1,1.9l0.2,0.3c0.9,1.4,1.8,3,3.9,3.3c0.8,0.1,1.8,0.2,3,0.2c0.7,0,1.4,0,2.1-0.1
			c0.7,0,1.4-0.1,2-0.1c1.4,0,2.8-0.1,4.2-0.3c0.9-0.1,1.8-0.1,2.7-0.2c0.9-0.1,1.8-0.1,2.7-0.1c1.4,0,2.8,0,4.2-0.2
			c1.2-0.1,2.4-0.2,3.6-0.3c1.2-0.1,2.4-0.2,3.6-0.3c1.8-0.2,3.5-1.1,5-1.9c0.4-0.2,0.9-0.5,1.3-0.7c0.7-0.3,1.3-0.7,2-1
			c1.3-0.7,2.7-1.4,4-2.1c0.7-0.3,1.4-0.8,2.1-1.3c1-0.7,1.9-1.3,3-1.7c2.7-1,6.1-1.7,9-1.7c1.2,0,2.3,0.1,3.2,0.3
			c0.1,0.1,0.3,0.2,0.5,0.3c0.1,0.1,0.3,0.1,0.3,0.2c1.5,0.6,4,1,5.6,1c2.3-0.1,4.6-0.5,6.7-1.1c1.2-0.3,2.5-0.7,3.7-1
			c2.9-0.8,5.7-1.6,8.8-1.8h5.9V0.5z M284.4,7.8c-0.8,0-1.5-0.1-2.3-0.3c-0.5-0.1-1.1-0.2-1.7-0.2c-1.2-0.1-2.3-0.3-3.3-0.6
			C275.4,6.4,273.7,6,272,6c-0.3,0-0.6,0-0.9,0c-1.3,0.1-3.6,0.4-4.3,1.7c-0.9,1.8,1.4,3.8,2.3,4.4c0.8,0.5,3.3,2.1,7.2,2.3
			c0.6,0,1.2,0.1,1.8,0.1c0.6,0.1,1.3,0.1,1.9,0.1c0.3,0,0.6,0,1,0c0.6,0,1.3,0,2,0c1.4,0,2.7,0.1,4,0.1c1.4,0.1,2.7,0.1,4,0.1
			c0.8,0,1.7,0.1,2.5,0.1c2.5,0,5.1-0.1,7.7-0.4h0.3c3-0.2,7.1-0.3,9.5-1.9l0.6-0.4l-0.5-0.5c-0.3-0.3-0.9-0.4-1.2-0.4
			c-0.5-0.1-0.9-0.2-1.4-0.3c-1.4-0.3-2.7-0.6-4.1-1.2c-0.5-0.2-1.1-0.5-1.6-0.8C302,8.4,301.1,8,300,7.7l-0.3-0.1
			c-2.6-0.6-5-1.2-7.6-1.2l0,0c-1,0-2.1,0.1-3,0.3c-0.5,0.1-1,0.2-1.5,0.3C286.4,7.5,285.4,7.8,284.4,7.8z"/>
		<circle id="centerPoint" class="st2" cx="238.5" cy="4.4" r="2.3"/>
	</g>
	<g>
		<path class="st3" d="M67.5,0.1c4.4,0.3,8.3,1.8,12.6,2.8c2.1,0.5,4.3,0.9,6.5,1c1.5,0,4-0.3,5.3-1c0.2-0.1,0.7-0.5,1-0.6
			c3.7-0.8,8.8,0,12.4,1.4c1.8,0.7,3.3,2.1,5.1,3c2,1.2,4,2.1,5.9,3.1c1.9,0.9,4,2.3,6.1,2.5c2.5,0.3,4.8,0.4,7.2,0.6
			c2.3,0.2,4.6,0.1,7,0.2s4.5,0.5,6.8,0.5c2.3,0,4.8,0.2,7-0.1c2-0.2,2.8-1.8,3.8-3.3c3.1-4,6.5-1.6,6.5,0.5c0,3.1,4,1.6,5.5,0.6
			c0.5-0.3,1.4-1.6,2.2-1.6c1.2,0-0.3,2.1,0,2.8c1,1.8,4.8-2.7,3.6,1c-0.4,1-0.8,1.5-0.6,2.7c0.1,1.3,1,0.7,1.3,2.5
			c0.3,1.2-1.2,3.8-2.2,4.4c-0.8,0.7-1,0.5-1.6,1c-0.6,0.4-0.3,0.7-0.8,1c-0.5,0.5-1.4-0.3-2.1-0.1c-1.6,0.3-2.3,2-3.8,1.6
			c-0.8-0.1-1.3-1-2.1-0.6c-0.7,0.2-1,1.3-1.8,1.2c-1.2-0.2-2.3-2.1-3.1-3c-1-1.2-1.7-1.8-3.3-2.2c-3.5-0.8-7.2,0-10.8,0.2
			c-3.8,0.3-7.5,0.2-11.1,0.6c-3.6,0.4-7.3-0.1-11.1,0.2c-3.1,0.3-6.4,2.1-9.2,3.3c-3.3,1.5-6.8,2.1-10.3,2.2c-2,0.1-4,0-5.9-0.3
			c-1.7-0.3-3.7-1.2-5.5-1c-2,0.3-4,1.2-5.8,1.8c-1.8,0.5-12,2.3-17.6,0.7c-0.6-0.1-1.3-0.5-1.8-1c-0.9-0.9-2.1-1.4-3.3-1.8
			c-4.5-1.5-8.6-4-13.6-5c-1.6-0.3-3.3-0.2-5.1,0c-3,0.3-5.3-1-8.3-1.3c-3.3-0.5-6.4-1.3-9.8-1.3c-1.8,0-3.5,0.1-5.3,0.5
			c-1.5,0.3-2.9,1-4.5,0.8c-2.3-0.3-4.4-2.1-6.8-1c-1.2,0.6-2.4,1.5-3.3,2.5c-1,1-1.4,2.1-2.8,2.5c0-0.8,0-1.4,0-2.1
			c0,0.1,2.5-2.3,2.6-2.7C2.8,19,1.3,19,2.1,18.4c0.3-0.3,1.1-0.2,1.3-0.2c0.8-0.1,1.5-0.3,2.3-0.6c1.2-0.5,2.3-1.2,3.5-1.8
			c1.6-1,0.1-1-1-0.8c-0.8,0.1-4.1,1.2-4.8,0.5c-1-1,2.5-1.4,2.8-1.8c0.8-1.1-1.2-0.3-1.8-0.1c-1.3,0.3-1.8-0.3-0.8-1.3
			c0.8-1,3.1-1.5,4.2-2c1.2-0.6,3.6-1,4.5-2c0.9-1-1-0.3-1.6-0.3C10,7.8,7,8.3,7.5,7c0.3-1,3.1-1.2,4.1-1.4c1.8-0.3,3.3-1,5.1-1.2
			c0.5-0.1,4.4,0.3,4.5-0.3c0.1-0.5-1-0.5-0.8-1.2s1.4-0.5,1.8-0.5c1.8,0.1,3.3,0.7,5.1,0.7c4,0,7.9,0.2,11.9-0.1
			c3.8-0.3,7.5-1.8,11.1-2.1c3.8-0.3,7.5-0.1,11.2-1 M24.1,13.8c3.3,0.3,6.8,0.5,10.1,0.3c3.3,0,6.8-0.3,10.1-0.1
			c1.5,0.1,3.1-0.1,4.6-0.1c3.2-0.1,5.7-1.3,6.8-2.1c0.8-0.6,2.8-2.4,2.1-3.8c-0.5-1-2.8-1.2-3.8-1.4c-3.1-0.2-6.1,1-9.2,1.3
			c-1.4,0.1-2.7,0.5-4.1,0.5c-1.6,0-3.1-0.6-4.8-1c-3.8-0.7-7.1,0.1-10.7,1c-1.6,0.3-2.9,1.2-4.4,1.8c-1.8,0.7-3.8,1-5.6,1.5
			c-0.2,0-0.6,0-0.8,0.2C16.7,13.5,21,13.6,24.1,13.8z"/>
		<path class="st3" d="M61.7,0.8h5.9c3.1,0.1,5.8,1,8.8,1.8c1.2,0.3,2.5,0.8,3.7,1c2.1,0.6,4.4,1,6.7,1.1c1.6,0,4.1-0.4,5.6-1
			c0.1-0.1,0.2-0.1,0.3-0.2c0.2-0.1,0.5-0.3,0.5-0.3c1-0.2,2.1-0.3,3.2-0.3c2.9,0,6.2,0.7,9,1.7c1.1,0.4,2.1,1,3,1.7
			c0.7,0.5,1.4,1,2.1,1.3c1.3,0.8,2.7,1.4,4,2.1c0.7,0.3,1.3,0.7,2,1c0.4,0.2,0.9,0.5,1.3,0.7c1.5,0.8,3.2,1.7,5,1.9
			c1.2,0.1,2.4,0.2,3.6,0.3c1.2,0.1,2.3,0.1,3.6,0.3c1.4,0.2,2.9,0.2,4.2,0.2c0.9,0,1.8,0,2.7,0.1c0.9,0.1,1.8,0.1,2.7,0.2
			c1.4,0.1,2.7,0.3,4.2,0.3c0.6,0,1.3,0.1,2,0.1c0.7,0.1,1.4,0.1,2.1,0.1c1.2,0,2.2-0.1,3-0.2c2.1-0.3,3-1.8,3.9-3.3l0.2-0.3
			c1-1.2,2.1-1.9,3.1-1.9c1.4,0,2.3,1.1,2.3,2.1c0,1.5,0.8,2.4,2.4,2.4c1.4,0,3-0.7,4-1.4c0.3-0.1,0.5-0.4,0.8-0.7
			c0.3-0.3,0.7-0.7,1-0.8c-0.1,0.1-0.1,0.4-0.2,0.6c-0.2,0.6-0.4,1.2-0.1,1.8c0.3,0.5,0.7,0.8,1.2,0.8c0.6,0,1.2-0.3,1.8-0.6
			c0.2-0.1,0.4-0.2,0.6-0.3c0,0.1-0.1,0.3-0.1,0.6c-0.1,0.2-0.1,0.4-0.2,0.6c-0.3,0.6-0.5,1.2-0.4,2.3c0.1,0.8,0.4,1.1,0.7,1.4
			c0.2,0.2,0.4,0.3,0.5,1.1c0.1,0.9-1.2,3.2-2.1,3.9c-0.4,0.3-0.7,0.4-0.9,0.5c-0.2,0.1-0.5,0.2-0.8,0.5c-0.3,0.3-0.5,0.5-0.6,0.8
			c-0.1,0.1-0.1,0.1-0.3,0.3c-0.1,0-0.3-0.1-0.5-0.1c-0.3-0.1-0.6-0.2-1-0.2c-0.1,0-0.2,0-0.3,0c-0.9,0.1-1.5,0.6-2.1,1
			c-0.5,0.3-0.8,0.6-1.2,0.6c-0.1,0-0.1-0.1-0.3-0.1c-0.2,0-0.4-0.1-0.6-0.3c-0.3-0.2-0.7-0.4-1.2-0.4c-0.3,0-0.5,0.1-0.6,0.1
			c-0.4,0.2-0.7,0.5-1,0.8c-0.2,0.3-0.4,0.4-0.5,0.4c-0.7-0.1-1.6-1.2-2.2-2.1c-0.2-0.3-0.4-0.6-0.6-0.8c-1.1-1.2-1.9-2-3.7-2.4
			c-1-0.3-2.2-0.3-3.5-0.3c-1.6,0-3.2,0.1-4.8,0.3c-0.9,0.1-1.8,0.1-2.7,0.2c-1.4,0.1-2.8,0.1-4.2,0.1c-2.3,0.1-4.7,0.1-7,0.4
			c-1,0.1-2.1,0.2-3.4,0.2c-0.8,0-1.6-0.1-2.3-0.1c-0.8-0.1-1.6-0.1-2.4-0.1c-1.1,0-2.1,0.1-2.9,0.1c-2.7,0.3-5.6,1.6-8.1,2.8
			c-0.4,0.2-0.9,0.4-1.3,0.6c-2.9,1.4-6.2,2.1-10,2.2c-0.5,0.1-1,0.1-1.4,0.1c-1.4,0-2.9-0.1-4.4-0.4c-0.6-0.1-1.2-0.2-1.9-0.4
			c-1-0.3-2.1-0.5-3.1-0.5c-0.2,0-0.4,0.1-0.6,0.1c-1.4,0.1-2.9,0.7-4.2,1.2c-0.5,0.2-1.2,0.4-1.7,0.6c-1.2,0.4-6.4,1.4-11.4,1.4
			c-2.4,0-4.3-0.2-5.9-0.7c-0.5-0.1-1.1-0.4-1.4-0.8c-1-1-2.3-1.5-3.6-2c-1.7-0.5-3.3-1.3-5-2c-2.7-1.2-5.5-2.4-8.7-3
			c-0.8-0.1-1.5-0.2-2.4-0.2c-0.9,0-1.8,0.1-2.9,0.2c-0.3,0.1-0.6,0.1-1,0.1c-1.4,0-2.6-0.3-4-0.7c-1-0.3-2.1-0.5-3.1-0.7
			c-1.1-0.1-2.1-0.3-3.1-0.5c-2.2-0.3-4.4-0.8-6.7-0.8c-2.1,0-3.8,0.1-5.4,0.5c-0.4,0.1-0.8,0.1-1.2,0.3c-1,0.2-1.8,0.5-2.8,0.5
			c-0.1,0-0.2,0-0.3,0c-0.7-0.1-1.4-0.3-2.2-0.6c-1-0.3-2-0.7-3-0.7c-0.7,0-1.3,0.1-1.9,0.4c-1.2,0.6-2.5,1.6-3.5,2.5
			c-0.4,0.4-0.7,0.8-1,1.1c-0.3,0.3-0.5,0.7-0.9,0.9v-0.9c1-0.8,2.5-2.6,2.5-2.8c0.1-0.6-0.1-1-0.4-1.2c0,0,0.1,0-0.1-0.1
			c0.1,0,0.2,0,0.3,0h0.3c0.9-0.1,1.6-0.2,2.5-0.6c1.2-0.6,2.3-1.2,3.6-1.9c0.5-0.3,1.2-0.8,1-1.4C10,14.1,9.4,14.1,9,14.1
			s-0.8,0-1.2,0.1c-0.2,0-0.5,0.1-1,0.2c-0.8,0.2-2,0.5-2.8,0.5c-0.2,0-0.3-0.1-0.4-0.1c0.3-0.2,1-0.4,1.3-0.5
			c0.8-0.3,1.2-0.4,1.4-0.7c0.1-0.2,0.5-0.6,0.3-1.1c-0.1-0.1-0.3-0.4-0.8-0.4s-1.6,0.4-1.8,0.5c-0.2,0.1-0.4,0.1-0.5,0.1l0,0
			c0.1-0.1,0.1-0.2,0.3-0.4c0.5-0.6,1.8-1,2.8-1.4c0.5-0.1,0.9-0.3,1.2-0.4c0.4-0.1,1-0.3,1.6-0.5c1.2-0.4,2.5-0.8,3.1-1.5
			c0.1-0.1,0.5-0.5,0.3-1c-0.1-0.3-0.4-0.5-0.9-0.5c-0.3,0-0.6,0.1-1,0.1c-0.2,0-0.4,0.1-0.5,0.1c-0.1,0-0.3,0.1-0.6,0.1
			c-0.3,0-0.8,0.1-1.2,0.1C8.2,7.2,8,7.2,8.1,7.1c0.2-0.4,2.1-0.7,2.7-0.8c0.4,0,0.8-0.1,1-0.1c0.7-0.2,1.3-0.3,2-0.5
			c1-0.3,2-0.6,3.1-0.7c0,0,0.1,0,0.2,0c0.2,0,0.5,0,0.9,0C18.4,5,18.9,5,19.4,5c1.2,0,2.3-0.1,2.4-0.8c0.1-0.6-0.3-1-0.6-1.2
			c-0.1,0-0.1,0-0.1,0c0.1-0.1,0.3-0.1,0.5-0.1h0.4c0.8,0.1,1.5,0.2,2.3,0.3c1,0.1,1.9,0.3,2.9,0.3c1.2,0,2.3,0.1,3.4,0.1
			c1.2,0.1,2.3,0.1,3.4,0.1c2,0,3.6-0.1,5.1-0.2c2-0.2,4-0.7,5.8-1.1c1.8-0.5,3.6-0.9,5.4-1c1.3-0.1,2.7-0.1,4-0.2
			c2.4-0.1,4.9-0.1,7.2-0.7V0.8z M37.4,7.1c-0.5-0.1-1-0.2-1.5-0.3c-1-0.2-2-0.3-3-0.3l0,0c-2.6,0-5,0.5-7.6,1.2L25,7.7
			c-1,0.3-2,0.7-2.9,1.2c-0.5,0.3-1,0.5-1.6,0.8c-1.4,0.5-2.7,0.8-4.1,1.2c-0.5,0.1-0.9,0.2-1.4,0.3c-0.3,0-0.8,0.1-1.2,0.4L13.4,12
			l0.6,0.4c2.4,1.6,6.5,1.7,9.5,1.9h0.3c2.5,0.3,5.1,0.4,7.7,0.4c0.8,0,1.7-0.1,2.5-0.1c1.3,0,2.7,0,4-0.1c1.4,0,2.7-0.1,4-0.1
			c0.7,0,1.4,0,2,0c0.3,0,0.6,0,1,0c0.6,0,1.3,0,1.9-0.1c0.6,0,1.2-0.1,1.8-0.1c4-0.1,6.5-1.8,7.2-2.3c0.8-0.6,3.1-2.6,2.3-4.4
			c-0.8-1.3-3-1.6-4.3-1.7c-0.3,0-0.6,0-0.9,0c-1.8,0-3.4,0.3-5.1,0.7c-1.1,0.3-2.2,0.5-3.3,0.6c-0.6,0-1.2,0.1-1.7,0.2
			c-0.8,0.1-1.6,0.3-2.3,0.3C39.6,7.8,38.6,7.5,37.4,7.1z"/>
		<circle id="centerPoint_00000110457670837726240780000001013434850994121856_" class="st3" cx="86.5" cy="4.4" r="2.3"/>
	</g>
</g>
</svg>
