<?xml version='1.0' encoding='utf-8'?><svg xmlns="http://www.w3.org/2000/svg" viewBox="0 0 300 39.63"><path d="M211.88 25.03h-57.06c-.70 3.59-4.09 3.13-4.79 3.13-4.99 0-5.07-4.18-5.07-6.38v-3.94c0-2.20.08-6.38 5.07-6.38.70 0 4.09-.46 4.79 3.13h57.06s38.61-14.38 45.11-14.50c6.61-.23 9.86-.12 14.85 1.04l27.13 11.71s.46 1.16.70 3.25c.35 1.86.35 3.25.35 3.71s0 1.86-.35 3.71c-.23 2.09-.70 3.25-.70 3.25l-27.13 11.71c-4.99 1.16-8.23 1.28-14.85 1.04-6.49-.12-45.11-14.50-45.11-14.50Z" style="fill:#2e3192;stroke:#fff;stroke-width:2.03;stroke-miterlimit:10"/><path fill="none" d="M88.12 25.03h57.06c.70 3.59 4.09 3.13 4.79 3.13 4.99 0 5.07-4.18 5.07-6.38v-3.94c0-2.20-.08-6.38-5.07-6.38-.70 0-4.09-.46-4.79 3.13H88.12S49.51.21 43.01.09c-6.61-.23-9.86-.12-14.85 1.04L1.04 12.84s-.46 1.16-.70 3.25c-.35 1.86-.35 3.25-.35 3.71s0 1.86.35 3.71c.23 2.09.70 3.25.70 3.25l27.13 11.71c4.99 1.16 8.23 1.28 14.85 1.04 6.49-.12 45.11-14.50 45.11-14.50"/></svg>
