<?xml version='1.0' encoding='utf-8'?><svg xmlns="http://www.w3.org/2000/svg" viewBox="0 0 258.67 34.17"><path d="M182.67 21.58h-49.2c-.6 3.1-3.53 2.7-4.13 2.7-4.3 0-4.37-3.6-4.37-5.5v-3.4c0-1.9.07-5.5 4.37-5.5.6 0 3.53-.4 4.13 2.7h49.2s33.3-12.4 38.9-12.5c5.7-.2 8.5-.1 12.8.9l23.4 10.1s.4 1 .6 2.8c.3 1.6.3 2.8.3 3.2s0 1.6-.3 3.2c-.2 1.8-.6 2.8-.6 2.8l-23.4 10.1c-4.3 1-7.1 1.1-12.8.9-5.6-.1-38.9-12.5-38.9-12.5Z" style="fill:#2e3192"/><path fill="none" d="M76 21.58h49.2c.6 3.1 3.53 2.7 4.13 2.7 4.3 0 4.37-3.6 4.37-5.5v-3.4c0-1.9-.07-5.5-4.37-5.5-.6 0-3.53-.4-4.13 2.7H76S42.7.18 37.1.08c-5.7-.2-8.5-.1-12.8.9L.9 11.08s-.4 1-.6 2.8c-.3 1.6-.3 2.8-.3 3.2s0 1.6.3 3.2c.2 1.8.6 2.8.6 2.8l23.4 10.1c4.3 1 7.1 1.1 12.8.9 5.6-.1 38.9-12.5 38.9-12.5"/></svg>
