<?xml version="1.0" encoding="utf-8"?><svg xmlns="http://www.w3.org/2000/svg" viewBox="0 0 300 150" xml:space="preserve"><path fill="#2e3191" d="M292.2 66.6c-15.4-1.2-28.7-7.9-39.7-18.7s-17.7-25.1-19-40.2a8.6 8.6 0 0 0-17.1 0c-2.8 33.2-32.6 59.2-66.4 59.2s-63.6-26-66.4-59.2a8.6 8.6 0 0 0-17.1 0c-1.3 15.1-8 29.4-19 40.2S23.2 65.3 7.8 66.6C3.4 67 0 70.6 0 75c0 4.3 3.4 8 7.8 8.4 15.4 1.2 28.7 7.9 39.7 18.7s17.7 25.1 19 40.2a8.6 8.6 0 0 0 17.1 0c2.8-33.2 32.6-59.2 66.4-59.2s63.6 26 66.4 59.2a8.6 8.6 0 0 0 17.1 0c1.3-15.1 8-29.4 19-40.2s24.3-17.4 39.7-18.7c4.4-.4 7.8-4 7.8-8.4s-3.4-8-7.8-8.4M75 112.4c-4-8.1-9.3-15.4-15.8-21.9A81 81 0 0 0 37 75q12.3-5.85 22.2-15.6C65.7 53 71 45.7 75 37.6A82 82 0 0 0 113 75a82 82 0 0 0-38 37.4m165.8-21.8a81 81 0 0 0-15.8 21.9c-8-16.3-21.5-29.6-38-37.5a82.3 82.3 0 0 0 37.9-37.4c4 8.1 9.3 15.4 15.8 21.9a84 84 0 0 0 22.2 15.6c-8.1 3.8-15.6 9-22.1 15.5"/></svg>