<?xml version="1.0" encoding="utf-8"?><svg version="1.1" id="minihoop" xmlns="http://www.w3.org/2000/svg" x="0" y="0" viewBox="0 0 257.3 137.1" xml:space="preserve"><style>.st0{fill:#2e3191}</style><path class="st0" d="M188.7 136.8c37.7 0 68.3-30.6 68.3-68.2C257 30.9 226.4.3 188.7.3c-37.6 0-68.2 30.6-68.2 68.3 0 37.6 30.6 68.2 68.2 68.2m0-120.6a52.26 52.26 0 1 1-52.2 52.3c0-28.8 23.4-52.2 52.2-52.3"/><path class="st0" d="M68.3.6C30.6.6 0 31.2 0 68.8c0 37.7 30.6 68.3 68.3 68.3 37.6 0 68.2-30.6 68.2-68.3C136.5 31.2 105.9.6 68.3.6m0 120.5a52.26 52.26 0 1 1 52.2-52.3c0 28.9-23.4 52.3-52.2 52.3"/></svg>