<?xml version="1.0" encoding="utf-8"?><svg version="1.1" id="Layer_1" xmlns="http://www.w3.org/2000/svg" x="0" y="0" viewBox="0 0 250 190.3" xml:space="preserve"><style>.st0{fill:#2e3192}</style><path class="st0" d="M250 95.1c0 4.8-.5 9.6-1.5 14.2a95.6 95.6 0 0 1-31.8 57.9 95.8 95.8 0 0 1-62.7 23.5c-52.7 0-95.6-42.9-95.6-95.6 0-4.5 3.6-8.1 8.1-8.1s8.1 3.6 8.1 8.1c0 43.8 35.6 79.4 79.4 79.4 16.8 0 33-5.3 46.4-15-5.5 1.4-11.1 2.2-16.9 2.2-36.7 0-66.6-29.9-66.6-66.5 0-27.8-22.6-50.3-50.3-50.3-27.1 0-49.6 22-50.3 49.1v1.3c0 4.5-3.6 8.1-8.1 8.1S.1 99.8.1 95.3v-1.7C.5 68.3 10.6 44.7 28.6 27S70.4-.5 95.6-.5c52.7 0 95.6 42.9 95.6 95.6 0 4.5-3.6 8.1-8.1 8.1s-8.1-3.6-8.1-8.1c0-43.8-35.6-79.4-79.4-79.4-17 0-33.2 5.3-46.7 15.2q8.55-2.4 17.7-2.4c36.7 0 66.6 29.9 66.6 66.5 0 27.8 22.6 50.3 50.3 50.3 23.4 0 44-16.5 49.1-39.3.8-3.6 1.2-7.3 1.2-11 0-4.2 3.3-7.8 7.5-8.1h.6c4.5.1 8.1 3.8 8.1 8.2"/><path class="st0" d="M247.4 94.4c0 4.3-9.7 7.8-21.6 7.8s-21.6-3.5-21.6-7.8 9.7-7.8 21.6-7.8c2.4 0 15.6-.3 17.7.4 6 2.1 3.9 4 3.9 7.4"/></svg>