<?xml version="1.0" encoding="utf-8"?><svg version="1.1" id="Layer_1" xmlns="http://www.w3.org/2000/svg" x="0" y="0" viewBox="0 0 600.8 111.5" xml:space="preserve"><style>.st1{fill:#fff}</style><path d="M600.8 55.4c0-31.4-8-42.9-15.9-48.4S560-.6 553.2.2c-6.2.7-12 2.8-17.6 5.4-6.6 3-12.6 7-18.5 11.3-4.9 3.5-9.9 3.7-15.2 1.2-1.1-.2-2.2-.5-3-1.2-.3-.1-.5-.1-.8-.2-6.5-2.8-13.1-4.9-20.2-4.9-10.5.1-18 5.1-22.9 14.2-1.9 3.6-3 7.5-4.3 11.3-.2.9-.3 1.7-.5 2.6-.3 1.4-.7 2.8-.7 4.2 0 1-.1 2.1-1 2.1h-.1l-84.2.3h-.1c-2.2.4-4.5 0-6.7.1h-7.7c-.5.1-1 .1-1.5-.1-.7-.2-1.3-.5-2-1-.9-.6-1.6-1.9-3.1-1.5-.9.2-1.4-.1-1.7-1.2-.4-1.4-1.5-2.6-3.2-2.6s-3 .9-3.4 2.6c-.2 1-.7 1.2-1.6 1.2-1 .1-1.3-.6-1.4-1.2-.3-1.6-1.5-2.3-2.9-2.6-1.6-.3-2.7.7-3.5 1.9-.5.7-.6 1.5-1.9 1.5-1.3.1-1.3-1-1.6-1.6-.6-1.3-1.4-1.9-2.9-2-1.6-.1-2.9.5-3.3 1.8-.5 1.6-1.4 1.5-2.6 1.7-2.5.2-5.6-1.3-7.3 2-.1.1-.4.1-.5.3-.3.5-1.2-.1-1.4.7-.4 2.4-2.1 4-3.8 5.6-.3.3-.5.6-.5 1.1.1 2.6-.6 5.4 2.2 7.2.9.6 1.3 1.8 1.7 2.8.7 1.9 3.5 2 3.6 4.4 0 .1 1.1.1 1.6.1 1.7-.2 3.3-.5 5-.4.9 0 1.5.2 1.6 1.2.3 1.7 1.7 2.5 3.1 2.6 1.6.1 2.9-1 3.5-2.5.3-.7.4-1.3 1.5-1.3 1 0 1.3.5 1.7 1.2.7 1.4 1.7 2.2 3.2 2.3 1.7 0 2.6-1.1 3.4-2.4.3-.5.1-1.6 1.3-1.4 1.1.1 1.3.7 1.6 1.5.8 2.2 3.3 3 5.1 1.6 1.5-1.2 2.2-2.9 4.6-3.7 1.7-.5 3.2-1.4 5-1.6.5-.1 1.1-.1 1.7-.1.4 0 .7.1 1.1.1 3.7.2 7.4.1 11.2 0 1.4 0 2.7-.1 4.1-.1h15.3c2.9 0 5.8.1 8.7.1l56.6.2h.1c1 0 .9 1.1 1 1.8.3 1.3.3 2.6.4 3.9.5.6.6 1.4.4 2.1.2.2.4.4.4.7 1.5 6.1 3.8 11.8 7.9 16.8 4.6 5.6 10.5 8.4 17.6 8.8 8.2.5 15.8-2.1 23.2-5.4.7-.3 1.4-.5 2.2-.8 3.2-1.2 6.3-2.1 9.8-1.5 2.8.5 4.9 2.2 7.1 3.6 7.4 5 14.9 9.9 23.5 12.8 7.6 2.6 15.4 4.4 23.5 3.2 7.7-1.2 14-4.4 19.5-9.9 6.3-6 16.2-14.3 16.2-45.7m-282.6-8v4.4c-2.2-1.7-2.1-3.3 0-4.4m.2 14.1c.1.6 0 1.3 0 2.2-1-.5-1.6-1-1.7-1.8-.1-1-.2-2.3 1-2.4 1.1 0 .6 1.3.7 2m7.1 2.1c-1.4-.1-2.8.2-4.2.4-1 .1-1.4-.3-1.3-1.3.1-.6.1-1.3 0-1.9-.2-1.2.3-1.6 1.5-1.5 1.2 0 2.5-.2 3.7-.4 2-.3 3 .3 2.4 2.4.6 1.9-.3 2.4-2.1 2.3m2.2-12.2c-.2.7-.6.6-1.1.6h-3.8c-2.8 0-2.8 0-2.8-2.8 0-1.9 0-1.9 3.8-1.9h.8c3.1 0 3.9 1.2 3.1 4.1m9.4 11.2c0 .5-.4.5-.8.5-1.4-.1-2.8.2-4.2.4-.7.1-2 .6-2.2-.4-.3-1.3-.5-3.3.1-3.8 1-.9 2.8-.9 4.7-.7.5.1 1.9-.6 2.2.3.5 1 .2 2.4.2 3.7m0-10.8c-.1.5-.4.6-.9.6-2 .2-3.9-.5-5.8-.4-.5 0-.5-.3-.6-.7-.6-2.8-.1-3.5 2.8-3.5h1.5c2.9 0 3.8 1.1 3 4m2.5-3.8c1.2-.7 3.1-.6 4.6.3.8.5 1.1 1.5.9 2.3-.4 1.6-1.7 2.1-3.3 1.8h-.3c-.6-.4-1.9.7-2.1-.7-.3-1.2-.8-3.1.2-3.7m1.4 15.2c-2.8.2-1.6-1.7-1.8-2.9-.5-2.3 1.1-1.9 2.6-1.8 1.8-.4 3.1.4 3.4 2.3.2 1.5-1.4 2.2-4.2 2.4m137.7 2-.3-.3c-.7-6.3-.4-12.6-.1-18.9v-.2s.1 0 .2-.1c.1 0 .5.1.9.2 0 6.1-.6 13.2-.7 19.3m17 5.9c-6.4 1.6-11.9-.1-16.2-4.9.9.1 2-.2 2.7.4 3.6 2.9 7.6 4.5 12.3 3.3 7.9-1.9 13.4-9.1 11.2-18.1-1.4-5.7-5.2-9.1-10.6-10.6-4.9-1.3-9.6-.2-13.4 3.6-.5.5-1 .8-1.6.9 2.3-3.6 5-5.8 9.1-6.3 8.5-.9 15.3 3.5 17.8 11.5 3 8.7-2.2 17.9-11.3 20.2m-12.9-15.6c0-2.3.1-4.7 0-7-.1-1.8.7-2.8 2-3.6 7.2-4.1 16.7-1.8 19.1 7.7 2 7.7-3.8 15-11.5 15.2-3.2.1-6-.5-8.5-2.6-.8-.7-1.2-1.4-1.1-2.5zm74.9-27.1V83c-3 .8-5.9.8-8.8 0 0-18 0-36.1-.1-54.2 0-1.2.3-1.6 1.5-1.5 2.3.1 4.7.1 7 .1.7.2.4.7.4 1" style="fill:#2e3192"/><path class="st1" d="M380.5 47.3v16.5c0 .2 0 .4-.1.5-.1.2-.2.4-.4.4s-.3-.2-.4-.4-.1-.3-.1-.5V47.3c0-.2 0-.4.1-.5.1-.2.2-.4.4-.4s.3.2.4.4c.1.1.1.3.1.5m-20.8.3v16.1c0 .2 0 .4-.1.5-.1.2-.3.4-.4.4-.2 0-.3-.2-.4-.4-.1-.1-.1-.3-.1-.5V47.6c0-.2 0-.4.1-.5.1-.2.3-.4.4-.4.2 0 .3.2.4.4 0 .1.1.3.1.5m11-.2v16.2c0 .2 0 .4-.1.5-.1.2-.2.4-.4.4s-.3-.2-.4-.4c-.1-.1-.1-.3-.1-.5V47.4c0-.2 0-.4.1-.5.1-.2.2-.4.4-.4s.3.2.4.4c.1.1.1.3.1.5m37.5-.2V64c0 .2 0 .4-.1.5-.1.2-.2.4-.4.4s-.4-.2-.4-.4c-.1-.2-.1-.3-.1-.5V47.2c0-.2 0-.4.1-.5.1-.2.2-.4.4-.4s.4.2.4.4c.1.1.1.3.1.5m-8.7.1v16.6c0 .2 0 .4-.1.5-.1.2-.3.4-.4.4-.2 0-.3-.2-.4-.4s-.1-.3-.1-.5V47.3c0-.2 0-.4.1-.5.1-.2.3-.4.4-.4.2 0 .3.2.4.4.1.1.1.3.1.5m-9.1 0v16.6c0 .2 0 .4-.1.5-.1.2-.3.4-.4.4-.2 0-.3-.2-.4-.4s-.1-.3-.1-.5V47.3c0-.2 0-.4.1-.5.1-.2.3-.4.4-.4.2 0 .3.2.4.4.1.1.1.3.1.5"/><path d="M430.6 46.4s-.1 0 0 0c-.1.1 0 .1 0 0 0 .1.1.1 0 0 .1 0 0 0 0 0"/><path class="st1" d="M430.6 46.4s-.1 0 0 0c-.1.1 0 .1 0 0 0 .1.1.1 0 0 .1 0 0 0 0 0m36.3.3c.1.2.1.3.1.5v16.6c0 .2 0 .4-.1.5-.1.2-.2.4-.4.4s-.3-.2-.4-.4-.1-.3-.1-.5V47.3c0-.2 0-.4.1-.5.1-.2.2-.4.4-.4.1-.1.3.1.4.3m9.4.6v16.6c0 .2 0 .4-.1.5-.1.2-.2.4-.4.4s-.3-.2-.4-.4-.1-.3-.1-.5V47.3c0-.2 0-.4.1-.5.1-.2.2-.4.4-.4s.3.2.4.4c0 .1.1.3.1.5m-4.8-.6c.1.2.1.3.1.5v16.6c0 .2 0 .4-.1.5-.1.2-.2.4-.4.4-.3 0-.5-.4-.5-.9V47.3c0-.5.2-.9.5-.9.2-.1.3.1.4.3m-9.8 0c.1.2.1.3.1.5v16.6c0 .2 0 .4-.1.5-.1.2-.2.4-.4.4s-.3-.2-.4-.4-.1-.3-.1-.5V47.3c0-.2 0-.4.1-.5.1-.2.2-.4.4-.4.1-.1.3.1.4.3m-45.7-.1c.1.2.1.3.1.5V64c0 .2 0 .4-.1.5-.1.2-.3.4-.4.4-.2 0-.3-.2-.4-.4s-.1-.3-.1-.5V47.2c0-.2 0-.4.1-.5.1-.2.3-.4.4-.4.2-.1.3.1.4.3m7.8 0c.1.2.1.3.1.5V64c0 .2 0 .4-.1.5-.1.2-.2.4-.4.4s-.3-.2-.4-.4-.1-.3-.1-.5V47.2c0-.2 0-.4.1-.5.1-.2.2-.4.4-.4.1-.1.3.1.4.3"/><path class="st1" d="M430.6 46.2c-.2 0-.4.2-.4.4-.1.2-.1.3-.1.5V64c0 .2 0 .4.1.5.1.2.2.4.4.4s.4-.2.4-.4c.1-.2.1-.3.1-.5V47.1c0-.2 0-.4-.1-.5 0-.3-.2-.4-.4-.4m7.1.4c.1.2.1.3.1.5V64c0 .2 0 .4-.1.5-.1.2-.2.4-.4.4s-.3-.2-.4-.4-.1-.3-.1-.5V47.1c0-.2 0-.4.1-.5.1-.2.2-.4.4-.4s.4.1.4.4m6.7 0c.1.2.1.3.1.5v17c0 .2 0 .4-.1.5-.1.2-.2.4-.4.4s-.3-.2-.4-.4-.1-.3-.1-.5v-17c0-.2 0-.4.1-.5.1-.2.2-.4.4-.4s.4.1.4.4m6 .1c.1.1.1.3.1.4V64c0 .2 0 .3-.1.4v.1c-.1.2-.3.4-.4.4-.2 0-.3-.2-.4-.4s-.1-.3-.1-.5V47.2c0-.2 0-.4.1-.5.1-.2.3-.4.4-.4.1-.1.3.1.4.4m5.5 0c.1.2.1.3.1.5v16.6c0 .2 0 .4-.1.5-.1.2-.2.4-.4.4-.3 0-.5-.4-.5-.9V47.3c0-.5.2-.9.5-.9.1-.1.3.1.4.3m24.8.6v16.6c0 .2 0 .4-.1.5-.1.2-.2.4-.4.4s-.3-.2-.4-.4-.1-.3-.1-.5V47.3c0-.2 0-.4.1-.5.1-.2.2-.4.4-.4s.3.2.4.4c0 .1.1.3.1.5"/></svg>