<?xml version='1.0' encoding='utf-8'?><svg xmlns="http://www.w3.org/2000/svg" data-name="Layer 1" viewBox="0 0 75 100"><path fill="#2e3192" d="M11.17 44.59h3.37V12.7a5.61 5.61 0 1 1 11.2-.01v31.9h3.32V5.72A5.5 5.5 0 0 1 34.66 0a5.55 5.55 0 0 1 5.58 5.77v38.81h3.32V13.56c0-2.99 1.95-5.19 4.97-5.64 3.08-.45 6.18 2.1 6.19 5.15q.02 5.73 0 11.46v38.13c0 .79.16 1.47.94 1.87.85.44 1.73.15 2.27-.77l6.41-10.87c1.64-2.79 4.42-3.73 7.43-2.48 3.04 1.26 4.15 4.73 2.41 7.7L65.3 73.19c-2.17 3.68-4.29 7.4-6.55 11.03a18 18 0 0 1-2.81 3.27 46 46 0 0 1-14.76 9.87c-5.01 2.03-10.23 3.03-15.63 2.51-9.85-.94-17.1-5.78-21.71-14.35A32 32 0 0 1 .26 73a76 76 0 0 1-.25-6.23L0 25.08a5.6 5.6 0 0 1 5.74-5.7 5.5 5.5 0 0 1 5.42 5.41z"/></svg>