<?xml version="1.0" encoding="utf-8"?><svg xmlns="http://www.w3.org/2000/svg" viewBox="0 0 257.3 137.1" xml:space="preserve"><path d="M188.7 136.8c37.7 0 68.3-30.6 68.3-68.2C257 30.9 226.4.3 188.7.3c-37.6 0-68.2 30.6-68.2 68.3 0 37.6 30.6 68.2 68.2 68.2zm0-120.6a52.26 52.26 0 1 1-52.2 52.3c0-28.8 23.4-52.2 52.2-52.3z" style="fill:#2e3192;stroke:#fff;stroke-width:1.75;stroke-miterlimit:10"/><path d="M68.3.6C30.6.6 0 31.2 0 68.8c0 37.7 30.6 68.3 68.3 68.3 37.6 0 68.2-30.6 68.2-68.3C136.5 31.2 105.9.6 68.3.6m0 120.5a52.26 52.26 0 1 1 52.2-52.3c0 28.9-23.4 52.3-52.2 52.3" style="fill:none"/><path d="M134.1 95.2v-3.4H166c2.7 0 4.8-1.5 5.6-3.9 1.1-3.7-1.6-7.3-5.5-7.3h-31.9v-3.3h38.9c3.3 0 5.7-2.4 5.7-5.6s-2.5-5.6-5.8-5.6h-38.9v-3.3h31c3 0 5.2-1.9 5.6-5 .5-3.1-2.1-6.2-5.2-6.2h-49.6c-.8 0-1.5-.2-1.9-.9-.4-.9-.1-1.7.8-2.3 3.6-2.1 7.2-4.3 10.9-6.4 2.8-1.6 3.7-4.4 2.5-7.4-1.3-3-4.7-4.1-7.7-2.4-5 2.9-10.1 5.9-15.1 8.9-3.7 2.2-7.4 4.3-11 6.5-1.2.7-2.3 1.8-3.3 2.8-4.2 4.3-7.6 9.1-9.9 14.8-2 5-3 10.2-2.5 15.6.9 9.8 5.8 17.1 14.4 21.7 3.9 2.1 8.1 3.2 12.5 3.6 2.1.2 4.2.2 6.2.2h41.7c3.3 0 5.8-2.5 5.7-5.7-.1-3-2.5-5.4-5.4-5.4z" style="fill:#c9ac68"/></svg>