<?xml version="1.0" encoding="utf-8"?>
<!-- Generator: Adobe Illustrator 27.1.0, SVG Export Plug-In . SVG Version: 6.00 Build 0)  -->
<svg version="1.1" id="Layer_1" xmlns="http://www.w3.org/2000/svg" xmlns:xlink="http://www.w3.org/1999/xlink" x="0px" y="0px"
	 viewBox="0 0 257.3 137.1" style="enable-background:new 0 0 257.3 137.1;" xml:space="preserve">
<style type="text/css">
	.st0{fill:#2E3192;}
	.st1{fill:none;}
	.st2{fill:#C9AC68;}
</style>
<path class="st0" d="M188.7,136.8c37.7,0,68.3-30.6,68.3-68.2c0-37.7-30.6-68.3-68.3-68.3c-37.6,0-68.2,30.6-68.2,68.3
	C120.5,106.2,151.1,136.8,188.7,136.8z M188.7,16.2c28.9,0,52.3,23.3,52.3,52.2s-23.3,52.3-52.2,52.3s-52.3-23.3-52.3-52.2
	c0,0,0,0,0,0C136.5,39.7,159.9,16.3,188.7,16.2z"/>
<path class="st1" d="M68.3,0.6C30.6,0.6,0,31.2,0,68.8c0,37.7,30.6,68.3,68.3,68.3c37.6,0,68.2-30.6,68.2-68.3
	C136.5,31.2,105.9,0.6,68.3,0.6 M68.3,121.1C39.4,121.1,16,97.8,16,68.9s23.3-52.3,52.2-52.3s52.3,23.3,52.3,52.2c0,0,0,0,0,0
	C120.5,97.7,97.1,121.1,68.3,121.1"/>
<path class="st2" d="M133,89.9v-2.7h25.5c2.2,0,3.8-1.2,4.5-3.1c0.9-3-1.3-5.8-4.4-5.8h-25.5v-2.6h31c2.6,0,4.5-1.9,4.5-4.5
	s-2-4.5-4.6-4.5h-31V64h24.7c2.4,0,4.2-1.5,4.5-4c0.4-2.5-1.7-4.9-4.2-4.9h-39.6c-0.6,0-1.2-0.2-1.5-0.7c-0.3-0.7-0.1-1.4,0.6-1.8
	c2.9-1.7,5.7-3.4,8.7-5.1c2.2-1.3,3-3.5,2-5.9c-1-2.4-3.8-3.3-6.1-1.9c-4,2.3-8.1,4.7-12.1,7.1c-3,1.8-5.9,3.4-8.8,5.2
	c-1,0.6-1.8,1.4-2.6,2.2c-3.4,3.4-6.1,7.3-7.9,11.8c-1.6,4-2.4,8.1-2,12.5c0.7,7.8,4.6,13.6,11.5,17.3c3.1,1.7,6.5,2.6,10,2.9
	c1.7,0.2,3.4,0.2,4.9,0.2h33.3c2.6,0,4.6-2,4.5-4.5c-0.1-2.4-2-4.3-4.3-4.3L133,89.9z"/>
</svg>
