<?xml version="1.0" encoding="utf-8"?><svg xmlns="http://www.w3.org/2000/svg" viewBox="0 0 250 250" xml:space="preserve"><path d="M229.7 104.8c-5 0-11.8-.5-11.8 4.3v6H135V32.2h6c4.8 0 4.3-6.9 4.3-11.9S145.7 0 140.9 0h-31.8c-4.8 0-4.3 15.3-4.3 20.3s-.5 11.9 4.3 11.9h6v82.9H32.2v-6c0-4.8-6.8-4.3-11.8-4.3S0 104.3 0 109.1v31.8c0 4.8 15.4 4.3 20.4 4.3s11.8.5 11.8-4.3v-6h82.9v82.9h-6c-4.8 0-4.3 6.8-4.3 11.8s-.5 20.4 4.3 20.4h31.8c4.8 0 4.3-15.4 4.3-20.4s.5-11.8-4.3-11.8h-6v-82.9h82.9v6c0 4.8 6.8 4.3 11.8 4.3s20.3.5 20.3-4.3v-31.8c.1-4.8-15.2-4.3-20.2-4.3M125 132.2c-4 0-7.2-3.2-7.2-7.2s3.2-7.2 7.2-7.2 7.2 3.2 7.2 7.2-3.2 7.2-7.2 7.2" style="fill:#2e3191"/></svg>