<?xml version="1.0" encoding="utf-8"?><svg version="1.1" id="Layer_1" xmlns="http://www.w3.org/2000/svg" x="0" y="0" viewBox="0 0 572.3 64" xml:space="preserve"><style>.st0{fill:#989498}.st2{fill:none}</style><g id="sword"><g id="hilt"><path class="st0" d="M118.7 10.5v42.9c0 5.2 4.2 9.5 9.4 9.5h9.1c5.2 0 9.4-4.2 9.4-9.5l12.4-10h.8V20.5h-.8l-12.4-10c0-5.2-4.2-9.5-9.4-9.5h-9.1c-5.2 0-9.4 4.2-9.4 9.5"/><path d="M117.7 53.4V10.5c0-5.8 4.7-10.5 10.4-10.5h9.1c5.6 0 10.1 4.4 10.4 10l11.7 9.5h1.4v24.9h-1.4l-11.7 9.5c-.3 5.6-4.8 10-10.4 10h-9.1c-5.7 0-10.4-4.7-10.4-10.5m41-31.9h-.1l-13-10.6v-.5c0-4.7-3.7-8.5-8.3-8.5h-9.1c-4.6 0-8.4 3.8-8.4 8.5v42.9c0 4.7 3.8 8.5 8.4 8.5h9.1c4.6 0 8.3-3.8 8.3-8.5v-.5l13-10.6h.1z"/></g><g id="handle"><path class="st0" d="M159.7 20.5v22.9h115.5c1.6 10.4 5.2 17.7 9.5 17.7 4.2 0 7.9-7.3 9.5-17.7a82 82 0 0 0 0-22.8c-1.6-10.4-5.2-17.7-9.5-17.7s-7.9 7.3-9.5 17.7H159.7z"/><path d="M274.3 44.4H158.7V19.5h115.6c1.8-10.9 5.7-17.7 10.3-17.7 4.7 0 8.7 7.1 10.5 18.5.6 3.6.8 7.5.8 11.6s-.3 8-.8 11.6c-1.7 11.4-5.7 18.5-10.5 18.5-4.6.1-8.5-6.7-10.3-17.6m1.9-23.7-.1.9H160.7v20.9H276l.1.9c1.5 9.9 5 16.8 8.5 16.8s7-6.9 8.5-16.8a80 80 0 0 0 0-22.6c-1.5-9.9-5-16.8-8.5-16.8-3.5-.1-7 6.8-8.4 16.7"/></g><g id="wick"><path d="M294.9 32c0 4.1-.3 7.9-.8 11.4H560c3.2 0 6-1.3 8.1-3.3 2.1-2.1 3.3-4.9 3.3-8.1 0-6.3-5.1-11.4-11.4-11.4H294.1c.5 3.4.8 7.3.8 11.4" style="fill:#ffd540"/><path d="M293.1 43.2a80 80 0 0 0 0-22.6l-.2-1.2h267c6.9 0 12.4 5.6 12.4 12.4 0 3.3-1.3 6.4-3.6 8.8s-5.5 3.6-8.8 3.6h-267zm2.2-21.7c.4 3.3.7 6.8.7 10.4s-.2 7.1-.7 10.4H560c2.8 0 5.4-1.1 7.4-3.1s3.1-4.6 3.1-7.4c0-5.7-4.7-10.4-10.4-10.4z"/></g></g><g id="sword_00000072996792360738804780000017761655850839946172_"><g id="hilt_00000087389039134688812210000000023336087938474635_"><path class="st2" d="M453.6 53.5V10.6c0-5.2-4.2-9.5-9.4-9.5h-9.1c-5.2 0-9.4 4.2-9.4 9.5l-12.4 10h-.8v22.9h.8l12.4 10c0 5.2 4.2 9.5 9.4 9.5h9.1c5.2 0 9.4-4.2 9.4-9.5"/><path class="st2" d="M454.6 10.6v42.9c0 5.8-4.7 10.5-10.4 10.5h-9.1c-5.6 0-10.1-4.4-10.4-10L413 44.5h-1.4V19.6h1.4l11.7-9.5c.3-5.6 4.8-10 10.4-10h9.1c5.7 0 10.4 4.7 10.4 10.5m-41 31.9h.1l13 10.6v.5c0 4.7 3.7 8.5 8.3 8.5h9.1c4.6 0 8.4-3.8 8.4-8.5V10.7c0-4.7-3.8-8.5-8.4-8.5H435c-4.6 0-8.3 3.8-8.3 8.5v.5l-13 10.6h-.1z"/></g><g id="handle_00000088830127943355793950000010521811085592621452_"><path class="st2" d="M412.6 43.5V20.6H297.1c-1.6-10.4-5.2-17.7-9.5-17.7-4.2 0-7.9 7.3-9.5 17.7a82 82 0 0 0 0 22.8c1.6 10.4 5.2 17.7 9.5 17.7s7.9-7.3 9.5-17.7z"/><path class="st2" d="M298 19.6h115.6v24.9H298c-1.8 10.9-5.7 17.7-10.3 17.7-4.7 0-8.7-7.1-10.5-18.5-.6-3.6-.8-7.5-.8-11.6s.3-8 .8-11.6C278.9 9.1 282.9 2 287.7 2c4.6-.1 8.5 6.7 10.3 17.6m-1.9 23.7.1-.9h115.4V21.5H296.3l-.1-.9c-1.5-9.9-5-16.8-8.5-16.8s-7 6.9-8.5 16.8a80 80 0 0 0 0 22.6c1.5 9.9 5 16.8 8.5 16.8 3.5.1 7-6.8 8.4-16.7"/></g><g id="wick_00000148658114060098149490000004258179906355889281_"><path class="st2" d="M277.4 32c0-4.1.3-7.9.8-11.4H12.3c-3.2 0-6 1.3-8.1 3.3C2.1 26 .9 28.8.9 32c0 6.3 5.1 11.4 11.4 11.4h265.9c-.5-3.4-.8-7.3-.8-11.4"/><path class="st2" d="M279.2 20.8a80 80 0 0 0 0 22.6l.2 1.2h-267C5.5 44.6 0 39 0 32.2c0-3.3 1.3-6.4 3.6-8.8s5.5-3.6 8.8-3.6h267zM277 42.5c-.4-3.3-.7-6.8-.7-10.4s.2-7.1.7-10.4H12.3c-2.8 0-5.4 1.1-7.4 3.1s-3.1 4.6-3.1 7.4c0 5.7 4.7 10.4 10.4 10.4z"/></g></g></svg>