<?xml version='1.0' encoding='utf-8'?><svg xmlns="http://www.w3.org/2000/svg" viewBox="0 0 248.76 219.09"><path d="m78.12 5.76 53.13 92.07H237.4c6.16 0 11.11 5.06 11.11 11.11v1.32c0 6.05-4.95 11.11-11.11 11.11H131.14l-53.13 91.96a11.1 11.1 0 0 1-15.07 4.07l-1.21-.66a11.24 11.24 0 0 1-4.07-15.18l53.24-92.07-53.24-91.96a11.35 11.35 0 0 1 4.07-15.18l1.21-.66a11.24 11.24 0 0 1 15.18 4.07Z" style="fill:#2e3192;stroke:#fff;stroke-width:2.75;stroke-miterlimit:10"/><path fill="none" d="m11.15 97.72 106.3.02 53.07-91.92a11.16 11.16 0 0 1 15.18-4.07l1.14.66a11.15 11.15 0 0 1 4.07 15.18l-53.13 92.02 53.07 91.99c3.09 5.21 1.15 12.09-4.01 15.09l-1.18.72a11.24 11.24 0 0 1-15.18-4.07l-53.11-92.14-106.26.13A11.34 11.34 0 0 1 0 110.22l.03-1.38c.07-6.06 5-11.08 11.11-11.11Z"/></svg>