<?xml version="1.0" encoding="UTF-8"?><svg data-name="Layer 1" xmlns="http://www.w3.org/2000/svg" viewBox="0 0 290.26 169.63"><path d="M136.35 86.4a85.4 85.4 0 0 0 75.98 34.64 85 85 0 0 0 13.72 20.58 84.8 84.8 0 0 0 54.13 27.79l1.75.22 1-1.61.11-.2a85 85 0 0 0 7.22-34.4 84 84 0 0 0-15.22-48.6 85 85 0 0 0 15.22-48.6 85 85 0 0 0-7.22-34.4L282.13 0l-1.83.23a84.8 84.8 0 0 0-54.25 27.79 85 85 0 0 0-13.72 20.58 85.4 85.4 0 0 0-75.99 34.65l-1.12 1.57zm139.91 47.02c0 7.09-1.03 14.06-3.07 20.73a70.5 70.5 0 0 1-46.65-35.56 84.4 84.4 0 0 0 38.68-22.21l.4-.39a71 71 0 0 1 10.64 37.43m-3.06-118a71 71 0 0 1 3.06 20.7 70.6 70.6 0 0 1-10.61 37.37l-.32-.33a83.6 83.6 0 0 0-38.68-22.21 71 71 0 0 1 46.55-35.53m-51.88 48.6a72 72 0 0 1 35.76 20.7 70.4 70.4 0 0 1-35.75 20.7c-2.04-6.65-3.07-13.61-3.07-20.7s1.02-13.99 3.06-20.7m-16.16-1.5q.68 0 1.35.05l.76.03c-1.99 7.33-3.01 14.84-3.01 22.32s1.02 15 3.02 22.36q-1.1.05-2.12.04a72 72 0 0 1-51.91-22.3 71.2 71.2 0 0 1 51.91-22.5" style="fill:#2e3690"/><path d="m155.04 84.82-1.12-1.57A85.4 85.4 0 0 0 77.93 48.6a85 85 0 0 0-13.72-20.58A84.8 84.8 0 0 0 9.96.23L8.13 0l-.91 1.82A85 85 0 0 0 0 36.22a85 85 0 0 0 15.22 48.6A84 84 0 0 0 0 133.42a85 85 0 0 0 7.22 34.4l.11.2 1 1.61 1.75-.22a84.8 84.8 0 0 0 54.13-27.79 85 85 0 0 0 13.72-20.58 85.4 85.4 0 0 0 75.98-34.64zM24.64 95.99l.4.39a84.4 84.4 0 0 0 38.68 22.21 70.5 70.5 0 0 1-46.65 35.56A71 71 0 0 1 14 133.42a71 71 0 0 1 10.64-37.43m38.97-45.04a83.6 83.6 0 0 0-38.68 22.21l-.32.33A70.6 70.6 0 0 1 14 36.12c0-7.08 1.03-14.05 3.06-20.7a71 71 0 0 1 46.55 35.53M72 84.72c0 7.09-1.03 14.05-3.07 20.7a70.4 70.4 0 0 1-35.75-20.7 72 72 0 0 1 35.76-20.7A71 71 0 0 1 72 84.72m65.01.3a72 72 0 0 1-51.91 22.3q-1.02.01-2.12-.04c2-7.36 3.02-14.87 3.02-22.36s-1.02-14.99-3.01-22.32l.76-.03q.67-.05 1.35-.05a71.2 71.2 0 0 1 51.91 22.5" style="fill:none"/></svg>