<?xml version="1.0" encoding="utf-8"?><svg version="1.1" id="Layer_1" xmlns="http://www.w3.org/2000/svg" x="0" y="0" viewBox="0 0 260.9 50.4" xml:space="preserve"><style>.st0{fill:none}.st1{fill:#fff}</style><path class="st0" d="M260.9 24.8c0-14.1-3.6-19.3-7.1-21.7-3.6-2.5-11.2-3.4-14.2-3-2.8.3-5.4 1.3-7.9 2.4-3 1.4-5.7 3.2-8.3 5.1-2.2 1.6-4.4 1.7-6.8.5-.5-.1-1-.2-1.4-.5-.1 0-.2-.1-.3-.1-2.9-1.3-5.9-2.2-9.1-2.2-4.7 0-8.1 2.3-10.3 6.4-.9 1.6-1.4 3.4-1.9 5.1-.1.4-.1.8-.2 1.2-.1.6-.3 1.3-.3 1.9 0 .5 0 1-.4 1l-37.8.1c-1 .2-2 0-3 0h-4.1c-.3-.1-.6-.2-.9-.4-.4-.3-.7-.8-1.4-.7-.4.1-.6 0-.8-.5-.2-.6-.7-1.2-1.4-1.2q-1.2 0-1.5 1.2c-.1.5-.3.5-.7.6-.4 0-.6-.3-.6-.5-.1-.7-.7-1.1-1.3-1.2-.7-.1-1.2.3-1.6.9-.2.3-.3.7-.8.7-.6 0-.6-.4-.7-.7-.3-.6-.6-.8-1.3-.9-.7 0-1.3.2-1.5.8-.2.7-.6.7-1.2.7-1.1.1-2.5-.6-3.3.9 0 .1-.2.1-.2.1-.2.2-.5-.1-.6.3-.2 1.1-1 1.8-1.7 2.5-.1.1-.2.3-.2.5 0 1.2-.3 2.4 1 3.2.4.3.6.8.8 1.3.3.9 1.6.9 1.6 2 0 0 .5.1.7 0 .7-.1 1.5-.2 2.2-.2.4 0 .7.1.7.5.1.8.8 1.1 1.4 1.2.7.1 1.3-.4 1.6-1.1.1-.3.2-.6.7-.6s.6.2.7.5c.3.6.8 1 1.5 1 .8 0 1.2-.5 1.5-1.1.1-.2 0-.7.6-.6.5 0 .6.3.7.7.4 1 1.5 1.4 2.3.7.7-.6 1-1.3 2-1.6.8-.2 1.4-.6 2.2-.7h1.3c1.7.1 3.3 0 5 0h8.7c1.3 0 2.6 0 3.9.1l25.4.1c.4 0 .4.5.5.8.1.6.1 1.2.2 1.8.2.3.3.6.2 1 .1.1.2.2.2.3.7 2.8 1.7 5.3 3.5 7.5 2.1 2.5 4.7 3.8 7.9 4 3.7.2 7.1-.9 10.4-2.4.3-.1.6-.2 1-.4 1.4-.5 2.8-.9 4.4-.7 1.3.2 2.2 1 3.2 1.6 3.3 2.2 6.7 4.4 10.5 5.8 3.4 1.2 6.9 2 10.5 1.4q5.1-.75 8.7-4.5c2.7-3.1 7.1-6.8 7.1-20.9m-126.8-3.6v2c-1-.8-1-1.5 0-2m0 6.3v1c-.5-.2-.7-.4-.8-.8 0-.4-.1-1.1.5-1.1.5 0 .3.6.3.9m3.2 1c-.6 0-1.2.1-1.9.2-.5.1-.6-.1-.6-.6v-.9c-.1-.5.1-.7.7-.7s1.1-.1 1.7-.2c.9-.2 1.3.1 1.1 1.1.2.9-.1 1.1-1 1.1m1-5.5c-.1.3-.3.3-.5.3h-1.7c-1.3 0-1.3 0-1.2-1.2 0-.9 0-.9 1.7-.9h.4c1.3 0 1.7.5 1.3 1.8m4.2 5c0 .2-.2.2-.3.2-.6 0-1.2.1-1.9.2-.3 0-.9.2-1-.2-.1-.6-.2-1.5.1-1.7.4-.4 1.3-.4 2.1-.3.2.1.8-.3 1 .1.2.5 0 1.1 0 1.7m.1-4.8c-.1.2-.2.3-.4.3-.9.1-1.7-.2-2.6-.2-.2 0-.2-.2-.3-.3-.3-1.3 0-1.6 1.3-1.6h.7c1.2 0 1.6.5 1.3 1.8m1-1.7c.6-.3 1.4-.3 2.1.1.4.2.5.7.4 1-.2.7-.7.9-1.5.8h-.2c-.3-.2-.9.3-1-.3.1-.5-.2-1.4.2-1.6m.7 6.8c-1.3.1-.7-.8-.8-1.3-.2-1 .5-.8 1.1-.8.8-.2 1.4.2 1.5 1 .2.7-.5 1-1.8 1.1m61.8.9-.1-.1c-.3-2.8-.2-5.7-.1-8.5v-.1h.1s.2 0 .4.1c0 2.6-.2 5.8-.3 8.6m7.7 2.6c-2.9.7-5.3 0-7.3-2.2.4 0 .9-.1 1.2.2 1.6 1.3 3.4 2 5.5 1.5 3.5-.9 6-4.1 5-8.1-.6-2.6-2.3-4.1-4.8-4.8a5.9 5.9 0 0 0-6 1.6c-.2.2-.4.4-.7.4 1.1-1.6 2.2-2.6 4.1-2.8 3.8-.4 6.9 1.6 8 5.2 1.4 3.9-1 8-5 9m-5.8-7c0-1 .1-2.1 0-3.1-.1-.8.3-1.3.9-1.6 3.2-1.9 7.5-.8 8.6 3.5.9 3.5-1.7 6.7-5.2 6.8-1.4 0-2.7-.2-3.8-1.2-.4-.3-.5-.6-.5-1.1zm33.6-12.1v24.5c-1.3.4-2.7.4-4 0V12.9c0-.5.1-.7.7-.7h3.1c.3.1.2.3.2.5"/><path class="st1" d="M162.1 21.1v7.6c0 .1-.1.2-.2.2s-.2-.1-.2-.2v-7.8c0-.1.1-.2.2-.2s.2.1.2.2c-.1.1 0 .1 0 .2m-9.4.2v7.4c0 .1-.1.2-.2.2s-.2-.1-.2-.2v-7.6c0-.1.1-.2.2-.2s.2.1.2.2zm4.9-.1v7.5c0 .1-.1.2-.2.2s-.2-.1-.2-.2V21c0-.1.1-.2.2-.2s.2.1.2.2zm16.9-.1v7.7c0 .1-.1.2-.2.2s-.2-.1-.2-.2v-7.9c0-.1.1-.2.2-.2s.2.1.2.2c-.1 0 0 .1 0 .2m-3.9 0v7.7c0 .1-.1.2-.2.2s-.2-.1-.2-.2v-7.9c0-.1.1-.2.2-.2s.2.1.2.2zm-4.1 0v7.7c0 .1-.1.2-.2.2s-.2-.1-.2-.2v-7.9c0-.1.1-.2.2-.2s.2.1.2.2z"/><path d="M184.5 20.8s.1 0 0 0c.1 0 0 0 0 0"/><path class="st1" d="M184.5 20.8s.1 0 0 0c.1 0 0 0 0 0m16.3.1v7.9c0 .1-.1.2-.2.2s-.2-.1-.2-.2v-7.9c0-.1.1-.2.2-.2s.2.1.2.2m4.2.2v7.7c0 .1-.1.2-.2.2s-.2-.1-.2-.2v-7.9c0-.1.1-.2.2-.2s.2.1.2.2zm-2.1-.2v7.9c0 .1-.1.2-.2.2s-.2-.2-.2-.4v-7.5c0-.2.1-.4.2-.4s.2.1.2.2m-4.4 0v7.9c0 .1-.1.2-.2.2s-.2-.1-.2-.2v-7.9c0-.1.1-.2.2-.2s.1.1.2.2m-20.5-.1v7.9c0 .1-.1.2-.2.2s-.2-.1-.2-.2v-7.9c0-.1.1-.2.2-.2zm3.5 0v7.9c0 .1-.1.2-.2.2s-.2-.1-.2-.2v-7.9c0-.1.1-.2.2-.2zm3-.2c-.1 0-.2.1-.2.2v8c0 .1.1.2.2.2s.2-.1.2-.2v-8c0-.1-.1-.2-.2-.2m3.2.2v8c0 .1-.1.2-.2.2s-.2-.1-.2-.2v-8c0-.1.1-.2.2-.2s.2.1.2.2m3 0v8c0 .1-.1.2-.2.2s-.2-.1-.2-.2v-8c0-.1.1-.2.2-.2s.2.1.2.2m2.7.1v7.9c0 .1-.1.2-.2.2s-.2-.1-.2-.2v-7.9c0-.1.1-.2.2-.2s.2 0 .2.2m2.5 0v7.9c0 .1-.1.2-.2.2s-.2-.2-.2-.4v-7.5c0-.2.1-.4.2-.4s.1.1.2.2m11.1.2v7.7c0 .1-.1.2-.2.2s-.2-.1-.2-.2v-7.9c0-.1.1-.2.2-.2s.2.1.2.2z"/><path class="st0" d="M0 25.6c0 14.1 3.6 19.3 7.1 21.7 3.6 2.5 11.2 3.4 14.2 3 2.8-.3 5.4-1.3 7.9-2.4 3-1.4 5.7-3.2 8.3-5.1 2.2-1.6 4.4-1.7 6.8-.5.5.1 1 .2 1.4.5.1 0 .2.1.3.1 2.9 1.3 5.9 2.2 9.1 2.2 4.7 0 8.1-2.3 10.3-6.4.9-1.6 1.4-3.4 1.9-5.1.1-.4.1-.8.2-1.2.1-.6.3-1.3.3-1.9 0-.5 0-1 .4-1l37.8-.1c1-.2 2 0 3 0h4.1c.3.1.6.2.9.4.4.3.7.8 1.4.7.4-.1.6 0 .8.5.2.6.7 1.2 1.4 1.2q1.2 0 1.5-1.2c.1-.5.3-.5.7-.6.4 0 .6.3.6.5.1.7.7 1.1 1.3 1.2.7.1 1.2-.3 1.6-.9.2-.3.3-.7.8-.7.6 0 .6.4.7.7.3.6.6.8 1.3.9.7 0 1.3-.2 1.5-.8.2-.7.6-.7 1.2-.7 1.1-.1 2.5.6 3.3-.9 0-.1.2-.1.2-.1.2-.2.5.1.6-.3.2-1.1 1-1.8 1.7-2.5.1-.1.2-.3.2-.5 0-1.2.3-2.4-1-3.2-.4-.3-.6-.8-.8-1.3-.3-.9-1.6-.9-1.6-2 0 0-.5-.1-.7 0-.7.1-1.5.2-2.2.2-.4 0-.7-.1-.7-.5-.1-.8-.8-1.1-1.4-1.2-.7-.1-1.3.4-1.6 1.1-.1.3-.2.6-.7.6s-.6-.2-.7-.5c-.3-.6-.8-1-1.5-1-.8 0-1.2.5-1.5 1.1-.1.2 0 .7-.6.6-.5 0-.6-.3-.7-.7-.4-1-1.5-1.4-2.3-.7-.7.6-1 1.3-2 1.6-.8.2-1.4.6-2.2.7h-1.3c-1.7-.1-3.3 0-5 0h-8.7c-1.3 0-2.6 0-3.9-.1l-25.4-.1c-.4 0-.4-.5-.5-.8-.1-.6-.1-1.2-.2-1.8-.2-.3-.3-.6-.2-1-.1-.1-.2-.2-.2-.3-.7-2.8-1.7-5.3-3.5-7.5-2.1-2.5-4.7-3.8-7.9-4-3.7-.2-7.1.9-10.4 2.4-.3.1-.6.2-1 .4-1.4.5-2.8.9-4.4.7-1.3-.2-2.2-1-3.2-1.6-3.3-2.2-6.7-4.4-10.5-5.8C22.9.4 19.4-.4 15.8.2q-5.1.75-8.7 4.5C4.4 7.8 0 11.5 0 25.6m126.8 3.6v-2c1 .8 1 1.5 0 2m0-6.3v-1c.5.2.7.4.8.8 0 .4.1 1.1-.5 1.1-.5 0-.3-.6-.3-.9m-3.2-1c.6 0 1.2-.1 1.9-.2.5-.1.6.1.6.6v.9c.1.5-.1.7-.7.7s-1.1.1-1.7.2c-.9.2-1.3-.1-1.1-1.1-.2-.9.1-1.1 1-1.1m-1 5.5c.1-.3.3-.3.5-.3h1.7c1.3 0 1.3 0 1.2 1.2 0 .9 0 .9-1.7.9h-.4c-1.3 0-1.7-.5-1.3-1.8m-4.2-5c0-.2.2-.2.3-.2.6 0 1.2-.1 1.9-.2.3 0 .9-.2 1 .2.1.6.2 1.5-.1 1.7-.4.4-1.3.4-2.1.3-.2-.1-.8.3-1-.1-.2-.5 0-1.1 0-1.7m-.1 4.8c.1-.2.2-.3.4-.3.9-.1 1.7.2 2.6.2.2 0 .2.2.3.3.3 1.3 0 1.6-1.3 1.6h-.7c-1.2 0-1.6-.5-1.3-1.8m-1 1.7c-.6.3-1.4.3-2.1-.1-.4-.2-.5-.7-.4-1 .2-.7.7-.9 1.5-.8h.2c.3.2.9-.3 1 .3-.1.5.2 1.4-.2 1.6m-.7-6.8c1.3-.1.7.8.8 1.3.2 1-.5.8-1.1.8-.8.2-1.4-.2-1.5-1-.2-.7.5-1 1.8-1.1m-61.8-.9.1.1c.3 2.8.2 5.7.1 8.5v.1h-.1s-.2 0-.4-.1c0-2.6.2-5.8.3-8.6m-7.7-2.6c2.9-.7 5.3 0 7.3 2.2-.4 0-.9.1-1.2-.2-1.6-1.3-3.4-2-5.5-1.5-3.5.9-6 4.1-5 8.1.6 2.6 2.3 4.1 4.8 4.8 2.2.6 4.3.1 6-1.6.2-.2.4-.4.7-.4-1.1 1.6-2.2 2.6-4.1 2.8-3.8.4-6.9-1.6-8-5.2-1.4-3.9 1-8 5-9m5.8 7c0 1-.1 2.1 0 3.1.1.8-.3 1.3-.9 1.6-3.2 1.9-7.5.8-8.6-3.5-.9-3.5 1.7-6.7 5.2-6.8 1.4 0 2.7.2 3.8 1.2.4.3.5.6.5 1.1zM19.3 37.7V13.2c1.3-.4 2.7-.4 4 0v24.3c0 .5-.1.7-.7.7h-3.1c-.3-.1-.2-.3-.2-.5"/><path class="st1" d="M90 29.3v-7.6c0-.1.1-.2.2-.2s.2.1.2.2v7.8c0 .1-.1.2-.2.2s-.2-.1-.2-.2c.1-.1 0-.1 0-.2m9.4-.2v-7.4c0-.1.1-.2.2-.2s.2.1.2.2v7.6c0 .1-.1.2-.2.2s-.2-.1-.2-.2zm-4.9.1v-7.5c0-.1.1-.2.2-.2s.2.1.2.2v7.7c0 .1-.1.2-.2.2s-.2-.1-.2-.2zm-16.9.1v-7.7c0-.1.1-.2.2-.2s.2.1.2.2v7.9c0 .1-.1.2-.2.2s-.2-.1-.2-.2c.1 0 0-.1 0-.2m3.9 0v-7.7c0-.1.1-.2.2-.2s.2.1.2.2v7.9c0 .1-.1.2-.2.2s-.2-.1-.2-.2zm4.1 0v-7.7c0-.1.1-.2.2-.2s.2.1.2.2v7.9c0 .1-.1.2-.2.2s-.2-.1-.2-.2z"/><path d="M67.6 29.6s-.1 0 0 0c-.1 0 0 0 0 0"/><path class="st1" d="M67.6 29.6s-.1 0 0 0c-.1 0 0 0 0 0m-16.3-.1v-7.9c0-.1.1-.2.2-.2s.2.1.2.2v7.9c0 .1-.1.2-.2.2s-.2-.1-.2-.2m-4.2-.2v-7.7c0-.1.1-.2.2-.2s.2.1.2.2v7.9c0 .1-.1.2-.2.2s-.2-.1-.2-.2zm2.1.2v-7.9c0-.1.1-.2.2-.2s.2.2.2.4v7.5c0 .2-.1.4-.2.4s-.2-.1-.2-.2m4.4 0v-7.9c0-.1.1-.2.2-.2s.2.1.2.2v7.9c0 .1-.1.2-.2.2s-.1-.1-.2-.2m20.5.1v-7.9c0-.1.1-.2.2-.2s.2.1.2.2v7.9c0 .1-.1.2-.2.2zm-3.5 0v-7.9c0-.1.1-.2.2-.2s.2.1.2.2v7.9c0 .1-.1.2-.2.2zm-3 .2c.1 0 .2-.1.2-.2v-8c0-.1-.1-.2-.2-.2s-.2.1-.2.2v8c0 .1.1.2.2.2m-3.2-.2v-8c0-.1.1-.2.2-.2s.2.1.2.2v8c0 .1-.1.2-.2.2s-.2-.1-.2-.2m-3 0v-8c0-.1.1-.2.2-.2s.2.1.2.2v8c0 .1-.1.2-.2.2s-.2-.1-.2-.2m-2.7-.1v-7.9c0-.1.1-.2.2-.2s.2.1.2.2v7.9c0 .1-.1.2-.2.2s-.2 0-.2-.2m-2.5 0v-7.9c0-.1.1-.2.2-.2s.2.2.2.4v7.5c0 .2-.1.4-.2.4s-.1-.1-.2-.2m-11.1-.2v-7.7c0-.1.1-.2.2-.2s.2.1.2.2v7.9c0 .1-.1.2-.2.2s-.2-.1-.2-.2z"/></svg>