<?xml version="1.0" encoding="utf-8"?><svg xmlns="http://www.w3.org/2000/svg" viewBox="0 0 261.5 182.9" xml:space="preserve"><path d="m167 106.3-6.3 25.9c21.1-10.7 37.1-38 37.1-59.1 0-32.2-29.5-59.1-67.4-59.1C90.1 14 58.6 45 60 85.3c2.1 95.6 154.5 129.2 187.5-2.8 3.9-9.9 17.7-4.2 12.4 8.3-44.9 143.5-213 102-213.8-6.3-.3-46 35.7-85.2 84.2-85.2 46.1 0 82.2 32.5 82.2 73.9 0 18.6-12.2 57.3-44.6 70.6l25.9 6.1s-2.3 10.5-9.4 10c-9.9-.8-36.6-9.2-39.3-9.9.6-2.8 5-30.4 8.7-39.6 2.7-6.7 13.2-4.1 13.2-4.1" style="fill:#2e3192"/></svg>