<?xml version="1.0" encoding="utf-8"?><svg xmlns="http://www.w3.org/2000/svg" viewBox="0 0 189.9 169.5" xml:space="preserve"><path d="M134 54.3c8 5.9 33.6 17.1 36.1 18.4 1.5-2.4 16.3-26.2 19.5-35.6 2.3-6.8-7.3-11.6-7.3-11.6l-12.4 23.6C156.5 3.7 109.9-.1 98.3-.1c-50.2 0-85 38.2-85 84.4 0 48.5 37.6 85.2 86.1 85.2 36.6 0 67.1-24.1 77.7-59.3 3.5-12.1-10.6-15.7-14.3-3.9-9 29.2-33.2 48.4-63.4 48.4-40.3 0-71.3-30-71.3-70.4 0-37.9 32.2-69.6 70.2-69.6 11.6 0 44.6 1.9 58.7 38.5l-23.5-12.7s-5.2 9.5.5 13.8" style="fill:#2e3192"/></svg>