<?xml version="1.0" encoding="utf-8"?><svg xmlns="http://www.w3.org/2000/svg" viewBox="0 0 218.3 211.9" xml:space="preserve"><path d="M101.1 211.9c-32.6-.7-52.6-17.3-63.7-31.2-13.7-17.2-21.4-40-21.4-63 0-51.8 36.3-83.5 84.9-82.7 19.6.4 39.3 8.2 54.1 21.6 15.6 14.1 24.1 32.9 24.1 52.8 0 19-7.4 36.8-20.7 50.1-12.8 12.7-30.2 20.1-47.7 20.1-17.2 0-40.9-11.2-52.3-35.8l-6.6 25.6s-10.5-2.3-10-9.4c.8-9.9 9.2-36.6 9.9-39.3 2.8.6 30.4 5 39.6 8.7 3.8 1.5 4.6 5.5 4.6 8.7 0 2.5-.5 4.5-.5 4.5l-25.8-5.8c10.2 18.2 25.6 29.1 41.3 29.1 26.4 0 54.6-22.7 54.6-56.4 0-33.4-29.9-62.7-65.2-61.6-44 1.4-70.2 23.1-70.9 71.1-.5 38.4 25.1 79.2 71.7 79.2 68.6 0 97-59.1 104.6-86.2 2.3-8.5 14.6-5.4 12.3 3-5.6 20.2-32.4 98.6-116.9 96.9" style="fill:#2e3192"/></svg>