<?xml version="1.0" encoding="utf-8"?>
<!-- Generator: Adobe Illustrator 27.1.0, SVG Export Plug-In . SVG Version: 6.00 Build 0)  -->
<svg version="1.1" id="Layer_2_00000067943470925853274430000014016169332394375836_"
	 xmlns="http://www.w3.org/2000/svg" xmlns:xlink="http://www.w3.org/1999/xlink" x="0px" y="0px" viewBox="0 0 261.5 182.9"
	 style="enable-background:new 0 0 261.5 182.9;" xml:space="preserve">
<style type="text/css">
	.st0{fill:#2E3192;}
</style>
<g id="Layer_1-2_00000144313412631531932790000009516445523293907880_">
	<path class="st0" d="M167,106.3l-6.3,25.9c21.1-10.7,37.1-38,37.1-59.1c0-32.2-29.5-59.1-67.4-59.1C90.1,14,58.6,45,60,85.3
		c2.1,95.6,154.5,129.2,187.5-2.8c3.9-9.9,17.7-4.2,12.4,8.3c-44.9,143.5-213,102-213.8-6.3c-0.3-46,35.7-85.2,84.2-85.2
		c46.1,0,82.2,32.5,82.2,73.9c0,18.6-12.2,57.3-44.6,70.6l25.9,6.1c0,0-2.3,10.5-9.4,10c-9.9-0.8-36.6-9.2-39.3-9.9
		c0.6-2.8,5-30.4,8.7-39.6l0,0C156.5,103.7,167,106.3,167,106.3z"/>
</g>
</svg>
