<?xml version="1.0" encoding="utf-8"?><svg xmlns="http://www.w3.org/2000/svg" viewBox="0 0 161.2 169.4" xml:space="preserve"><path d="M81.5 169.8c-21.5-1.1-40.3-8.3-54.6-20.8a79 79 0 0 1-25.4-43.8 78 78 0 0 1-1.8-17c0-26.4 12.4-55.2 42.8-70.9L18.7 8.4s3.6-10 10.6-8.7c9.6 2.2 34.6 13.9 37.1 15-.7 2.7-8.8 29.1-13.7 37.6-3.6 6.2-13.5 2.2-13.5 2.2L48.4 31C23.5 41.1 9.8 69.2 15.1 99.5c4.5 25.8 24.2 53.8 66.1 55 17.8.5 32.7-4.9 44.2-16 18-17.5 21.9-43.4 21.9-48.9 0-5.7 3.9-8.3 7.5-8.3 2 0 3.8.7 5.2 2.1 1.5 1.5 2.3 3.6 2.3 6.1 0 16.9-6.8 35.4-18.1 49.6-10.2 12.8-29.4 28.6-62.7 30.7" style="fill:#2e3192"/></svg>