<svg xmlns="http://www.w3.org/2000/svg" viewBox="15.85 0 168.35 100"><path d="M93 27.8c-7.1-5.1-15.5-8.2-24.5-9.1V7.6c0-4.2-3.4-7.6-7.7-7.6h-1.2c-4.3 0-7.7 3.4-7.7 7.6v11.1a50 50 0 0 0-24.5 9.1c-7.1 4.8-11 10.8-11.5 17.6-.6 8.5 4.2 16.2 8.5 20.1 7 6.6 16.4 10.5 27.4 11.4v15.5c0 4.2 3.4 7.6 7.7 7.6h1.2c4.3 0 7.7-3.4 7.7-7.6V76.9c11-.9 20.4-4.8 27.4-11.4 4.3-3.9 9.1-11.7 8.5-20.1-.5-6.8-4.3-12.6-11.4-17.5zM68.5 46.2c0-4.1 0-7.5.4-10.8 0-1.1 1-2 2.1-2.1h.7c8 0 14 2.8 16.8 7.9 2.5 4.5 2.2 10.1-.9 14.5-3.4 5.2-9.7 7.7-17.2 6.9-1 0-1.8-1-1.8-2.1V46.1zm-36.6-4.9c2.7-5.1 8.7-7.9 16.7-7.9h.7c1.2 0 2.1 1 2.2 2.1.3 3.3.4 6.9.4 10.8v14.4c0 1.1-.8 2-1.8 2.1-7.5.9-13.7-1.7-17.2-6.9-3-4.4-3.3-10-.9-14.5z"/><path fill="#000000" d="M123.7 40h51c5.2 0 9.5 4.3 9.5 9.5v1c0 5.2-4.3 9.5-9.5 9.5h-51c-5.2 0-9.5-4.3-9.5-9.5v-1c0-5.2 4.2-9.5 9.5-9.5"/></svg>