<svg xmlns="http://www.w3.org/2000/svg" viewBox="19.3 -0.05 161.4 100.05"><path d="M105.9 16.7c-5 25.1-10.3 33.7-33.9 38.2-.4 0-.7.4-.8.7v36c0 2.2-1 4.4-2.5 6s-3.6 2.4-5.9 2.4-4.3-.9-6.1-2.4a8.5 8.5 0 0 1-2.4-6v-36s-.5-.6-.9-.7C30 50.4 24.7 41.8 19.7 16.7c-.8-3.6-.4-6.5 1.2-8.3C22.6 6.3 25.1 6 26.5 6c2.4 0 4.3 2.2 5.6 4.5s2 4.7 2.1 5.4c2.5 17.1 7.3 22.9 18.5 22.9h.9s.7-.2.9-.6V7.8c1.2-2.8 2-4.8 3.1-6 .7-.6 1.5-1 2.3-1.3.5-.2 1-.3 1.4-.4 1.1-.2 2.4-.2 3.3 0 .5 0 1 .2 1.5.4.7 0 1.5.6 2.2 1.3 1.2 1.2 2.1 3.1 3 6v.3s.2.3.2.5v29.8c0 .3.5.5.9.5 12 .4 16.8-5.4 19.3-22.9.3-1.3 2.8-9.9 7.6-9.9 1.4 0 3.9.3 5.6 2.4 1.4 1.9 1.8 4.7 1 8.2M120.2 40h51c5.2 0 9.5 4.3 9.5 9.5v1c0 5.2-4.3 9.5-9.5 9.5h-51c-5.2 0-9.5-4.3-9.5-9.5v-1c0-5.2 4.3-9.5 9.5-9.5" fill="#000000"/></svg>