<svg xmlns="http://www.w3.org/2000/svg" viewBox="5.38 0.03 189.22 99.97"><path d="M134.1 40h51c5.2 0 9.5 4.3 9.5 9.5v1c0 5.2-4.3 9.5-9.5 9.5h-51c-5.2 0-9.5-4.3-9.5-9.5v-1c0-5.2 4.3-9.5 9.5-9.5M116.5.1c-4.6-.6-9.6 2.8-11.9 11.4-4.2 15.4-9.2 37-14.4 56.3-11.1-27.2-18.6-43.9-25-43.8-.1 0-.2 0-.3.1-.1-.1-.2-.1-.3-.1-6.4-.1-13.9 16.5-25 43.8-5.1-19.3-10.2-40.9-14.4-56.3C23.1 2.9 18.1-.4 13.5.1c-5.9.8-9.8 5-7.4 12.6 2.5 8.1 18.4 60.7 23 77.1 4.7 16.5 15.9 9 18 4.9s13.6-36.7 18-45.9c4.4 9.2 15.9 41.8 18 45.9s13.3 11.6 18-4.9c4.6-16.4 20.5-69 23-77.1 2.3-7.6-1.6-11.8-7.6-12.6" fill="#000000"/></svg>