<svg xmlns="http://www.w3.org/2000/svg" viewBox="23.93 -0.03 152.07 100.03"><path d="M115.5 40.1h51c5.3 0 9.5 4.3 9.5 9.5v1c0 5.3-4.3 9.5-9.5 9.5h-51a9.5 9.5 0 0 1-9.5-9.5v-1c0-5.3 4.2-9.5 9.5-9.5M104 85.2c1.6 1.9 2.1 4.4 1.9 6.8-.3 2.4-1.6 4.6-3.4 6.1-4 3-9.8 2.3-13-1.7L65 65 40.4 96.4a9.2 9.2 0 0 1-7.2 3.6c-1.9 0-4-.7-5.7-1.9-1.9-1.5-3.2-3.7-3.5-6.1s.3-4.9 1.9-6.8l27.3-35.1-27.3-35.2A9 9 0 0 1 24 9.2c0-2.8 1.4-5.5 3.6-7.3C29.5.5 31.8-.2 34.3 0c2.4.3 4.7 1.6 6.1 3.5L65 35 89.4 3.6A9.3 9.3 0 0 1 102.5 2a9 9 0 0 1 3.5 7.2c0 2-.7 4-1.9 5.7L76.8 50.1l27.3 35.1z" fill="#000000"/></svg>