<svg xmlns="http://www.w3.org/2000/svg" viewBox="29.95 0.02 140.05 99.98"><path d="M109.5 40h51c5.2 0 9.5 4.3 9.5 9.5v1c0 5.2-4.3 9.5-9.5 9.5h-51c-5.2 0-9.5-4.3-9.5-9.5v-1c0-5.3 4.3-9.5 9.5-9.5M97.7 12.5 54 95.4a8.5 8.5 0 0 1-7.5 4.6c-1.3 0-2.6-.4-3.9-1-2-1.1-3.5-2.8-4.2-5-.7-2.1-.5-4.5.6-6.5l18.8-35.8-25.3-36.1c-1.2-1.1-2-2.7-2.4-4.7-.5-2.5.3-5.3 2-7.1C33.6 2.1 35.6 1 37.9 1c2.2 0 4.5.7 6.1 2.1L66 36 82.6 4.6c1.2-2 2.9-3.5 5.1-4.2s4.5-.4 6.5.7A8.5 8.5 0 0 1 98.5 7c.3 1.9 0 3.8-.8 5.5" fill="#00000"/></svg>