<svg xmlns="http://www.w3.org/2000/svg" viewBox="19.52 0 160.88 100"><path d="M119.9 40h51c5.2 0 9.5 4.3 9.5 9.5v1c0 5.2-4.3 9.5-9.5 9.5h-51c-5.2 0-9.5-4.3-9.5-9.5v-1c0-5.2 4.3-9.5 9.5-9.5M103 81.4c-9.3-22.7-18.6-43.9-22.1-52-3.8-8.4-6.7-15.2-7.4-17.2C70.3 3.5 67.5.4 62.3 0c-5 .4-7.9 3.4-11.1 12.2-.7 2-3.6 8.7-7.3 17.2-7.3 16.6-15.6 36-22.2 52-2.8 7.1-2.9 12.1-.3 15.2 1.9 2.3 4.9 3.4 9 3.4h64.3c4.1 0 7.1-1.2 9-3.4 1.2-1.5 1.8-3.4 1.8-5.8 0-2.6-.7-5.7-2.2-9.4zm-16.7 3.4h-48C40 80.6 43.2 72.3 47 63c5.6-14.1 12.1-30.7 15.3-39 3.9 9.8 12.2 31.1 18.3 46.3z" fill="#00000"/></svg>