<svg xmlns="http://www.w3.org/2000/svg" viewBox="26.1 0 147.8 100"><path d="M113.4 40h51c5.2 0 9.5 4.3 9.5 9.5v1c0 5.2-4.3 9.5-9.5 9.5h-51c-5.2 0-9.5-4.3-9.5-9.5v-1c0-5.2 4.3-9.5 9.5-9.5m-55-40C45.1 0 26.1 16.8 26.1 50c0 25.6 12.2 50 32.3 50s32.7-24.4 32.7-50c0-34.8-19.4-50-32.7-50m.1 13.7c9.6 0 16.4 11.3 17 19.3.2 3 0 8.1-5.5 8.1H46.7c-4.6 0-5.1-5-5-7.6.7-8 8.1-19.8 16.9-19.8zm0 72.6c-10.8 0-17.2-12.8-17.9-20.8-.1-2.5 0-7.6 5-7.6h25.3c5.6 0 5.8 5 5.5 8.1-.6 8-7.2 20.3-17.9 20.3" fill="#00000"/></svg>