<svg xmlns="http://www.w3.org/2000/svg" viewBox="21.43 0 157.17 100"><path d="M118.2 40h50.9c5.2 0 9.5 4.2 9.5 9.5v1c0 5.2-4.2 9.5-9.5 9.5h-50.9a9.5 9.5 0 0 1-9.5-9.5v-1c0-5.3 4.2-9.5 9.5-9.5m-38.1 1.9c4.8 4.4 4.3 6.5 4.4 9.6s-2.3 4.7-5.3 7.1C61.7 72.8 51.4 82.9 51.4 82.9s4.2.5 44.2.5c4 0 7.9 3.3 7.9 7.8 0 4.8-2.2 8.8-6.4 8.8-23.5 0-40.2-.5-59.6-.5-7.9 0-13.4-1.9-15.2-5.7-1.7-3.6-1.2-9 5.5-15.2 19.1-17.2 34.7-28.8 34.7-28.8S40.7 30.2 25 14.3C21.8 11 20.7 8 21.9 5.7 23 3.7 27.4 0 31.1 0h67c7.4 0 7.7 13.1 0 13.1-33.7 0-51.9.2-51.9.2L80 41.8z" fill="#00000"/></svg>