<svg xmlns="http://www.w3.org/2000/svg" viewBox="7.3 -0.05 185.4 100.05"><path d="M132.2 40h51c5.2 0 9.5 4.3 9.5 9.5v1c0 5.2-4.3 9.5-9.5 9.5h-51c-5.2 0-9.5-4.3-9.5-9.5v-1c0-5.2 4.2-9.5 9.5-9.5m-17.6 60H79.2c-3.2 0-5.3-3.2-4.1-6.2 26.7-62.9 9.9-77.1-10.8-78.5h-3.9c-20.7 1.4-37.5 15.6-10.8 78.5 1.2 2.9-.9 6.2-4.1 6.2H10.3c-1.4 0-6.6-12.7 1.2-17.3 6.9-4.1 9.9.9 18.1 1.1C7.1 34.1 29.9 4.2 57.4.1c.8-.2 9.4-.2 10.2 0 27.4 4.1 50.2 34 27.8 83.6 8.2-.2 11.2-5.1 18.1-1.1 7.8 4.6 2.6 17.3 1.1 17.4" fill="#000000"/></svg>