<svg xmlns="http://www.w3.org/2000/svg" style="style=&quot;enable-background:new 0 0 200.0 100.0&quot;" viewBox="0 0 120 100"><path fill="#000000" d="M119.3 12.9c-4.6 14.9-18.8 61.7-23 76.8-2.3 8.1-6.1 10.1-8.8 10.3h-.7c-4 0-7.7-3.1-8.9-5.4-.7-1.6-2.9-7.2-6.5-16.7-3.8-10.3-8.2-21.7-10.8-27.6l-.5-1-.5 1c-3.3 7.4-9.2 23.2-10.9 27.8-.9 2.3-1.7 4.5-2.5 6.5-1.9 4.9-3.3 8.8-3.9 9.9-1.2 2.2-5 5.5-9 5.5h-.6c-2.8-.2-6.5-2.2-8.9-10.3C20 76.6 8.9 39.8 3.5 22.1c-1.3-4.3-2.3-7.6-2.8-9.3-1.1-3.4-.9-6.6.6-8.9C2.7 1.7 5.2.4 8.3 0h1.1c5 0 9.1 4.3 11.1 11.6 2.2 7.9 4.6 17.4 7.1 27.5 1.9 7.5 4.3 17.3 6.8 26.4l.4 1.5.6-1.4c9.9-24.5 17.4-41.8 24.5-41.8 6.9 0 13.9 15.8 24.7 41.7l.6 1.4.4-1.5c2-8 10.2-40.6 13.9-53.8 2-7.3 6.1-11.6 11.1-11.6a15 15 0 0 1 5.3 1.4c1.2.6 2.2 1.5 2.8 2.6 1.5 2.3 1.7 5.3.6 8.9"/></svg>