<svg xmlns="http://www.w3.org/2000/svg" style="style=&quot;enable-background:new 0 0 200.0 100.0&quot;" viewBox="19 -0.01 82 100.01"><path fill="#00000" d="M99 85.1c1.6 1.9 2.1 4.4 1.8 6.8s-1.6 4.6-3.4 6.1c-4 3-9.8 2.3-13-1.7L60 65 35.5 96.4a9.2 9.2 0 0 1-7.2 3.6c-1.9 0-4-.7-5.6-1.9-1.9-1.5-3.2-3.7-3.5-6.1s.3-4.9 1.9-6.8L48.3 50 21 14.9a9.2 9.2 0 0 1-2-5.7c0-2.8 1.4-5.6 3.6-7.3C24.4.4 26.8-.2 29.3.1c2.4.3 4.7 1.6 6.1 3.5L60 35 84.4 3.6A9.3 9.3 0 0 1 97.5 2a9 9 0 0 1 3.5 7.2c0 2.1-.7 4-1.9 5.6L71.7 50z"/></svg>