<svg xmlns="http://www.w3.org/2000/svg" style="style=&quot;enable-background:new 0 0 200.0 100.0&quot;" viewBox="17.12 0 85.98 100"><path fill="#00000" d="M100.7 81.3c-9.3-22.7-18.6-43.9-22.1-52-3.8-8.4-6.7-15.2-7.4-17.2C67.9 3.4 65.1.4 59.9 0c-5 .4-7.9 3.4-11.1 12.2-.7 2-3.6 8.7-7.3 17.2-7.3 16.6-15.6 36-22.2 52-2.8 7.1-2.9 12.1-.3 15.2 1.9 2.3 4.9 3.4 9 3.4h64.3c4.1 0 7.1-1.2 9-3.4 1.2-1.5 1.8-3.4 1.8-5.8-.2-2.6-.8-5.7-2.4-9.5M84 84.8H36c1.7-4.2 4.9-12.5 8.7-21.8C50.2 48.9 56.8 32.3 60 24c3.9 9.8 12.2 31.1 18.3 46.3z"/></svg>