<svg xmlns="http://www.w3.org/2000/svg" style="style=&quot;enable-background:new 0 0 200.0 100.0&quot;" viewBox="27.5 0 65 100"><path fill="#000000" d="M59.8 0C46.2 0 27.5 17.4 27.5 50c0 24.2 11.3 50 32.3 50 20.5 0 32.7-25.4 32.7-50 0-34.5-19.1-50-32.7-50m16.4 65.6c-.5 6.8-6.3 18.8-16.3 18.8h-.5c-9.1-.4-15.1-11.5-15.7-19.3 0-1-.2-3.9 1.2-5.3.6-.6 1.4-.9 2.6-.9H72c1.4 0 2.4.4 3.1 1.1.9 1.1 1.3 2.9 1.1 5.6m-16.3-50c8.6 0 14.9 10.6 15.4 17.8.2 2.7-.2 4.6-1.2 5.6-.7.8-1.7 1.1-3.2 1.1H48.4q-1.5 0-2.4-.9c-1.4-1.5-1.4-4.5-1.4-5.3.6-7.2 7.4-18.3 15.3-18.3"/></svg>