<?xml version='1.0' encoding='utf-8'?><svg xmlns="http://www.w3.org/2000/svg" data-name="Layer 2" viewBox="-60.17 0 200 100" width="200" height="100" style="style=&quot;enable-background:new 0 0 200.0 100.0&quot;"><path d="M79.66 9.77v1c0 3.19-.73 6.11-1.55 8.66-2.64 8.02-6.29 15.4-9.93 22.24-9.3 17.77-28.62 43.75-42.2 56.78-1 1-2 1.55-3.19 1.55-.64 0-1.28-.18-1.91-.46-4.56-1.55-5.19-2.37-5.29-7.29v-48.4c-.09-5.01-.27-9.11-.46-13.85l-.18-3.28a31 31 0 0 0-.91-5.56C12.86 15.6 11.26 13.39 0 13.23l1.28-4.01c.18-.73.46-1.55.64-2.28.55-1.37 2-1.64 2.64-1.82 4.47-.46 19.4-1.91 23.24-1.91s6.02 1.74 6.02 5.1v60.43c3.28-4.1 9.57-11.58 15.4-20.05 7.11-10.12 9.3-15.04 9.84-17.41 1-4.56.46-9.39-1.73-14.49-1.37-3.01-1.37-6.38-.09-9.84 1-2.73 3.01-4.83 6.02-6.02a14.3 14.3 0 0 1 8.66-.46c4.56 1.09 7.38 4.56 7.75 9.3Z" data-name="Layer 1"/></svg>