<svg xmlns="http://www.w3.org/2000/svg" style="style=&quot;enable-background:new 0 0 200.0 100.0&quot;" viewBox="4.85 -0.05 110.31 100.05"><path fill="#000000" d="M112.2 100H76.8c-3.2 0-5.3-3.2-4.1-6.2 26.7-62.9 9.9-77.1-10.8-78.5-.4 0-.8-.1-1.2-.1h-.2c-.5-.1-.9-.1-1.3 0-.4 0-.8.1-1.2.1-20.7 1.4-37.5 15.6-10.8 78.5 1.2 2.9-.9 6.2-4.1 6.2H7.8C6.4 100 1.3 87.3 9 82.7c6.9-4.1 9.9.9 18.1 1.1C4.7 34.1 27.5 4.2 54.9.1c.8-.2 9.4-.2 10.2 0 27.4 4.1 50.2 34 27.8 83.6 8.2-.2 11.2-5.1 18.1-1.1 7.7 4.7 2.6 17.4 1.2 17.4"/></svg>