<?xml version="1.0" encoding="utf-8"?><svg xmlns="http://www.w3.org/2000/svg" viewBox="0 0 487.3 76.1" xml:space="preserve"><path d="M486.6 19.1c-.2-1.8-3.1-8.8-14.7-8.8l-.3 37C429.1 9.3 334-11.5 240 7.3 164.8-11 67 10.2 5.1 58.2c-12 9.3 0 25.5 12.5 14.5C74.4 22.5 185 6.4 219.5 20c-5.7 3.3-9.5 14.7-9.5 20.3s4.9 23.9 29.9 23.9 30.3-16.9 30.3-23.9-6.8-16.4-11.9-19.8c62.2-13.2 149-.9 200.6 39.9l-37.2.3c0 11.6 7 14.5 8.8 14.7 11.9 1.8 49-.5 55.2-.9v-.1h.1c.3-6.3 2.7-43.4.8-55.3m-233.5 21c0 7.2-8.8 10.3-12.9 10.3S227 48.2 227 40.1s9.6-12.8 12.7-12.8 13.4 5.6 13.4 12.8" style="fill:#2e3192"/></svg>