<?xml version="1.0" encoding="utf-8"?><svg xmlns="http://www.w3.org/2000/svg" viewBox="0 0 600 293.1" xml:space="preserve"><path d="m596.7 180.9-.2 1.1c-11.4 38.2-36.6 70.5-69.3 88.6l-.7.4c-22.6 14.2-49.3 21.8-77.1 22-17.6 0-35.6-3.1-53.3-9.1-44.7-15.7-78.5-48.4-92.6-89.7-.3-1.4-.9-3.8-1.9-7.8l-1.5-6.3c-.9-3.6-1.9-7.8-3.2-12.9l-5.6-24.2-.1-.2c-.3-1.3-.6-2.4-.9-3.5l-.4-1.4c-.9-4-1.4-5.9-2-7.4-16.9-57.6-75-101-135.1-101-8.3 0-16.7.8-24.7 2.5C68.9 39.7 19.4 83.4 4.9 140.7l-.1.6-.3 1.9c-.6 1.3-1.1 2.2-1.6 2.7-.7.1-1 .1-1.2.1h-.2q-1.5-.6-1.5-6.9c0-6 1.1-14.7 3.3-26.6C15 73.3 40.4 40.5 73 22.3l.7-.5C96 7.6 122.4 0 150.2 0c17.8 0 35.7 3.1 53.2 9.1 44.5 15.4 78.4 48.4 92.9 90.4l.1.2c.8 2.4 3.1 12.2 5.5 22.7l3 13c.4 1.7.7 3.3 1.1 4.9.7 3.3 1.5 6.9 2.4 10.3.9 3.8 1.5 6.1 1.6 7.1l.1.8.7 3 .2.5c17.4 58.8 74.8 101.5 136.4 101.5 8.2 0 16.5-.8 24.5-2.4 58.4-7.6 107.7-51 122.7-108l1.2-3.1.3-.9c.2-.7.7-1.5 1-1.7l.3-.2c.3-.1.5-.2.6-.2 0 0 .2 0 .5.1.4.2 1.2.5 1.6 5 .3 7-1.4 17.6-3.4 28.8" style="fill:#2e3192"/></svg>