<?xml version="1.0" encoding="utf-8"?>
<!-- Generator: Adobe Illustrator 27.1.0, SVG Export Plug-In . SVG Version: 6.00 Build 0)  -->
<svg version="1.1" id="Layer_1" xmlns="http://www.w3.org/2000/svg" xmlns:xlink="http://www.w3.org/1999/xlink" x="0px" y="0px"
	 viewBox="0 0 300.5 77.2" style="enable-background:new 0 0 300.5 77.2;" xml:space="preserve">
<style type="text/css">
	.st0{fill:#2E3192;stroke:#FFFFFF;stroke-width:0.5;stroke-miterlimit:10;}
	.st1{fill:none;}
</style>
<path class="st0" d="M129.7,48.7H19.3c-1.3,7-7.9,6.1-9.3,6.1c-9.6,0-9.8-8.1-9.8-12.3v-7.6c0-4.3,0.2-12.3,9.8-12.3
	c1.3,0,7.9-0.9,9.3,6.1h110.4c0,0,74.7-27.8,87.3-28c12.8-0.4,19.1-0.2,28.7,2l52.5,22.7c0,0,0.9,2.2,1.3,6.3
	c0.7,3.6,0.7,6.3,0.7,7.2c0,0.9,0,3.6-0.7,7.2c-0.4,4-1.3,6.3-1.3,6.3l-52.5,22.7c-9.6,2.2-15.9,2.5-28.7,2
	C204.4,76.5,129.7,48.7,129.7,48.7L129.7,48.7z"/>
<path class="st1" d="M101.3,104.3h49.2c0.6,3.1,3.5,2.7,4.1,2.7c4.3,0,4.4-3.6,4.4-5.5v-3.4c0-1.9-0.1-5.5-4.4-5.5
	c-0.6,0-3.5-0.4-4.1,2.7h-49.2c0,0-33.3-12.4-38.9-12.5c-5.7-0.2-8.5-0.1-12.8,0.9L26.2,93.8c0,0-0.4,1-0.6,2.8
	c-0.3,1.6-0.3,2.8-0.3,3.2s0,1.6,0.3,3.2c0.2,1.8,0.6,2.8,0.6,2.8l23.4,10.1c4.3,1,7.1,1.1,12.8,0.9
	C68,116.7,101.3,104.3,101.3,104.3"/>
</svg>
