<?xml version="1.0" encoding="utf-8"?><svg xmlns="http://www.w3.org/2000/svg" viewBox="0 0 600 300" xml:space="preserve"><path d="M160.2 290.1c0-71.8 65.5-130.2 139.8-130.2 74.2 0 139.8 58.4 139.8 130.2 0 5.5 4.6 9.9 10.2 9.9s10.2-4.4 10.2-9.9c0-71.8 55.3-130.2 129.5-130.2 5.7 0 10.2-4.4 10.2-9.9s-4.6-9.9-10.2-9.9c-74.2 0-129.5-58.4-129.5-130.2 0-5.5-4.6-9.9-10.2-9.9-5.7 0-10.2 4.4-10.2 9.9 0 71.8-65.5 130.2-139.8 130.2-74.2 0-139.8-58.4-139.8-130.2 0-5.5-4.6-9.9-10.2-9.9-5.7 0-10.2 4.4-10.2 9.9 0 71.8-55.3 130.2-129.5 130.2-5.7 0-10.3 4.4-10.3 9.9s4.6 9.9 10.2 9.9c74.2 0 129.5 58.4 129.5 130.2 0 5.5 4.6 9.9 10.2 9.9 5.8 0 10.3-4.4 10.3-9.9M450 63.5c15.7 39.7 43.3 71.3 84.3 86.5-41 15.2-68.6 46.8-84.3 86.5-15.7-39.7-53.6-71.3-94.6-86.5 41.1-15.2 78.9-46.8 94.6-86.5M65.7 150c41-15.2 68.6-46.8 84.3-86.5 15.7 39.7 53.6 71.3 94.6 86.5-41 15.2-78.8 46.8-94.6 86.5-15.7-39.7-43.3-71.3-84.3-86.5" style="fill:#2e3192"/></svg>