<?xml version="1.0" encoding="utf-8"?><svg xmlns="http://www.w3.org/2000/svg" viewBox="0 0 600 567.4" xml:space="preserve"><path d="m300.1 227.7-17.8.7-4.9.2-2.5-4.2c-2.2-3.7-53.5-90.7-58.8-101.3-10.2-20.8-38.1-84.1-42.7-99.5v-.2c-.2-.9-.5-1.8-.8-2.8-.2-.8-.5-1.7-.7-2.5l-.1-.3c-2-7.2-4.6-16.1-8.4-17.7-.4-.2-.8-.2-1.3-.2-1 0-2.9.4-5.9 2.2-2.3 1.4-41.6 26.7-80 74.1C54.3 103.6 36.7 133 24 163.7a322 322 0 0 0-24 120 321 321 0 0 0 24 119.9c12.6 30.7 30.2 60.2 52.3 87.4 38.4 47.4 77.7 72.7 80 74.1 3 1.8 4.9 2.2 5.9 2.2.5 0 .9-.1 1.3-.2 3.8-1.6 6.4-10.5 8.4-17.7l.1-.3c.2-.8.5-1.6.7-2.5s.5-1.9.8-2.8v-.2c4.6-15.4 32.5-78.7 42.7-99.5 5.2-10.6 56.6-97.6 58.8-101.3l2.5-4.2 4.9.2 17.8.7c34.6-1.6 53.2-30 53.2-55.9-.1-25.9-18.8-54.2-53.3-55.9m-229.9-112c24.5-38.1 53.4-65.2 73.3-81.1l8.7-7 4.1 10.4c9.4 24.2 34.7 78.7 42.8 95.2 1.5 3 10.2 17.7 18.6 32 10.8 18.3 22.9 39 27.4 47.3l13.8 26-25.3-15.1-160.7-96.2-7.3-4.4zm-51.3 150c2.7-40.6 13.9-80.7 33.3-119.3l4.1-8.1 7.6 4.8L248 258.7l3.8 2.4v4.5c0 2.5-.9 4.5-2.6 6.3l-2.4 2.4H18.3zM56.2 429l-4.1-8.1c-19.4-38.6-30.6-78.7-33.3-119.3l-.6-8.8h228.4l2.4 2.4c1.8 1.8 2.6 3.8 2.6 6.3v4.5l-3.8 2.4L63.9 424.1zm188.9-74.1c-4.4 8.4-16.6 29.1-27.4 47.3-8.4 14.2-17 28.9-18.6 32-8.1 16.5-33.4 71-42.8 95.2l-4.1 10.4-8.7-7c-19.9-16-48.8-43-73.3-81.1l-4.6-7.1 7.3-4.4L233.6 344l25.3-15.1zm90.6-54.6-.1.1-.1.1c-2.3 4.8-4.9 8.7-8.2 12-7 7.3-16.7 11.3-27.3 11.3s-20-3.9-27.2-11.4c-4-3.7-6.5-8.1-8.6-12.6a35 35 0 0 1-3.4-16.2c-.1-5 .8-10.6 3.4-16.2 2.1-4.4 4.5-8.8 8.6-12.6 7.3-7.5 16.7-11.4 27.2-11.4 10.6 0 20.3 4 27.3 11.3 3.3 3.4 6 7.2 8.2 12l.1.1.1.1c2.5 6 3.4 11.7 3.4 16.6 0 5.1-.9 10.8-3.4 16.8" style="fill:none"/><path d="M246.7 283.7c0 25.9 18.7 54.3 53.2 55.9l17.8-.7 4.9-.2 2.5 4.2c2.2 3.7 53.5 90.7 58.8 101.3 10.2 20.8 38.1 84.1 42.7 99.5v.2c.2.9.5 1.8.8 2.8.2.8.5 1.7.7 2.5l.1.3c2 7.2 4.6 16.1 8.4 17.7.4.2.8.2 1.3.2 1 0 2.9-.4 5.9-2.2 2.3-1.4 41.6-26.7 80-74.1 22.1-27.3 39.7-56.7 52.3-87.4 15.7-38.1 23.7-78.5 24-119.9a321 321 0 0 0-24-119.9c-12.6-30.7-30.2-60.2-52.3-87.4-38.4-47.4-77.7-72.7-80-74.1-3-1.8-4.9-2.2-5.9-2.2-.5 0-.9.1-1.3.2-3.8 1.6-6.4 10.5-8.4 17.7l-.1.3c-.2.8-.5 1.6-.7 2.5s-.5 1.9-.8 2.8v.2c-4.6 15.4-32.5 78.7-42.7 99.5-5.2 10.6-56.6 97.6-58.8 101.3l-2.5 4.2-4.9-.2-17.8-.7c-34.5 1.4-53.2 29.7-53.2 55.7m287.7-160.9-7.3 4.4-160.7 96.2-25.3 15.1 13.8-26c4.4-8.4 16.6-29.1 27.4-47.3 8.4-14.2 17-28.9 18.6-32 8.1-16.5 33.4-71 42.8-95.2l4.1-10.4 8.7 7c19.9 16 48.8 43 73.3 81.1zm47.3 151.7H353.3l-2.4-2.4a8.4 8.4 0 0 1-2.6-6.3v-4.5l3.8-2.4 184.1-115.6 7.6-4.8 4.1 8.1c19.4 38.6 30.6 78.7 33.3 119.3zm-45.6 149.6-184-115.6-3.8-2.4v-4.5c0-2.5.9-4.5 2.6-6.3l2.4-2.4h228.4l-.6 8.8c-2.7 40.6-13.9 80.7-33.3 119.3l-4.1 8.1zm-195-95.2 25.3 15.1 160.7 96.2 7.3 4.4-4.6 7.1c-24.5 38.1-53.4 65.2-73.3 81.1l-8.7 7-4.1-10.4c-9.4-24.2-34.7-78.7-42.8-95.2-1.5-3-10.2-17.7-18.6-32-10.8-18.3-22.9-39-27.4-47.3zm-80.2-45.2c0-4.9.8-10.6 3.4-16.6l.1-.1.1-.1c2.3-4.8 4.9-8.7 8.2-12 7-7.3 16.7-11.3 27.3-11.3s20 3.9 27.2 11.4c4 3.7 6.5 8.1 8.6 12.6a35 35 0 0 1 3.4 16.2c.1 5-.8 10.6-3.4 16.2-2.1 4.4-4.5 8.8-8.6 12.6A37 37 0 0 1 300 324c-10.6 0-20.3-4-27.3-11.3-3.3-3.4-6-7.2-8.2-12l-.1-.1-.1-.1c-2.5-6.2-3.4-11.9-3.4-16.8" style="fill:#2e3191"/></svg>