<?xml version="1.0" encoding="utf-8"?><svg xmlns="http://www.w3.org/2000/svg" viewBox="0 0 600 523.5" xml:space="preserve"><path d="M600 260.2v3.4c0 5.3-4.3 9.7-9.7 9.7H306.7l-2.4 4.1-3.1 5.3-136.3 235.7-.8 1.5a9.6 9.6 0 0 1-7.4 3.4c-1.3 0-2.6-.3-3.9-.8l-.1-.1-1-.6-2.8-1.6c-4.4-2.7-5.9-8.7-3.4-13.3L282 270.8l3.1-5.3 2.4-4.1-2.4-4.1-3.1-5.4L145.5 16.2c-2.4-4.4-.8-10.6 3.4-13.3l.8-.4h.3l1.9-1.1a9.86 9.86 0 0 1 13.3 3.4l136.3 236.3 3.1 5.3 2.4 4.1h283.2c5.5 0 9.8 4.4 9.8 9.7" style="fill:#2e3192"/><path d="M454.4 507.5c1.2 2 1.5 4.5.9 7-.7 2.5-2.3 4.7-4.4 5.9l-.9.5-.2.2-1.8 1.1a9.8 9.8 0 0 1-13.2-3.7L298.6 282.1l-3.1-5.3-2.4-4.1h-10.9l-272.4.2c-5-.1-9.5-4.6-9.8-9.7l.1-3v-.3c.1-5.4 4.4-9.8 9.8-9.8h2.4l270.4.1h10.9l2.4-4.1 3.1-5.3 136-235.9c1.8-3 5-4.9 8.5-4.9 1.6 0 3.3.4 4.7 1.3l2.9 1.7c2.2 1.2 3.7 3.3 4.5 5.9.7 2.5.3 5.1-1 7.4l-136.4 236-3.1 5.3-2.4 4.1 2.4 4.1 3.1 5.3 135 234.1v.2z" style="fill:none"/></svg>