<?xml version="1.0" encoding="utf-8"?><svg xmlns="http://www.w3.org/2000/svg" viewBox="0 0 300 155.26" xml:space="preserve"><path d="M 220.6 153.66 c -9.25 0 -18.39 -1.6 -27.42 -4.68 -23.08 -8.11 -40.78 -25.25 -48.1 -46.95 -0.23 -1.03 -1.14 -4.68 -3.2 -13.02 l -2.63 -11.42 c -0.69 -2.74 -1.14 -4.8 -1.37 -5.37 -8.23 -28.45 -39.3 -47.75 -67.75 -41.81 -25.36 3.2 -46.5 21.71 -52.67 46.15 l -0.23 1.49 c -0.8 1.71 -1.83 4.23 -4.57 5.6 -1.94 0.69 -3.88 0.91 -5.83 0.23 -5.26 -1.94 -5.26 -7.65 -5.26 -9.71 0 -3.43 0.57 -8 1.71 -14.17 6.05 -20.56 19.19 -37.47 36.21 -46.95 C 58.72 0.69 83.28 -1.83 106.7 6.28 c 23.08 8 40.56 25.13 48.1 46.95 0.69 1.94 2.06 8.23 4.23 17.59 0.57 2.51 1.03 4.91 1.6 6.97 0.46 1.83 0.8 3.31 0.91 4.23 l 0.23 0.91 c 8.45 28.56 39.64 47.75 68.2 41.93 a 62.6 62.6 0 0 0 52.44 -46.27 l 0.57 -1.49 c 0.23 -0.91 1.26 -4.11 4.57 -5.48 1.83 -0.8 3.77 -0.91 5.83 -0.11 6.74 2.74 5.6 11.42 3.43 23.53 l -0.11 0.8 c -5.83 19.99 -19.08 36.9 -36.1 46.38 a 76.54 76.54 0 0 1 -39.98 11.42 z" style="fill:#2e3191;stroke:#fff;stroke-width:3.14;stroke-miterlimit:10"/></svg>