<?xml version='1.0' encoding='utf-8'?><svg xmlns="http://www.w3.org/2000/svg" viewBox="0 0 300 39.63"><path d="M 211.86 25.03 h -57.06 c -0.7 3.6 -4.09 3.13 -4.79 3.13 -4.99 0 -5.07 -4.18 -5.07 -6.38 v -3.94 c 0 -2.2 0.08 -6.38 5.07 -6.38 0.7 0 4.09 -0.46 4.79 3.13 h 57.06 s 38.62 -14.38 45.12 -14.5 c 6.61 -0.23 9.86 -0.12 14.85 1.04 l 27.14 11.71 s 0.46 1.16 0.7 3.25 c 0.35 1.86 0.35 3.25 0.35 3.71 s 0 1.86 -0.35 3.71 c -0.23 2.09 -0.7 3.25 -0.7 3.25 l -27.14 11.71 c -4.99 1.16 -8.23 1.28 -14.85 1.04 -6.49 -0.12 -45.12 -14.5 -45.12 -14.5 Z" style="fill:#2e3192"/><path fill="none" d="M 88.14 25.03 h 57.06 c 0.7 3.6 4.09 3.13 4.79 3.13 4.99 0 5.07 -4.18 5.07 -6.38 v -3.94 c 0 -2.2 -0.08 -6.38 -5.07 -6.38 -0.7 0 -4.09 -0.46 -4.79 3.13 H 88.14 S 49.52 0.21 43.03 0.09 c -6.61 -0.23 -9.86 -0.12 -14.85 1.04 L 1.04 12.85 s -0.46 1.16 -0.7 3.25 c -0.35 1.86 -0.35 3.25 -0.35 3.71 s 0 1.86 0.35 3.71 c 0.23 2.09 0.7 3.25 0.7 3.25 l 27.14 11.71 c 4.99 1.16 8.23 1.28 14.85 1.04 6.49 -0.12 45.12 -14.5 45.12 -14.5"/></svg>
