<?xml version="1.0" encoding="utf-8"?><svg xmlns="http://www.w3.org/2000/svg" viewBox="0 0 300 150" xml:space="preserve"><path fill="#2e3191" d="M 292.2 66.6 c -15.4 -1.2 -28.7 -7.9 -39.7 -18.7 s -17.7 -25.1 -19 -40.2 a 8.6 8.6 0 0 0 -17.1 0 c -2.8 33.2 -32.6 59.2 -66.4 59.2 s -63.6 -26 -66.4 -59.2 a 8.6 8.6 0 0 0 -17.1 0 c -1.3 15.1 -8 29.4 -19 40.2 S 23.2 65.3 7.8 66.6 C 3.4 67 0 70.6 0 75 c 0 4.3 3.4 8 7.8 8.4 15.4 1.2 28.7 7.9 39.7 18.7 s 17.7 25.1 19 40.2 a 8.6 8.6 0 0 0 17.1 0 c 2.8 -33.2 32.6 -59.2 66.4 -59.2 s 63.6 26 66.4 59.2 a 8.6 8.6 0 0 0 17.1 0 c 1.3 -15.1 8 -29.4 19 -40.2 s 24.3 -17.4 39.7 -18.7 c 4.4 -0.4 7.8 -4 7.8 -8.4 s -3.4 -8 -7.8 -8.4 M 75 112.4 c -4 -8.1 -9.3 -15.4 -15.8 -21.9 A 81 81 0 0 0 37 75 q 12.3 -5.85 22.2 -15.6 C 65.7 53 71 45.7 75 37.6 A 82 82 0 0 0 113 75 a 82 82 0 0 0 -38 37.4 m 165.8 -21.8 a 81 81 0 0 0 -15.8 21.9 c -8 -16.3 -21.5 -29.6 -38 -37.5 a 82.3 82.3 0 0 0 37.9 -37.4 c 4 8.1 9.3 15.4 15.8 21.9 a 84 84 0 0 0 22.2 15.6 c -8.1 3.8 -15.6 9 -22.1 15.5"/></svg>