<?xml version="1.0" encoding="utf-8"?><svg version="1.1" id="minihoop" xmlns="http://www.w3.org/2000/svg" x="0" y="0" viewBox="0 0 300 159.85" xml:space="preserve"><style>.st0{fill:#2e3191}</style><path class="st0" d="M 220.02 159.5 c 43.96 0 79.63 -35.68 79.63 -79.52 C 299.65 36.03 263.97 0.35 220.02 0.35 c -43.84 0 -79.52 35.68 -79.52 79.63 0 43.84 35.68 79.52 79.52 79.52 m 0 -140.61 a 60.93 60.93 0 1 1 -60.86 60.98 c 0 -33.58 27.28 -60.86 60.86 -60.98"/><path class="st0" d="M 79.63 0.7 C 35.68 0.7 0 36.38 0 80.22 c 0 43.96 35.68 79.63 79.63 79.63 43.84 0 79.52 -35.68 79.52 -79.63 C 159.15 36.38 123.47 0.7 79.63 0.7 m 0 140.5 a 60.93 60.93 0 1 1 60.86 -60.98 c 0 33.7 -27.28 60.98 -60.86 60.98"/></svg>