<?xml version="1.0" encoding="utf-8"?>
<!-- Generator: Adobe Illustrator 27.1.0, SVG Export Plug-In . SVG Version: 6.00 Build 0)  -->
<svg version="1.1" id="Layer_1" xmlns="http://www.w3.org/2000/svg" xmlns:xlink="http://www.w3.org/1999/xlink" x="0px" y="0px"
	 viewBox="0 0 300 239.4" style="enable-background:new 0 0 300 239.4;" xml:space="preserve">
<style type="text/css">
	.st0{fill:#2E3192;stroke:#FFFFFF;stroke-width:1.75;stroke-miterlimit:10;}
	.st1{fill:none;}
</style>
<path class="st0" d="M234.3,238.1c2.7-1.6,65.2-42,65.7-118.4C299.5,43.4,236.8,3.1,234.3,1.4c-2.2-1.4-4.2-1.7-5.9-1
	c-3.1,1.3-4.3,5.5-5.5,9.6c-0.2,0.7-0.3,1.5-0.6,2.2c-1.7,5.9-12.9,31.3-17.3,40.3c-2.8,5.8-11.1,21.4-28.4,43.1
	c-0.8,0-1.6,0-2.2,0.1h-1.5c-13.6,1.3-23.1,11.1-23.1,24.3s9.5,23,23.1,24.3h1.5c0.6,0.1,1.5,0.1,2.2,0.1
	c17.3,21.7,25.6,37.3,28.4,43.1c4.4,9.1,15.6,34.5,17.3,40.3c0.2,0.7,0.3,1.5,0.6,2.2c1.2,4.1,2.3,8.4,5.5,9.6
	C230.1,239.8,232.1,239.4,234.3,238.1L234.3,238.1z M207.9,76.7c4.6-7.4,8.6-14.3,10.1-17.2c3.5-7.2,13.9-29.6,17.8-39.3
	c7.4,5.9,19.3,16.8,29.4,32.5l-71.5,45C197.8,92.1,203.3,84.1,207.9,76.7z M272.2,64.9c7.6,14.8,12.1,31,13.3,47.6h-88.7
	c-0.1-0.1-0.1-0.1-0.1-0.2L272.2,64.9z M164.7,129.2c-1-1-2-2.3-2.8-4.1c-0.6-1.4-0.9-3.1-0.9-4.8V119c0-1.6,0.3-3.4,0.9-4.8
	c0.8-1.6,1.6-2.9,2.8-4.1c2.2-2.3,5.3-3.6,8.8-3.6c3.4,0,6.5,1.3,8.8,3.7c1.2,1,2.2,2.3,2.8,4.1c0.6,1.3,0.9,3,0.9,4.6v1.4
	c0,1.6-0.3,3.4-0.9,4.6c-0.6,1.6-1.5,2.9-2.8,4.1c-2.3,2.4-5.3,3.7-8.8,3.7C170.1,132.8,167,131.6,164.7,129.2z M196.8,127
	c0-0.1,0-0.1,0.1-0.2h88.7c-1,16.4-5.6,32.3-13.3,47.6L196.8,127z M218,180c-1.5-2.9-5.3-9.7-10.1-17.2
	c-4.6-7.4-10.1-15.4-14.4-20.9l71.5,45c-10.1,15.7-21.9,26.5-29.4,32.5C231.8,209.6,221.5,187.2,218,180L218,180z"/>
<path class="st1" d="M71.7,239.1c3.1-1.3,4.3-5.5,5.5-9.6c0.2-0.7,0.3-1.5,0.6-2.2C79.4,221.4,90.6,196,95,187
	c2.8-5.8,11.1-21.4,28.4-43.1c0.8,0,1.6,0,2.2-0.1h1.5c13.6-1.3,23.1-11.1,23.1-24.3s-9.5-23-23.1-24.3h-1.5
	c-0.6-0.1-1.5-0.1-2.2-0.1C106.1,73.7,97.9,58.1,95,52.3C90.6,43.4,79.4,17.9,77.7,12c-0.2-0.7-0.3-1.5-0.6-2.2
	c-1.2-4.1-2.3-8.4-5.5-9.6c-1.7-0.7-3.7-0.3-5.9,1C63.1,3,0.4,43.4-0.1,119.7c0.5,76.4,63.1,116.6,65.7,118.4
	C68,239.4,69.9,239.8,71.7,239.1 M106.5,97.6L35,52.6C45.1,37,56.9,26.2,64.4,20.2c3.8,9.7,14.2,32.1,17.8,39.3
	c1.5,2.9,5.3,9.7,10.1,17.2C96.7,84.1,102.2,92.1,106.5,97.6 M103.2,112.4c0,0.1,0,0.1-0.1,0.2H14.5c1-16.4,5.6-32.3,13.3-47.6
	C27.7,64.9,103.2,112.4,103.2,112.4 M126.4,132.8c-3.4,0-6.5-1.3-8.8-3.7c-1.2-1-2.2-2.3-2.8-4.1c-0.6-1.3-0.9-3-0.9-4.6V119
	c0-1.6,0.3-3.4,0.9-4.6c0.6-1.6,1.5-2.9,2.8-4.1c2.3-2.4,5.3-3.7,8.8-3.7c3.4,0,6.5,1.3,8.8,3.6c1,1,2,2.3,2.8,4.1
	c0.6,1.4,0.9,3.1,0.9,4.8v1.4c0,1.6-0.3,3.4-0.9,4.8c-0.8,1.6-1.6,2.9-2.8,4.1C132.9,131.6,129.8,132.8,126.4,132.8 M27.7,174.5
	c-7.6-14.8-12.1-31-13.3-47.6H103c0.1,0.1,0.1,0.1,0.1,0.2L27.7,174.5z M64.4,219.3c-7.4-5.9-19.3-16.8-29.4-32.5l71.5-45
	c-4.3,5.5-9.7,13.5-14.4,20.9s-8.6,14.3-10.1,17.2C78.5,187.2,68.1,209.6,64.4,219.3"/>
</svg>
