<?xml version="1.0" encoding="utf-8"?><svg xmlns="http://www.w3.org/2000/svg" viewBox="0 0 300 239.44" xml:space="preserve"><path d="M 234.22 238.05 c 2.67 -1.62 65.2 -42 65.66 -118.33 -0.46 -76.33 -63.11 -116.59 -65.66 -118.33 q -3.31 -2.09 -5.92 -1.04 c -3.13 1.28 -4.29 5.45 -5.45 9.63 -0.23 0.7 -0.35 1.51 -0.58 2.2 -1.74 5.92 -12.88 31.32 -17.29 40.26 -2.78 5.8 -11.14 21.35 -28.42 43.04 -0.81 0 -1.62 0 -2.2 0.12 H 172.85 c -13.57 1.28 -23.09 11.14 -23.09 24.25 s 9.51 22.97 23.09 24.25 h 1.51 c 0.58 0.12 1.51 0.12 2.2 0.12 17.29 21.69 25.64 37.24 28.42 43.04 4.41 9.05 15.55 34.45 17.29 40.26 0.23 0.7 0.35 1.51 0.58 2.2 1.16 4.06 2.32 8.35 5.45 9.63 1.74 0.46 3.71 0 5.92 -1.28 zm 207.89 76.68 c 4.64 -7.42 8.58 -14.27 10.09 -17.17 3.48 -7.19 13.92 -29.58 17.75 -39.33 7.42 5.92 19.26 16.82 29.35 32.48 l -71.46 45.01 c 4.18 -5.57 9.63 -13.57 14.27 -21 zm 272.16 64.97 a 124.13 124.13 0 0 1 13.34 47.56 h -88.63 c -0.12 -0.12 -0.12 -0.12 -0.12 -0.23 zm 164.73 129.23 c -1.04 -1.04 -1.97 -2.32 -2.78 -4.06 -0.58 -1.39 -0.93 -3.13 -0.93 -4.76 v -1.39 c 0 -1.62 0.35 -3.36 0.93 -4.76 0.81 -1.62 1.62 -2.9 2.78 -4.06 2.2 -2.32 5.34 -3.6 8.82 -3.6 3.36 0 6.5 1.28 8.82 3.71 1.16 1.04 2.2 2.32 2.78 4.06 0.58 1.28 0.93 3.02 0.93 4.64 v 1.39 c 0 1.62 -0.35 3.36 -0.93 4.64 -0.58 1.62 -1.51 2.9 -2.78 4.06 -2.32 2.44 -5.34 3.71 -8.82 3.71 s -6.61 -1.28 -8.82 -3.6 zm 32.02 -2.2 c 0 -0.12 0 -0.12 0.12 -0.23 h 88.63 c -1.04 16.36 -5.57 32.25 -13.34 47.56 zm 21.23 52.9 c -1.51 -2.9 -5.34 -9.74 -10.09 -17.17 -4.64 -7.42 -10.09 -15.43 -14.39 -20.88 l 71.46 45.01 c -10.09 15.66 -21.93 26.45 -29.35 32.48 -3.83 -9.86 -14.15 -32.25 -17.63 -39.44 z" style="fill:#2e3192;stroke:#fff;stroke-width:2.03;stroke-miterlimit:10"/><path d="M 71.69 239.1 c 3.13 -1.28 4.29 -5.45 5.45 -9.63 0.23 -0.7 0.35 -1.51 0.58 -2.2 1.74 -5.92 12.88 -31.32 17.29 -40.26 2.78 -5.8 11.14 -21.35 28.42 -43.04 0.81 0 1.62 0 2.2 -0.12 h 1.51 c 13.57 -1.28 23.09 -11.14 23.09 -24.25 s -9.51 -22.97 -23.09 -24.25 h -1.51 c -0.58 -0.12 -1.51 -0.12 -2.2 -0.12 -17.29 -21.58 -25.52 -37.12 -28.42 -42.92 -4.41 -8.93 -15.55 -34.34 -17.29 -40.26 -0.23 -0.7 -0.35 -1.51 -0.58 -2.2 -1.16 -4.06 -2.32 -8.35 -5.45 -9.63 q -2.61 -1.04 -5.92 1.04 C 63.11 3.02 0.46 43.39 0 119.72 c 0.46 76.33 63.11 116.59 65.66 118.33 2.32 1.28 4.29 1.74 6.03 1.04 m 34.8 -141.53 L 35.03 52.67 c 10.09 -15.66 21.93 -26.45 29.35 -32.48 3.83 9.74 14.15 32.13 17.75 39.33 1.51 2.9 5.34 9.74 10.09 17.17 4.52 7.42 9.98 15.43 14.27 20.88 M 103.25 112.41 c 0 0.12 0 0.12 -0.12 0.23 H 14.5 c 1.04 -16.36 5.57 -32.25 13.34 -47.56 -0.12 -0.12 75.41 47.33 75.41 47.33 m 23.2 20.42 c -3.36 0 -6.5 -1.28 -8.82 -3.71 -1.16 -1.04 -2.2 -2.32 -2.78 -4.06 -0.58 -1.28 -0.93 -3.02 -0.93 -4.64 v -1.39 c 0 -1.62 0.35 -3.36 0.93 -4.64 0.58 -1.62 1.51 -2.9 2.78 -4.06 2.32 -2.44 5.34 -3.71 8.82 -3.71 3.36 0 6.5 1.28 8.82 3.6 1.04 1.04 1.97 2.32 2.78 4.06 0.58 1.39 0.93 3.13 0.93 4.76 v 1.39 c 0 1.62 -0.35 3.36 -0.93 4.76 -0.81 1.62 -1.62 2.9 -2.78 4.06 -2.32 2.32 -5.45 3.6 -8.82 3.6 m -98.72 41.65 a 124.13 124.13 0 0 1 -13.34 -47.56 h 88.63 c 0.12 0.12 0.12 0.12 0.12 0.23 zm 64.39 219.26 c -7.42 -5.92 -19.26 -16.82 -29.35 -32.48 l 71.46 -45.01 c -4.29 5.45 -9.74 13.46 -14.39 20.88 S 83.53 176.91 82.02 179.81 c -3.48 7.31 -13.92 29.7 -17.63 39.44" style="fill:none"/></svg>