<?xml version="1.0" encoding="utf-8"?><svg version="1.1" id="Layer_1" xmlns="http://www.w3.org/2000/svg" x="0" y="0" viewBox="0 0 300 228.36" xml:space="preserve"><style>.st0{fill:#2e3192}</style><path class="st0" d="M 300 114.12 c 0 5.76 -0.6 11.52 -1.8 17.04 a 114.72 114.72 0 0 1 -38.16 69.48 114.96 114.96 0 0 1 -75.24 28.2 c -63.24 0 -114.72 -51.48 -114.72 -114.72 0 -5.4 4.32 -9.72 9.72 -9.72 s 9.72 4.32 9.72 9.72 c 0 52.56 42.72 95.28 95.28 95.28 20.16 0 39.6 -6.36 55.68 -18 -6.6 1.68 -13.32 2.64 -20.28 2.64 -44.04 0 -79.92 -35.88 -79.92 -79.8 0 -33.36 -27.12 -60.36 -60.36 -60.36 -32.52 0 -59.52 26.4 -60.36 58.92 v 1.56 c 0 5.4 -4.32 9.72 -9.72 9.72 S 0.12 119.76 0.12 114.36 v -2.04 C 0.6 81.96 12.72 53.64 34.32 32.4 S 84.48 -0.6 114.72 -0.6 c 63.24 0 114.72 51.48 114.72 114.72 0 5.4 -4.32 9.72 -9.72 9.72 s -9.72 -4.32 -9.72 -9.72 c 0 -52.56 -42.72 -95.28 -95.28 -95.28 -20.4 0 -39.84 6.36 -56.04 18.24 q 10.26 -2.88 21.24 -2.88 c 44.04 0 79.92 35.88 79.92 79.8 0 33.36 27.12 60.36 60.36 60.36 28.08 0 52.8 -19.8 58.92 -47.16 0.96 -4.32 1.44 -8.76 1.44 -13.2 0 -5.04 3.96 -9.36 9 -9.72 h 0.72 c 5.4 0.12 9.72 4.56 9.72 9.84"/><path class="st0" d="M 296.88 113.28 c 0 5.16 -11.64 9.36 -25.92 9.36 s -25.92 -4.2 -25.92 -9.36 11.64 -9.36 25.92 -9.36 c 2.88 0 18.72 -0.36 21.24 0.48 7.2 2.52 4.68 4.8 4.68 8.88"/></svg>