<?xml version="1.0" encoding="utf-8"?>
<!-- Generator: Adobe Illustrator 27.1.0, SVG Export Plug-In . SVG Version: 6.00 Build 0)  -->
<svg version="1.1" id="Layer_1" xmlns="http://www.w3.org/2000/svg" xmlns:xlink="http://www.w3.org/1999/xlink" x="0px" y="0px"
	 viewBox="0 0 593.4 168" style="enable-background:new 0 0 593.4 168;" xml:space="preserve">
<style type="text/css">
	.st0{fill:#2E3192;}
	.st1{fill:none;}
	.st2{fill:#FFFFFF;}
</style>
<path class="st0" d="M593.4,83.6c0-47.4-12.1-64.7-24-73S531.8-1,521.6,0.2c-9.4,1.1-18.1,4.2-26.6,8.1c-10,4.5-19,10.6-27.9,17.1
	c-7.4,5.3-14.9,5.6-22.9,1.8c-1.7-0.3-3.3-0.8-4.5-1.8c-0.5-0.2-0.8-0.2-1.2-0.3c-9.8-4.2-19.8-7.4-30.5-7.4
	c-15.8,0.2-27.2,7.7-34.6,21.4c-2.9,5.4-4.5,11.3-6.5,17.1c-0.3,1.4-0.5,2.6-0.8,3.9c-0.5,2.1-1.1,4.2-1.1,6.3
	c0,1.5-0.2,3.2-1.5,3.2h-0.2l-127.1,0.5h-0.2c-3.3,0.6-6.8,0-10.1,0.2h-11.6c-0.8,0.2-1.5,0.2-2.3-0.2c-1.1-0.3-2-0.8-3-1.5
	c-1.4-0.9-2.4-2.9-4.7-2.3c-1.4,0.3-2.1-0.2-2.6-1.8c-0.6-2.1-2.3-3.9-4.8-3.9c-2.6,0-4.5,1.4-5.1,3.9c-0.3,1.5-1.1,1.8-2.4,1.8
	c-1.5,0.2-2-0.9-2.1-1.8c-0.5-2.4-2.3-3.5-4.4-3.9c-2.4-0.5-4.1,1.1-5.3,2.9c-0.8,1.1-0.9,2.3-2.9,2.3c-2,0.2-2-1.5-2.4-2.4
	c-0.9-2-2.1-2.9-4.4-3c-2.4-0.2-4.4,0.8-5,2.7c-0.8,2.4-2.1,2.3-3.9,2.6c-3.8,0.3-8.5-2-11,3c-0.2,0.2-0.6,0.2-0.8,0.5
	c-0.5,0.8-1.8-0.2-2.1,1.1c-0.6,3.6-3.2,6-5.7,8.5c-0.5,0.5-0.8,0.9-0.8,1.7c0.2,3.9-0.9,8.1,3.3,10.9c1.4,0.9,2,2.7,2.6,4.2
	c1.1,2.9,5.3,3,5.4,6.6c0,0.2,1.7,0.2,2.4,0.2c2.6-0.3,5-0.8,7.5-0.6c1.4,0,2.3,0.3,2.4,1.8c0.5,2.6,2.6,3.8,4.7,3.9
	c2.4,0.2,4.4-1.5,5.3-3.8c0.5-1.1,0.6-2,2.3-2c1.5,0,2,0.8,2.6,1.8c1.1,2.1,2.6,3.3,4.8,3.5c2.6,0,3.9-1.7,5.1-3.6
	c0.5-0.8,0.2-2.4,2-2.1c1.7,0.2,2,1.1,2.4,2.3c1.2,3.3,5,4.5,7.7,2.4c2.3-1.8,3.3-4.4,6.9-5.6c2.6-0.8,4.8-2.1,7.5-2.4
	c0.8-0.2,1.7-0.2,2.6-0.2c0.6,0,1.1,0.2,1.7,0.2c5.6,0.3,11.2,0.2,16.9,0c2.1,0,4.1-0.2,6.2-0.2h23.1c4.4,0,8.8,0.2,13.1,0.2
	l85.4,0.3h0.2c1.5,0,1.4,1.7,1.5,2.7c0.5,2,0.5,3.9,0.6,5.9c0.8,0.9,0.9,2.1,0.6,3.2c0.3,0.3,0.6,0.6,0.6,1.1
	c2.3,9.2,5.7,17.8,11.9,25.4c6.9,8.5,15.8,12.7,26.6,13.3c12.4,0.8,23.8-3.2,35-8.1c1.1-0.5,2.1-0.8,3.3-1.2
	c4.8-1.8,9.5-3.2,14.8-2.3c4.2,0.8,7.4,3.3,10.7,5.4c11.2,7.5,22.5,14.9,35.5,19.3c11.5,3.9,23.2,6.6,35.5,4.8
	c11.6-1.8,21.1-6.6,29.4-14.9C578.5,143.5,593.4,130.9,593.4,83.6 M166.9,71.5v6.6C163.6,75.6,163.7,73.1,166.9,71.5 M167.2,92.8
	c0.2,0.9,0,2,0,3.3c-1.5-0.8-2.4-1.5-2.6-2.7c-0.2-1.5-0.3-3.5,1.5-3.6C167.8,89.7,167.1,91.7,167.2,92.8 M177.9,95.9
	c-2.1-0.2-4.2,0.3-6.3,0.6c-1.5,0.2-2.1-0.5-2-2c0.2-0.9,0.2-2,0-2.9c-0.3-1.8,0.5-2.4,2.3-2.3c1.8,0,3.8-0.3,5.6-0.6
	c3-0.5,4.5,0.5,3.6,3.6C182,95.3,180.6,96.1,177.9,95.9 M181.2,77.5c-0.3,1.1-0.9,0.9-1.7,0.9h-5.7c-4.2,0-4.2,0-4.2-4.2
	c0-2.9,0-2.9,5.7-2.9h1.2C181.2,71.3,182.4,73.1,181.2,77.5 M195.4,94.4c0,0.8-0.6,0.8-1.2,0.8c-2.1-0.2-4.2,0.3-6.3,0.6
	c-1.1,0.2-3,0.9-3.3-0.6c-0.5-2-0.8-5,0.2-5.7c1.5-1.4,4.2-1.4,7.1-1.1c0.8,0.2,2.9-0.9,3.3,0.5C195.9,90.3,195.4,92.5,195.4,94.4
	 M195.4,78.1c-0.2,0.8-0.6,0.9-1.4,0.9c-3,0.3-5.9-0.8-8.8-0.6c-0.8,0-0.8-0.5-0.9-1.1c-0.9-4.2-0.2-5.3,4.2-5.3h2.3
	C195.3,72.1,196.6,73.7,195.4,78.1 M199.2,72.4c1.8-1.1,4.7-0.9,6.9,0.5c1.2,0.8,1.7,2.3,1.4,3.5c-0.6,2.4-2.6,3.2-5,2.7h-0.5
	c-0.9-0.6-2.9,1.1-3.2-1.1C198.4,76.2,197.7,73.3,199.2,72.4 M201.3,95.3c-4.2,0.3-2.4-2.6-2.7-4.4c-0.8-3.5,1.7-2.9,3.9-2.7
	c2.7-0.6,4.7,0.6,5.1,3.5C208,94,205.5,95,201.3,95.3 M409.1,98.3l-0.5-0.5c-1.1-9.5-0.6-19-0.2-28.5v-0.3c0,0,0.2,0,0.3-0.2
	c0.2,0,0.8,0.2,1.4,0.3C410.2,78.4,409.3,89.1,409.1,98.3 M434.8,107.3c-9.7,2.4-18-0.2-24.4-7.4c1.4,0.2,3-0.3,4.1,0.6
	c5.4,4.4,11.5,6.8,18.6,5c11.9-2.9,20.2-13.7,16.9-27.3c-2.1-8.6-7.8-13.7-16-16c-7.4-2-14.5-0.3-20.2,5.4c-0.8,0.8-1.5,1.2-2.4,1.4
	c3.5-5.4,7.5-8.8,13.7-9.5c12.8-1.4,23.1,5.3,26.9,17.4C456.4,89.9,448.5,103.8,434.8,107.3 M415.3,83.7c0-3.5,0.2-7.1,0-10.6
	c-0.2-2.7,1.1-4.2,3-5.4c10.9-6.2,25.2-2.7,28.8,11.6c3,11.6-5.7,22.6-17.4,22.9c-4.8,0.2-9.1-0.8-12.8-3.9
	c-1.2-1.1-1.8-2.1-1.7-3.8V83.7z M528.4,42.8v82.4c-4.5,1.2-8.9,1.2-13.3,0c0-27.2,0-54.5-0.2-81.8c0-1.8,0.5-2.4,2.3-2.3
	c3.5,0.2,7.1,0.2,10.6,0.2C528.8,41.6,528.4,42.4,528.4,42.8"/>
<path class="st1" d="M0,84.5c0,47.4,12.1,64.7,24,73s37.6,11.5,47.8,10.3c9.4-1.1,18.1-4.2,26.6-8.1c10-4.5,19-10.6,27.9-17.1
	c7.4-5.3,14.9-5.6,22.9-1.8c1.7,0.3,3.3,0.8,4.5,1.8c0.5,0.2,0.8,0.2,1.2,0.3c9.8,4.2,19.8,7.4,30.5,7.4
	c15.8-0.2,27.2-7.7,34.6-21.4c2.9-5.4,4.5-11.3,6.5-17.1c0.3-1.4,0.5-2.6,0.8-3.9c0.5-2.1,1.1-4.2,1.1-6.3c0-1.5,0.2-3.2,1.5-3.2
	h0.2l127.1-0.5h0.2c3.3-0.6,6.8,0,10.1-0.2H379c0.8-0.2,1.5-0.2,2.3,0.2c1.1,0.3,2,0.8,3,1.5c1.4,0.9,2.4,2.9,4.7,2.3
	c1.4-0.3,2.1,0.2,2.6,1.8c0.6,2.1,2.3,3.9,4.8,3.9s4.5-1.4,5.1-3.9c0.3-1.5,1.1-1.8,2.4-1.8c1.5-0.2,2,0.9,2.1,1.8
	c0.5,2.4,2.3,3.5,4.4,3.9c2.4,0.5,4.1-1.1,5.3-2.9c0.8-1.1,0.9-2.3,2.9-2.3c2-0.2,2,1.5,2.4,2.4c0.9,2,2.1,2.9,4.4,3
	c2.4,0.2,4.4-0.8,5-2.7c0.8-2.4,2.1-2.3,3.9-2.6c3.8-0.3,8.5,2,11-3c0.2-0.2,0.6-0.2,0.8-0.5c0.5-0.8,1.8,0.2,2.1-1.1
	c0.6-3.6,3.2-6,5.7-8.5c0.5-0.5,0.8-0.9,0.8-1.7c-0.2-3.9,0.9-8.1-3.3-10.9c-1.4-0.9-2-2.7-2.6-4.2c-1.1-2.9-5.3-3-5.4-6.6
	c0-0.2-1.7-0.2-2.4-0.2c-2.6,0.3-5,0.8-7.5,0.6c-1.4,0-2.3-0.3-2.4-1.8c-0.5-2.6-2.6-3.8-4.7-3.9c-2.4-0.2-4.4,1.5-5.3,3.8
	c-0.5,1.1-0.6,2-2.3,2c-1.5,0-2-0.8-2.6-1.8c-1.1-2.1-2.6-3.3-4.8-3.5c-2.6,0-3.9,1.7-5.1,3.6c-0.5,0.8-0.2,2.4-2,2.1
	c-1.7-0.2-2-1.1-2.4-2.3c-1.2-3.3-5-4.5-7.7-2.4c-2.3,1.8-3.3,4.4-6.9,5.6c-2.6,0.8-4.8,2.1-7.5,2.4c-0.8,0.2-1.7,0.2-2.6,0.2
	c-0.6,0-1.1-0.2-1.7-0.2c-5.6-0.3-11.2-0.2-16.9,0c-2.1,0-4.1,0.2-6.2,0.2h-23.1c-4.4,0-8.8-0.2-13.1-0.2L230.6,70h-0.2
	c-1.5,0-1.4-1.7-1.5-2.7c-0.5-2-0.5-3.9-0.6-5.9c-0.8-0.9-0.9-2.1-0.6-3.2c-0.3-0.3-0.6-0.6-0.6-1.1c-2.3-9.2-5.7-17.8-11.9-25.4
	c-6.9-8.5-15.8-12.7-26.6-13.3c-12.4-0.8-23.8,3.2-35,8.1c-1.1,0.5-2.1,0.8-3.3,1.2c-4.8,1.8-9.5,3.2-14.8,2.3
	c-4.2-0.8-7.4-3.3-10.7-5.4c-11.2-7.5-22.5-14.9-35.5-19.3C77.9,1.5,66.1-1.2,53.9,0.6C42.3,2.4,32.8,7.2,24.4,15.5
	C14.9,24.6,0,37.1,0,84.5 M426.5,96.6v-6.6C429.8,92.5,429.7,94.9,426.5,96.6 M426.2,75.3c-0.2-0.9,0-2,0-3.3
	c1.5,0.8,2.4,1.5,2.6,2.7c0.2,1.5,0.3,3.5-1.5,3.6C425.6,78.3,426.4,76.3,426.2,75.3 M415.5,72.1c2.1,0.2,4.2-0.3,6.3-0.6
	c1.5-0.2,2.1,0.5,2,2c-0.2,0.9-0.2,2,0,2.9c0.3,1.8-0.5,2.4-2.3,2.3c-1.8,0-3.8,0.3-5.6,0.6c-3,0.5-4.5-0.5-3.6-3.6
	C411.4,72.7,412.8,72,415.5,72.1 M412.2,90.5c0.3-1.1,0.9-0.9,1.7-0.9h5.7c4.2,0,4.2,0,4.2,4.2c0,2.9,0,2.9-5.7,2.9h-1.2
	C412.2,96.7,411,94.9,412.2,90.5 M398,73.6c0-0.8,0.6-0.8,1.2-0.8c2.1,0.2,4.2-0.3,6.3-0.6c1.1-0.2,3-0.9,3.3,0.6
	c0.5,2,0.8,5-0.2,5.7c-1.5,1.4-4.2,1.4-7.1,1.1c-0.8-0.2-2.9,0.9-3.3-0.5C397.5,77.7,398,75.6,398,73.6 M398,89.9
	c0.2-0.8,0.6-0.9,1.4-0.9c3-0.3,5.9,0.8,8.8,0.6c0.8,0,0.8,0.5,0.9,1.1c0.9,4.2,0.2,5.3-4.2,5.3h-2.3C398.1,96,396.8,94.3,398,89.9
	 M394.2,95.7c-1.8,1.1-4.7,0.9-6.9-0.5c-1.2-0.8-1.7-2.3-1.4-3.5c0.6-2.4,2.6-3.2,5-2.7h0.5c0.9,0.6,2.9-1.1,3.2,1.1
	C395,91.9,395.7,94.8,394.2,95.7 M392.1,72.7c4.2-0.3,2.4,2.6,2.7,4.4c0.8,3.5-1.7,2.9-3.9,2.7c-2.7,0.6-4.7-0.6-5.1-3.5
	C385.5,74.1,387.9,73,392.1,72.7 M184.3,69.7l0.5,0.5c1.1,9.5,0.6,19,0.2,28.5V99c0,0-0.2,0-0.3,0.2c-0.2,0-0.8-0.2-1.4-0.3
	C183.2,89.6,184.1,78.9,184.3,69.7 M158.6,60.8c9.7-2.4,18,0.2,24.4,7.4c-1.4-0.2-3,0.3-4.1-0.6c-5.4-4.4-11.5-6.8-18.6-5
	c-11.9,2.9-20.2,13.7-16.9,27.3c2.1,8.6,7.8,13.7,16,16c7.4,2,14.5,0.3,20.2-5.4c0.8-0.8,1.5-1.2,2.4-1.4c-3.5,5.4-7.5,8.8-13.7,9.5
	c-12.8,1.4-23.1-5.3-26.9-17.4C137,78.1,144.9,64.3,158.6,60.8 M178.1,84.3c0,3.5-0.2,7.1,0,10.6c0.2,2.7-1.1,4.2-3,5.4
	c-10.9,6.2-25.2,2.7-28.8-11.6c-3-11.6,5.7-22.6,17.4-22.9c4.8-0.2,9.1,0.8,12.8,3.9c1.2,1.1,1.8,2.1,1.7,3.8V84.3z M65,125.2V42.8
	c4.5-1.2,8.9-1.2,13.3,0c0,27.2,0,54.5,0.2,81.8c0,1.8-0.5,2.4-2.3,2.3c-3.5-0.2-7.1-0.2-10.6-0.2C64.6,126.4,65,125.7,65,125.2"/>
<path class="st2" d="M371.2,75.6v16.5c0,0.2,0,0.4-0.1,0.5c-0.1,0.2-0.2,0.4-0.4,0.4s-0.3-0.2-0.4-0.4s-0.1-0.3-0.1-0.5V75.6
	c0-0.2,0-0.4,0.1-0.5c0.1-0.2,0.2-0.4,0.4-0.4s0.3,0.2,0.4,0.4C371.2,75.2,371.2,75.4,371.2,75.6 M350.4,75.9V92
	c0,0.2,0,0.4-0.1,0.5c-0.1,0.2-0.3,0.4-0.4,0.4c-0.2,0-0.3-0.2-0.4-0.4c-0.1-0.1-0.1-0.3-0.1-0.5V75.9c0-0.2,0-0.4,0.1-0.5
	c0.1-0.2,0.3-0.4,0.4-0.4c0.2,0,0.3,0.2,0.4,0.4C350.3,75.5,350.4,75.7,350.4,75.9 M361.4,75.7v16.2c0,0.2,0,0.4-0.1,0.5
	c-0.1,0.2-0.2,0.4-0.4,0.4s-0.3-0.2-0.4-0.4c-0.1-0.1-0.1-0.3-0.1-0.5V75.7c0-0.2,0-0.4,0.1-0.5c0.1-0.2,0.2-0.4,0.4-0.4
	s0.3,0.2,0.4,0.4C361.4,75.3,361.4,75.5,361.4,75.7 M398.9,75.5v16.8c0,0.2,0,0.4-0.1,0.5c-0.1,0.2-0.2,0.4-0.4,0.4S398,93,398,92.8
	c-0.1-0.2-0.1-0.3-0.1-0.5V75.5c0-0.2,0-0.4,0.1-0.5c0.1-0.2,0.2-0.4,0.4-0.4s0.4,0.2,0.4,0.4C398.9,75.1,398.9,75.3,398.9,75.5
	 M390.2,75.6v16.6c0,0.2,0,0.4-0.1,0.5c-0.1,0.2-0.3,0.4-0.4,0.4c-0.2,0-0.3-0.2-0.4-0.4s-0.1-0.3-0.1-0.5V75.6c0-0.2,0-0.4,0.1-0.5
	c0.1-0.2,0.3-0.4,0.4-0.4c0.2,0,0.3,0.2,0.4,0.4C390.2,75.2,390.2,75.4,390.2,75.6 M381.1,75.6v16.6c0,0.2,0,0.4-0.1,0.5
	c-0.1,0.2-0.3,0.4-0.4,0.4c-0.2,0-0.3-0.2-0.4-0.4s-0.1-0.3-0.1-0.5V75.6c0-0.2,0-0.4,0.1-0.5c0.1-0.2,0.3-0.4,0.4-0.4
	c0.2,0,0.3,0.2,0.4,0.4C381.1,75.2,381.1,75.4,381.1,75.6"/>
<path d="M421.3,74.7C421.3,74.7,421.2,74.7,421.3,74.7C421.2,74.8,421.3,74.8,421.3,74.7C421.3,74.8,421.4,74.8,421.3,74.7
	C421.4,74.7,421.3,74.7,421.3,74.7"/>
<path class="st2" d="M421.3,74.7C421.3,74.7,421.2,74.7,421.3,74.7C421.2,74.8,421.3,74.8,421.3,74.7
	C421.3,74.8,421.4,74.8,421.3,74.7C421.4,74.7,421.3,74.7,421.3,74.7 M457.6,75c0.1,0.2,0.1,0.3,0.1,0.5v16.6c0,0.2,0,0.4-0.1,0.5
	c-0.1,0.2-0.2,0.4-0.4,0.4s-0.3-0.2-0.4-0.4s-0.1-0.3-0.1-0.5V75.6c0-0.2,0-0.4,0.1-0.5c0.1-0.2,0.2-0.4,0.4-0.4
	C457.3,74.6,457.5,74.8,457.6,75 M467,75.6v16.6c0,0.2,0,0.4-0.1,0.5c-0.1,0.2-0.2,0.4-0.4,0.4s-0.3-0.2-0.4-0.4s-0.1-0.3-0.1-0.5
	V75.6c0-0.2,0-0.4,0.1-0.5c0.1-0.2,0.2-0.4,0.4-0.4s0.3,0.2,0.4,0.4C466.9,75.2,467,75.4,467,75.6 M462.2,75
	c0.1,0.2,0.1,0.3,0.1,0.5v16.6c0,0.2,0,0.4-0.1,0.5c-0.1,0.2-0.2,0.4-0.4,0.4c-0.3,0-0.5-0.4-0.5-0.9V75.6c0-0.5,0.2-0.9,0.5-0.9
	C462,74.6,462.1,74.8,462.2,75 M452.4,75c0.1,0.2,0.1,0.3,0.1,0.5v16.6c0,0.2,0,0.4-0.1,0.5c-0.1,0.2-0.2,0.4-0.4,0.4
	s-0.3-0.2-0.4-0.4s-0.1-0.3-0.1-0.5V75.6c0-0.2,0-0.4,0.1-0.5c0.1-0.2,0.2-0.4,0.4-0.4C452.1,74.6,452.3,74.8,452.4,75 M406.7,74.9
	c0.1,0.2,0.1,0.3,0.1,0.5v16.9c0,0.2,0,0.4-0.1,0.5c-0.1,0.2-0.3,0.4-0.4,0.4c-0.2,0-0.3-0.2-0.4-0.4s-0.1-0.3-0.1-0.5V75.5
	c0-0.2,0-0.4,0.1-0.5c0.1-0.2,0.3-0.4,0.4-0.4C406.5,74.5,406.6,74.7,406.7,74.9 M414.5,74.9c0.1,0.2,0.1,0.3,0.1,0.5v16.9
	c0,0.2,0,0.4-0.1,0.5c-0.1,0.2-0.2,0.4-0.4,0.4s-0.3-0.2-0.4-0.4s-0.1-0.3-0.1-0.5V75.5c0-0.2,0-0.4,0.1-0.5
	c0.1-0.2,0.2-0.4,0.4-0.4C414.2,74.5,414.4,74.7,414.5,74.9"/>
<path class="st2" d="M421.3,74.5c-0.2,0-0.4,0.2-0.4,0.4c-0.1,0.2-0.1,0.3-0.1,0.5v16.9c0,0.2,0,0.4,0.1,0.5
	c0.1,0.2,0.2,0.4,0.4,0.4s0.4-0.2,0.4-0.4c0.1-0.2,0.1-0.3,0.1-0.5V75.4c0-0.2,0-0.4-0.1-0.5C421.7,74.6,421.5,74.5,421.3,74.5
	 M428.4,74.9c0.1,0.2,0.1,0.3,0.1,0.5v16.9c0,0.2,0,0.4-0.1,0.5c-0.1,0.2-0.2,0.4-0.4,0.4s-0.3-0.2-0.4-0.4s-0.1-0.3-0.1-0.5V75.4
	c0-0.2,0-0.4,0.1-0.5c0.1-0.2,0.2-0.4,0.4-0.4S428.4,74.6,428.4,74.9 M435.1,74.9c0.1,0.2,0.1,0.3,0.1,0.5v17c0,0.2,0,0.4-0.1,0.5
	c-0.1,0.2-0.2,0.4-0.4,0.4s-0.3-0.2-0.4-0.4s-0.1-0.3-0.1-0.5v-17c0-0.2,0-0.4,0.1-0.5c0.1-0.2,0.2-0.4,0.4-0.4
	S435.1,74.6,435.1,74.9 M441.1,75c0.1,0.1,0.1,0.3,0.1,0.4v16.9c0,0.2,0,0.3-0.1,0.4v0.1c-0.1,0.2-0.3,0.4-0.4,0.4
	c-0.2,0-0.3-0.2-0.4-0.4s-0.1-0.3-0.1-0.5V75.5c0-0.2,0-0.4,0.1-0.5c0.1-0.2,0.3-0.4,0.4-0.4C440.8,74.5,441,74.7,441.1,75
	 M446.6,75c0.1,0.2,0.1,0.3,0.1,0.5v16.6c0,0.2,0,0.4-0.1,0.5c-0.1,0.2-0.2,0.4-0.4,0.4c-0.3,0-0.5-0.4-0.5-0.9V75.6
	c0-0.5,0.2-0.9,0.5-0.9C446.3,74.6,446.5,74.8,446.6,75 M471.4,75.6v16.6c0,0.2,0,0.4-0.1,0.5c-0.1,0.2-0.2,0.4-0.4,0.4
	s-0.3-0.2-0.4-0.4s-0.1-0.3-0.1-0.5V75.6c0-0.2,0-0.4,0.1-0.5c0.1-0.2,0.2-0.4,0.4-0.4s0.3,0.2,0.4,0.4
	C471.3,75.2,471.4,75.4,471.4,75.6"/>
<g id="sword_00000072996792360738804780000017761655850839946172_">
	<g id="hilt_00000087389039134688812210000000023336087938474635_">
		<path class="st1" d="M474.7-32.5v-42.9c0-5.2-4.2-9.5-9.4-9.5h-9.1c-5.2,0-9.4,4.2-9.4,9.5l-12.4,10h-0.8v22.9h0.8l12.4,10
			c0,5.2,4.2,9.5,9.4,9.5h9.1C470.5-23,474.7-27.2,474.7-32.5"/>
		<path class="st1" d="M475.7-75.4v42.9c0,5.8-4.7,10.5-10.4,10.5h-9.1c-5.6,0-10.1-4.4-10.4-10l-11.7-9.5h-1.4v-24.9h1.4l11.7-9.5
			c0.3-5.6,4.8-10,10.4-10h9.1C471-85.9,475.7-81.2,475.7-75.4 M434.7-43.5h0.1l13,10.6v0.5c0,4.7,3.7,8.5,8.3,8.5h9.1
			c4.6,0,8.4-3.8,8.4-8.5v-42.9c0-4.7-3.8-8.5-8.4-8.5h-9.1c-4.6,0-8.3,3.8-8.3,8.5v0.5l-13,10.6h-0.1V-43.5z"/>
	</g>
	<g id="handle_00000088830127943355793950000010521811085592621452_">
		<path class="st1" d="M433.7-42.5v-22.9H318.2c-1.6-10.4-5.2-17.7-9.5-17.7c-4.2,0-7.9,7.3-9.5,17.7c-1.1,7.6-1.1,15.2,0,22.8
			c1.6,10.4,5.2,17.7,9.5,17.7s7.9-7.3,9.5-17.7L433.7-42.5z"/>
		<path class="st1" d="M319.1-66.4h115.6v24.9H319.1c-1.8,10.9-5.7,17.7-10.3,17.7c-4.7,0-8.7-7.1-10.5-18.5
			c-0.6-3.6-0.8-7.5-0.8-11.6s0.3-8,0.8-11.6C300-76.9,304-84,308.8-84C313.4-84.1,317.3-77.3,319.1-66.4 M317.2-42.7l0.1-0.9h115.4
			v-20.9H317.4l-0.1-0.9c-1.5-9.9-5-16.8-8.5-16.8s-7,6.9-8.5,16.8c-1.1,7.5-1.1,15.1,0,22.6c1.5,9.9,5,16.8,8.5,16.8
			C312.3-25.9,315.8-32.8,317.2-42.7"/>
	</g>
	<g id="wick_00000148658114060098149490000004258179906355889281_">
		<path class="st1" d="M298.5-54c0-4.1,0.3-7.9,0.8-11.4H33.4c-3.2,0-6,1.3-8.1,3.3C23.2-60,22-57.2,22-54c0,6.3,5.1,11.4,11.4,11.4
			h265.9C298.8-46,298.5-49.9,298.5-54"/>
		<path class="st1" d="M300.3-65.2c-1.1,7.5-1.1,15.1,0,22.6l0.2,1.2h-267c-6.9,0-12.4-5.6-12.4-12.4c0-3.3,1.3-6.4,3.6-8.8
			s5.5-3.6,8.8-3.6h267L300.3-65.2z M298.1-43.5c-0.4-3.3-0.7-6.8-0.7-10.4s0.2-7.1,0.7-10.4H33.4c-2.8,0-5.4,1.1-7.4,3.1
			s-3.1,4.6-3.1,7.4c0,5.7,4.7,10.4,10.4,10.4L298.1-43.5z"/>
	</g>
</g>
</svg>
