<?xml version='1.0' encoding='utf-8'?><svg xmlns="http://www.w3.org/2000/svg" data-name="Layer 1" viewBox="0 0 300 400"><path fill="#2e3192" d="M 44.68 178.36 h 13.48 V 50.8 a 22.44 22.44 0 1 1 44.8 -0.04 v 127.6 h 13.28 V 22.88 A 22 22 0 0 1 138.64 0 a 22.2 22.2 0 0 1 22.32 23.08 v 155.24 h 13.28 V 54.24 c 0 -11.96 7.8 -20.76 19.88 -22.56 12.32 -1.8 24.72 8.4 24.76 20.6 q 0.08 22.92 0 45.84 v 152.52 c 0 3.16 0.64 5.88 3.76 7.48 3.4 1.76 6.92 0.6 9.08 -3.08 l 25.64 -43.48 c 6.56 -11.16 17.68 -14.92 29.72 -9.92 12.16 5.04 16.6 18.92 9.64 30.8 L 261.2 292.76 c -8.68 14.72 -17.16 29.6 -26.2 44.12 a 72 72 0 0 1 -11.24 13.08 184 184 0 0 1 -59.04 39.48 c -20.04 8.12 -40.92 12.12 -62.52 10.04 -39.4 -3.76 -68.4 -23.12 -86.84 -57.4 A 128 128 0 0 1 1.04 292 a 304 304 0 0 1 -1 -24.92 L 0 100.32 a 22.4 22.4 0 0 1 22.96 -22.8 22 22 0 0 1 21.68 21.64 z"/></svg>