<?xml version="1.0" encoding="utf-8"?>
<!-- Generator: Adobe Illustrator 27.1.0, SVG Export Plug-In . SVG Version: 6.00 Build 0)  -->
<svg version="1.1" id="Layer_1" xmlns="http://www.w3.org/2000/svg" xmlns:xlink="http://www.w3.org/1999/xlink" x="0px" y="0px"
	 viewBox="0 0 300.9 161.1" style="enable-background:new 0 0 300.9 161.1;" xml:space="preserve">
<style type="text/css">
	.st0{fill:#2E3192;}
	.st1{fill:none;}
	.st2{fill:#C9AC68;}
</style>
<g>
	<path class="st0" d="M220.3,160.2c44,0,79.7-35.7,79.7-79.6c0-44-35.7-79.7-79.7-79.7c-43.9,0-79.6,35.7-79.6,79.7
		C140.7,124.5,176.4,160.2,220.3,160.2z M220.3,19.4c33.7,0,61.1,27.2,61.1,60.9s-27.2,61.1-60.9,61.1s-61.1-27.2-61.1-60.9l0,0
		C159.3,46.9,186.7,19.6,220.3,19.4z"/>
	<path class="st1" d="M79.7,1.2C35.7,1.2,0,36.9,0,80.8c0,44,35.7,79.7,79.7,79.7c43.9,0,79.6-35.7,79.6-79.7
		C159.3,36.9,123.6,1.2,79.7,1.2 M79.7,141.9c-33.7,0-61.1-27.2-61.1-60.9s27.2-61.1,60.9-61.1s61.1,27.2,61.1,60.9l0,0
		C140.7,114.6,113.3,141.9,79.7,141.9"/>
	<path class="st2" d="M155.3,105.5v-3.2H185c2.6,0,4.4-1.4,5.3-3.6c1.1-3.5-1.5-6.8-5.1-6.8h-29.8v-3h36.2c3,0,5.3-2.2,5.3-5.3
		s-2.3-5.3-5.4-5.3h-36.2v-3.2h28.8c2.8,0,4.9-1.8,5.3-4.7c0.5-2.9-2-5.7-4.9-5.7h-46.2c-0.7,0-1.4-0.2-1.8-0.8
		c-0.4-0.8-0.1-1.6,0.7-2.1c3.4-2,6.7-4,10.2-6c2.6-1.5,3.5-4.1,2.3-6.9c-1.2-2.8-4.4-3.9-7.1-2.2c-4.7,2.7-9.5,5.5-14.1,8.3
		c-3.5,2.1-6.9,4-10.3,6.1c-1.2,0.7-2.1,1.6-3,2.6c-4,4-7.1,8.5-9.2,13.8c-1.9,4.7-2.8,9.5-2.3,14.6c0.8,9.1,5.4,15.9,13.4,20.2
		c3.6,2,7.6,3,11.7,3.4c2,0.2,4,0.2,5.7,0.2h38.9c3,0,5.4-2.3,5.3-5.3c-0.1-2.8-2.3-5-5-5L155.3,105.5z"/>
</g>
</svg>
