<?xml version="1.0" encoding="utf-8"?><svg xmlns="http://www.w3.org/2000/svg" viewBox="0 0 300 159.85" xml:space="preserve"><path d="M 220.02 159.5 c 43.96 0 79.63 -35.68 79.63 -79.52 C 299.65 36.03 263.97 0.35 220.02 0.35 c -43.84 0 -79.52 35.68 -79.52 79.63 0 43.84 35.68 79.52 79.52 79.52 zm 0 -140.61 a 60.93 60.93 0 1 1 -60.86 60.98 c 0 -33.58 27.28 -60.86 60.86 -60.98 z" style="fill:#2e3192;stroke:#fff;stroke-width:2.04;stroke-miterlimit:10"/><path d="M 79.63 0.7 C 35.68 0.7 0 36.38 0 80.22 c 0 43.96 35.68 79.63 79.63 79.63 43.84 0 79.52 -35.68 79.52 -79.63 C 159.15 36.38 123.47 0.7 79.63 0.7 m 0 140.5 a 60.93 60.93 0 1 1 60.86 -60.98 c 0 33.7 -27.28 60.98 -60.86 60.98" style="fill:none"/><path d="M 156.35 111 v -3.96 H 193.55 c 3.15 0 5.6 -1.75 6.53 -4.55 1.28 -4.31 -1.87 -8.51 -6.41 -8.51 h -37.19 v -3.85 h 45.36 c 3.85 0 6.65 -2.8 6.65 -6.53 s -2.91 -6.53 -6.76 -6.53 h -45.36 v -3.85 h 36.14 c 3.5 0 6.06 -2.22 6.53 -5.83 0.58 -3.61 -2.45 -7.23 -6.06 -7.23 h -57.83 c -0.93 0 -1.75 -0.23 -2.22 -1.05 -0.47 -1.05 -0.12 -1.98 0.93 -2.68 4.2 -2.45 8.39 -5.01 12.71 -7.46 3.26 -1.87 4.31 -5.13 2.91 -8.63 -1.52 -3.5 -5.48 -4.78 -8.98 -2.8 -5.83 3.38 -11.78 6.88 -17.61 10.38 -4.31 2.57 -8.63 5.01 -12.83 7.58 -1.4 0.82 -2.68 2.1 -3.85 3.26 -4.9 5.01 -8.86 10.61 -11.54 17.26 -2.33 5.83 -3.5 11.89 -2.91 18.19 1.05 11.43 6.76 19.94 16.79 25.3 4.55 2.45 9.44 3.73 14.57 4.2 2.45 0.23 4.9 0.23 7.23 0.23 h 48.62 c 3.85 0 6.76 -2.91 6.65 -6.65 -0.12 -3.5 -2.91 -6.3 -6.3 -6.3 z" style="fill:#c9ac68"/></svg>