<?xml version="1.0" encoding="utf-8"?><svg xmlns="http://www.w3.org/2000/svg" viewBox="0 0 300 300" xml:space="preserve"><path d="M 275.64 125.76 c -6 0 -14.16 -0.6 -14.16 5.16 v 7.2 H 162 V 38.64 h 7.2 c 5.76 0 5.16 -8.28 5.16 -14.28 S 174.84 0 169.08 0 h -38.16 c -5.76 0 -5.16 18.36 -5.16 24.36 s -0.6 14.28 5.16 14.28 h 7.2 v 99.48 H 38.64 v -7.2 c 0 -5.76 -8.16 -5.16 -14.16 -5.16 S 0 125.16 0 130.92 v 38.16 c 0 5.76 18.48 5.16 24.48 5.16 s 14.16 0.6 14.16 -5.16 v -7.2 h 99.48 v 99.48 h -7.2 c -5.76 0 -5.16 8.16 -5.16 14.16 s -0.6 24.48 5.16 24.48 h 38.16 c 5.76 0 5.16 -18.48 5.16 -24.48 s 0.6 -14.16 -5.16 -14.16 h -7.2 v -99.48 h 99.48 v 7.2 c 0 5.76 8.16 5.16 14.16 5.16 s 24.36 0.6 24.36 -5.16 v -38.16 c 0.12 -5.76 -18.24 -5.16 -24.24 -5.16 M 150 158.64 c -4.8 0 -8.64 -3.84 -8.64 -8.64 s 3.84 -8.64 8.64 -8.64 8.64 3.84 8.64 8.64 -3.84 8.64 -8.64 8.64" style="fill:#2e3191"/></svg>