<?xml version="1.0" encoding="utf-8"?><svg version="1.1" id="Layer_1" xmlns="http://www.w3.org/2000/svg" x="0" y="0" viewBox="0 0 300 33.55" xml:space="preserve"><style>.st0{fill:#989498}.st2{fill:none}</style><g id="sword"><g id="hilt"><path class="st0" d="M 62.22 5.5 v 22.49 c 0 2.73 2.2 4.98 4.93 4.98 h 4.77 c 2.73 0 4.93 -2.2 4.93 -4.98 l 6.5 -5.24 h 0.42 V 10.75 h -0.42 l -6.5 -5.24 c 0 -2.73 -2.2 -4.98 -4.93 -4.98 h -4.77 c -2.73 0 -4.93 2.2 -4.93 4.98"/><path d="M 61.7 27.99 V 5.5 c 0 -3.04 2.46 -5.5 5.45 -5.5 h 4.77 c 2.94 0 5.29 2.31 5.45 5.24 l 6.13 4.98 h 0.73 v 13.05 h -0.73 l -6.13 4.98 c -0.16 2.94 -2.52 5.24 -5.45 5.24 h -4.77 c -2.99 0 -5.45 -2.46 -5.45 -5.5 m 21.49 -16.72 h -0.05 l -6.81 -5.56 v -0.26 c 0 -2.46 -1.94 -4.46 -4.35 -4.46 h -4.77 c -2.41 0 -4.4 1.99 -4.4 4.46 v 22.49 c 0 2.46 1.99 4.46 4.4 4.46 h 4.77 c 2.41 0 4.35 -1.99 4.35 -4.46 v -0.26 l 6.81 -5.56 h 0.05 z"/></g><g id="handle"><path class="st0" d="M 83.71 10.75 v 12 h 60.55 c 0.84 5.45 2.73 9.28 4.98 9.28 2.2 0 4.14 -3.83 4.98 -9.28 a 42.98 42.98 0 0 0 0 -11.95 c -0.84 -5.45 -2.73 -9.28 -4.98 -9.28 s -4.14 3.83 -4.98 9.28 H 83.71 z"/><path d="M 143.79 23.27 H 83.19 V 10.22 h 60.6 c 0.94 -5.71 2.99 -9.28 5.4 -9.28 2.46 0 4.56 3.72 5.5 9.7 0.31 1.89 0.42 3.93 0.42 6.08 s -0.16 4.19 -0.42 6.08 c -0.89 5.98 -2.99 9.7 -5.5 9.7 -2.41 0.05 -4.46 -3.51 -5.4 -9.23 m 1 -12.42 -0.05 0.47 H 84.24 v 10.96 H 144.68 l 0.05 0.47 c 0.79 5.19 2.62 8.81 4.46 8.81 s 3.67 -3.62 4.46 -8.81 a 41.94 41.94 0 0 0 0 -11.85 c -0.79 -5.19 -2.62 -8.81 -4.46 -8.81 -1.83 -0.05 -3.67 3.56 -4.4 8.75"/></g><g id="wick"><path d="M 154.59 16.77 c 0 2.15 -0.16 4.14 -0.42 5.98 H 293.55 c 1.68 0 3.15 -0.68 4.25 -1.73 1.1 -1.1 1.73 -2.57 1.73 -4.25 0 -3.3 -2.67 -5.98 -5.98 -5.98 H 154.17 c 0.26 1.78 0.42 3.83 0.42 5.98" style="fill:#ffd540"/><path d="M 153.64 22.65 a 41.94 41.94 0 0 0 0 -11.85 l -0.1 -0.63 h 139.96 c 3.62 0 6.5 2.94 6.5 6.5 0 1.73 -0.68 3.35 -1.89 4.61 s -2.88 1.89 -4.61 1.89 h -139.96 zm 1.15 -11.38 c 0.21 1.73 0.37 3.56 0.37 5.45 s -0.1 3.72 -0.37 5.45 H 293.55 c 1.47 0 2.83 -0.58 3.88 -1.63 s 1.63 -2.41 1.63 -3.88 c 0 -2.99 -2.46 -5.45 -5.45 -5.45 z"/></g></g><g id="sword_00000072996792360738804780000017761655850839946172_"><g id="hilt_00000087389039134688812210000000023336087938474635_"><path class="st2" d="M 237.78 28.04 V 5.56 c 0 -2.73 -2.2 -4.98 -4.93 -4.98 h -4.77 c -2.73 0 -4.93 2.2 -4.93 4.98 l -6.5 5.24 h -0.42 v 12 h 0.42 l 6.5 5.24 c 0 2.73 2.2 4.98 4.93 4.98 h 4.77 c 2.73 0 4.93 -2.2 4.93 -4.98"/><path class="st2" d="M 238.3 5.56 v 22.49 c 0 3.04 -2.46 5.5 -5.45 5.5 h -4.77 c -2.94 0 -5.29 -2.31 -5.45 -5.24 L 216.49 23.33 h -0.73 V 10.27 h 0.73 l 6.13 -4.98 c 0.16 -2.94 2.52 -5.24 5.45 -5.24 h 4.77 c 2.99 0 5.45 2.46 5.45 5.5 m -21.49 16.72 h 0.05 l 6.81 5.56 v 0.26 c 0 2.46 1.94 4.46 4.35 4.46 h 4.77 c 2.41 0 4.4 -1.99 4.4 -4.46 V 5.61 c 0 -2.46 -1.99 -4.46 -4.4 -4.46 H 228.03 c -2.41 0 -4.35 1.99 -4.35 4.46 v 0.26 l -6.81 5.56 h -0.05 z"/></g><g id="handle_00000088830127943355793950000010521811085592621452_"><path class="st2" d="M 216.29 22.8 V 10.8 H 155.74 c -0.84 -5.45 -2.73 -9.28 -4.98 -9.28 -2.2 0 -4.14 3.83 -4.98 9.28 a 42.98 42.98 0 0 0 0 11.95 c 0.84 5.45 2.73 9.28 4.98 9.28 s 4.14 -3.83 4.98 -9.28 z"/><path class="st2" d="M 156.21 10.27 h 60.6 v 13.05 H 156.21 c -0.94 5.71 -2.99 9.28 -5.4 9.28 -2.46 0 -4.56 -3.72 -5.5 -9.7 -0.31 -1.89 -0.42 -3.93 -0.42 -6.08 s 0.16 -4.19 0.42 -6.08 C 146.2 4.77 148.3 1.05 150.81 1.05 c 2.41 -0.05 4.46 3.51 5.4 9.23 m -1 12.42 0.05 -0.47 h 60.49 V 11.27 H 155.32 l -0.05 -0.47 c -0.79 -5.19 -2.62 -8.81 -4.46 -8.81 s -3.67 3.62 -4.46 8.81 a 41.94 41.94 0 0 0 0 11.85 c 0.79 5.19 2.62 8.81 4.46 8.81 1.83 0.05 3.67 -3.56 4.4 -8.75"/></g><g id="wick_00000148658114060098149490000004258179906355889281_"><path class="st2" d="M 145.41 16.77 c 0 -2.15 0.16 -4.14 0.42 -5.98 H 6.45 c -1.68 0 -3.15 0.68 -4.25 1.73 C 1.1 13.63 0.47 15.1 0.47 16.77 c 0 3.3 2.67 5.98 5.98 5.98 h 139.38 c -0.26 -1.78 -0.42 -3.83 -0.42 -5.98"/><path class="st2" d="M 146.36 10.9 a 41.94 41.94 0 0 0 0 11.85 l 0.1 0.63 h -139.96 C 2.88 23.38 0 20.44 0 16.88 c 0 -1.73 0.68 -3.35 1.89 -4.61 s 2.88 -1.89 4.61 -1.89 h 139.96 zm 145.2 22.28 c -0.21 -1.73 -0.37 -3.56 -0.37 -5.45 s 0.1 -3.72 0.37 -5.45 H 6.45 c -1.47 0 -2.83 0.58 -3.88 1.63 s -1.63 2.41 -1.63 3.88 c 0 2.99 2.46 5.45 5.45 5.45 z"/></g></g></svg>