<?xml version="1.0" encoding="utf-8"?>
<!-- Generator: Adobe Illustrator 27.1.0, SVG Export Plug-In . SVG Version: 6.00 Build 0)  -->
<svg version="1.1" id="Layer_1" xmlns="http://www.w3.org/2000/svg" xmlns:xlink="http://www.w3.org/1999/xlink" x="0px" y="0px"
	 viewBox="0 0 578.8 64" style="enable-background:new 0 0 578.8 64;" xml:space="preserve">
<style type="text/css">
	.st0{fill:#989498;}
	.st1{fill:#FFD540;}
	.st2{fill:none;}
</style>
<g id="sword">
	<g id="hilt">
		<path class="st0" d="M125.2,10.5v42.9c0,5.2,4.2,9.5,9.4,9.5h9.1c5.2,0,9.4-4.2,9.4-9.5l12.4-10h0.8V20.5h-0.8l-12.4-10
			c0-5.2-4.2-9.5-9.4-9.5h-9.1C129.4,1,125.2,5.2,125.2,10.5"/>
		<path d="M124.2,53.4V10.5c0-5.8,4.7-10.5,10.4-10.5h9.1c5.6,0,10.1,4.4,10.4,10l11.7,9.5h1.4v24.9h-1.4l-11.7,9.5
			c-0.3,5.6-4.8,10-10.4,10h-9.1C128.9,63.9,124.2,59.2,124.2,53.4 M165.2,21.5h-0.1l-13-10.6v-0.5c0-4.7-3.7-8.5-8.3-8.5h-9.1
			c-4.6,0-8.4,3.8-8.4,8.5v42.9c0,4.7,3.8,8.5,8.4,8.5h9.1c4.6,0,8.3-3.8,8.3-8.5v-0.5l13-10.6h0.1V21.5z"/>
	</g>
	<g id="handle">
		<path class="st0" d="M166.2,20.5v22.9h115.5c1.6,10.4,5.2,17.7,9.5,17.7c4.2,0,7.9-7.3,9.5-17.7c1.1-7.6,1.1-15.2,0-22.8
			c-1.6-10.4-5.2-17.7-9.5-17.7s-7.9,7.3-9.5,17.7H166.2V20.5z"/>
		<path d="M280.8,44.4H165.2V19.5h115.6c1.8-10.9,5.7-17.7,10.3-17.7c4.7,0,8.7,7.1,10.5,18.5c0.6,3.6,0.8,7.5,0.8,11.6
			s-0.3,8-0.8,11.6c-1.7,11.4-5.7,18.5-10.5,18.5C286.5,62.1,282.6,55.3,280.8,44.4 M282.7,20.7l-0.1,0.9H167.2v20.9h115.3l0.1,0.9
			c1.5,9.9,5,16.8,8.5,16.8s7-6.9,8.5-16.8c1.1-7.5,1.1-15.1,0-22.6c-1.5-9.9-5-16.8-8.5-16.8C287.6,3.9,284.1,10.8,282.7,20.7"/>
	</g>
	<g id="wick">
		<path class="st1" d="M301.4,32c0,4.1-0.3,7.9-0.8,11.4h265.9c3.2,0,6-1.3,8.1-3.3c2.1-2.1,3.3-4.9,3.3-8.1
			c0-6.3-5.1-11.4-11.4-11.4H300.6C301.1,24,301.4,27.9,301.4,32"/>
		<path d="M299.6,43.2c1.1-7.5,1.1-15.1,0-22.6l-0.2-1.2h267c6.9,0,12.4,5.6,12.4,12.4c0,3.3-1.3,6.4-3.6,8.8s-5.5,3.6-8.8,3.6h-267
			L299.6,43.2z M301.8,21.5c0.4,3.3,0.7,6.8,0.7,10.4s-0.2,7.1-0.7,10.4h264.7c2.8,0,5.4-1.1,7.4-3.1s3.1-4.6,3.1-7.4
			c0-5.7-4.7-10.4-10.4-10.4L301.8,21.5z"/>
	</g>
</g>
<g id="sword_00000072996792360738804780000017761655850839946172_">
	<g id="hilt_00000087389039134688812210000000023336087938474635_">
		<path class="st2" d="M453.6,53.5V10.6c0-5.2-4.2-9.5-9.4-9.5h-9.1c-5.2,0-9.4,4.2-9.4,9.5l-12.4,10h-0.8v22.9h0.8l12.4,10
			c0,5.2,4.2,9.5,9.4,9.5h9.1C449.4,63,453.6,58.8,453.6,53.5"/>
		<path class="st2" d="M454.6,10.6v42.9c0,5.8-4.7,10.5-10.4,10.5h-9.1c-5.6,0-10.1-4.4-10.4-10L413,44.5h-1.4V19.6h1.4l11.7-9.5
			c0.3-5.6,4.8-10,10.4-10h9.1C449.9,0.1,454.6,4.8,454.6,10.6 M413.6,42.5h0.1l13,10.6v0.5c0,4.7,3.7,8.5,8.3,8.5h9.1
			c4.6,0,8.4-3.8,8.4-8.5V10.7c0-4.7-3.8-8.5-8.4-8.5H435c-4.6,0-8.3,3.8-8.3,8.5v0.5l-13,10.6h-0.1V42.5z"/>
	</g>
	<g id="handle_00000088830127943355793950000010521811085592621452_">
		<path class="st2" d="M412.6,43.5V20.6H297.1c-1.6-10.4-5.2-17.7-9.5-17.7c-4.2,0-7.9,7.3-9.5,17.7c-1.1,7.6-1.1,15.2,0,22.8
			c1.6,10.4,5.2,17.7,9.5,17.7s7.9-7.3,9.5-17.7L412.6,43.5z"/>
		<path class="st2" d="M298,19.6h115.6v24.9H298c-1.8,10.9-5.7,17.7-10.3,17.7c-4.7,0-8.7-7.1-10.5-18.5c-0.6-3.6-0.8-7.5-0.8-11.6
			s0.3-8,0.8-11.6C278.9,9.1,282.9,2,287.7,2C292.3,1.9,296.2,8.7,298,19.6 M296.1,43.3l0.1-0.9h115.4V21.5H296.3l-0.1-0.9
			c-1.5-9.9-5-16.8-8.5-16.8s-7,6.9-8.5,16.8c-1.1,7.5-1.1,15.1,0,22.6c1.5,9.9,5,16.8,8.5,16.8C291.2,60.1,294.7,53.2,296.1,43.3"
			/>
	</g>
	<g id="wick_00000148658114060098149490000004258179906355889281_">
		<path class="st2" d="M277.4,32c0-4.1,0.3-7.9,0.8-11.4H12.3c-3.2,0-6,1.3-8.1,3.3C2.1,26,0.9,28.8,0.9,32
			c0,6.3,5.1,11.4,11.4,11.4h265.9C277.7,40,277.4,36.1,277.4,32"/>
		<path class="st2" d="M279.2,20.8c-1.1,7.5-1.1,15.1,0,22.6l0.2,1.2h-267C5.5,44.6,0,39,0,32.2c0-3.3,1.3-6.4,3.6-8.8
			s5.5-3.6,8.8-3.6h267L279.2,20.8z M277,42.5c-0.4-3.3-0.7-6.8-0.7-10.4s0.2-7.1,0.7-10.4H12.3c-2.8,0-5.4,1.1-7.4,3.1
			s-3.1,4.6-3.1,7.4c0,5.7,4.7,10.4,10.4,10.4L277,42.5z"/>
	</g>
</g>
</svg>
