<?xml version='1.0' encoding='utf-8'?><svg xmlns="http://www.w3.org/2000/svg" viewBox="0 0 300 264.22"><path d="m 94.21 6.95 64.07 111.03 H 286.3 c 7.43 0 13.4 6.1 13.4 13.4 v 1.59 c 0 7.3 -5.97 13.4 -13.4 13.4 H 158.15 l -64.07 110.9 a 13.39 13.39 0 0 1 -18.17 4.91 l -1.46 -0.8 a 13.56 13.56 0 0 1 -4.91 -18.31 l 64.21 -111.03 -64.21 -110.9 a 13.69 13.69 0 0 1 4.91 -18.31 l 1.46 -0.8 a 13.56 13.56 0 0 1 18.31 4.91 Z" style="fill:#2e3192;stroke:#fff;stroke-width:3.32;stroke-miterlimit:10"/><path fill="none" d="m 13.45 117.85 128.2 0.02 64 -110.85 a 13.46 13.46 0 0 1 18.31 -4.91 l 1.37 0.8 a 13.45 13.45 0 0 1 4.91 18.31 l -64.07 110.97 64 110.94 c 3.73 6.28 1.39 14.58 -4.84 18.2 l -1.42 0.87 a 13.56 13.56 0 0 1 -18.31 -4.91 l -64.05 -111.12 -128.15 0.16 A 13.68 13.68 0 0 1 0 132.92 l 0.04 -1.66 c 0.08 -7.31 6.03 -13.36 13.4 -13.4 Z"/></svg>