<?xml version="1.0" encoding="UTF-8"?><svg data-name="Layer 1" xmlns="http://www.w3.org/2000/svg" viewBox="0 0 300 175.32"><path d="M 140.93 89.3 a 88.27 88.27 0 0 0 78.53 35.8 87.85 87.85 0 0 0 14.18 21.27 87.65 87.65 0 0 0 55.95 28.72 l 1.81 0.23 1.03 -1.66 0.11 -0.21 a 87.85 87.85 0 0 0 7.46 -35.55 86.82 86.82 0 0 0 -15.73 -50.23 87.85 87.85 0 0 0 15.73 -50.23 87.85 87.85 0 0 0 -7.46 -35.55 L 291.6 0 l -1.89 0.24 a 87.65 87.65 0 0 0 -56.07 28.72 87.85 87.85 0 0 0 -14.18 21.27 88.27 88.27 0 0 0 -78.54 35.81 l -1.16 1.62 zm 144.6 48.6 c 0 7.33 -1.06 14.53 -3.17 21.43 a 72.87 72.87 0 0 1 -48.22 -36.75 87.23 87.23 0 0 0 39.98 -22.96 l 0.41 -0.4 a 73.38 73.38 0 0 1 11 38.69 m -3.16 -121.96 a 73.38 73.38 0 0 1 3.16 21.39 72.97 72.97 0 0 1 -10.97 38.62 l -0.33 -0.34 a 86.41 86.41 0 0 0 -39.98 -22.96 73.38 73.38 0 0 1 48.11 -36.72 m -53.62 50.23 a 74.42 74.42 0 0 1 36.96 21.39 72.76 72.76 0 0 1 -36.95 21.39 c -2.11 -6.87 -3.17 -14.07 -3.17 -21.39 s 1.05 -14.46 3.16 -21.39 m -16.7 -1.55 q 0.7 0 1.4 0.05 l 0.79 0.03 c -2.06 7.58 -3.11 15.34 -3.11 23.07 s 1.05 15.5 3.12 23.11 q -1.14 0.05 -2.19 0.04 a 74.42 74.42 0 0 1 -53.65 -23.05 73.59 73.59 0 0 1 53.65 -23.26" style="fill:#2e3690"/><path d="m 160.24 87.67 -1.16 -1.62 A 88.27 88.27 0 0 0 80.55 50.23 a 87.85 87.85 0 0 0 -14.18 -21.27 A 87.65 87.65 0 0 0 10.29 0.24 L 8.4 0 l -0.94 1.88 A 87.85 87.85 0 0 0 0 37.44 a 87.85 87.85 0 0 0 15.73 50.23 A 86.82 86.82 0 0 0 0 137.9 a 87.85 87.85 0 0 0 7.46 35.55 l 0.11 0.21 1.03 1.66 1.81 -0.23 a 87.65 87.65 0 0 0 55.95 -28.72 87.85 87.85 0 0 0 14.18 -21.27 88.27 88.27 0 0 0 78.53 -35.8 zm 25.47 99.21 l 0.41 0.4 a 87.23 87.23 0 0 0 39.98 22.96 72.87 72.87 0 0 1 -48.22 36.75 A 73.38 73.38 0 0 1 14.47 137.9 a 73.38 73.38 0 0 1 11 -38.69 m 40.28 -46.55 a 86.41 86.41 0 0 0 -39.98 22.96 l -0.33 0.34 A 72.97 72.97 0 0 1 14.47 37.33 c 0 -7.32 1.06 -14.52 3.16 -21.39 a 73.38 73.38 0 0 1 48.11 36.72 M 74.42 87.56 c 0 7.33 -1.06 14.52 -3.17 21.39 a 72.76 72.76 0 0 1 -36.95 -21.39 74.42 74.42 0 0 1 36.96 -21.39 A 73.38 73.38 0 0 1 74.42 87.56 m 67.19 0.31 a 74.42 74.42 0 0 1 -53.65 23.05 q -1.05 0.01 -2.19 -0.04 c 2.07 -7.61 3.12 -15.37 3.12 -23.11 s -1.05 -15.49 -3.11 -23.07 l 0.79 -0.03 q 0.69 -0.05 1.4 -0.05 a 73.59 73.59 0 0 1 53.65 23.26" style="fill:none"/></svg>