<?xml version="1.0" encoding="utf-8"?><svg xmlns="http://www.w3.org/2000/svg" viewBox="0 0 300 175.27" xml:space="preserve"><path d="M 298.76 85.98 a 88.25 88.25 0 0 0 -78.54 -35.76 C 216.6 42.37 211.85 35.24 206.06 28.94 A 87.22 87.22 0 0 0 150.16 0.21 l -1.76 -0.21 -1.03 1.65 -0.1 0.21 a 87.84 87.84 0 0 0 -7.44 35.55 c 0 18.19 5.37 35.55 15.71 50.22 a 87.12 87.12 0 0 0 -15.71 50.22 c 0 12.3 2.48 24.29 7.44 35.55 l 0.93 1.86 1.86 -0.21 a 87.22 87.22 0 0 0 56.01 -28.73 87.84 87.84 0 0 0 14.16 -21.29 88.05 88.05 0 0 0 78.54 -35.76 l 1.14 -1.65 zm -144.57 -48.57 c 0 -7.34 1.03 -14.57 3.2 -21.39 20.77 4.75 38.24 18.08 48.26 36.79 a 87.84 87.84 0 0 0 -39.99 22.94 l -0.41 0.41 c -7.23 -11.57 -11.06 -25.01 -11.06 -38.75 zm 3.2 121.94 a 73.58 73.58 0 0 1 7.75 -60.04 l 0.31 0.31 a 86.19 86.19 0 0 0 39.99 22.94 73.37 73.37 0 0 1 -48.05 36.79 zm 53.63 -50.22 a 74.41 74.41 0 0 1 -37 -21.39 c 10.02 -10.75 22.74 -18.08 37 -21.39 2.07 6.92 3.2 14.05 3.2 21.39 -0.1 7.34 -1.14 14.47 -3.2 21.39 zm 16.64 1.55 h -2.17 c 2.07 -7.54 3.1 -15.29 3.1 -23.05 s -1.03 -15.5 -3.1 -23.15 h 2.17 c 20.15 0 39.68 8.37 53.63 23.05 a 73.68 73.68 0 0 1 -53.63 23.15 z" style="fill:#2e3192"/><path d="m 0 87.63 1.14 1.65 a 88.25 88.25 0 0 0 78.54 35.76 c 3.72 7.75 8.47 14.98 14.16 21.29 14.47 16.22 34.41 26.46 56.01 28.73 l 1.86 0.21 0.93 -1.86 a 87.84 87.84 0 0 0 7.44 -35.55 c 0 -18.08 -5.48 -35.45 -15.71 -50.22 10.33 -14.67 15.71 -32.04 15.71 -50.22 0 -12.30 -2.48 -24.29 -7.44 -35.55 l -0.1 -0.21 -1.03 -1.65 -1.65 0.21 A 87.84 87.84 0 0 0 93.83 28.94 a 87.84 87.84 0 0 0 -14.16 21.29 88.05 88.05 0 0 0 -78.54 35.76 zm 134.76 -11.57 -0.41 -0.41 A 88.15 88.15 0 0 0 94.35 52.7 c 10.02 -18.6 27.49 -32.04 48.26 -36.69 2.07 6.92 3.2 14.05 3.2 21.39 -0.1 13.74 -3.82 27.18 -11.06 38.65 m -40.3 46.61 c 15.09 -3.82 28.94 -11.78 39.99 -22.94 l 0.31 -0.31 a 72.65 72.65 0 0 1 10.95 38.65 c 0 7.34 -1.03 14.47 -3.2 21.39 a 73.89 73.89 0 0 1 -48.05 -36.79 M 85.77 87.74 c 0 -7.34 1.03 -14.47 3.2 -21.39 a 73.37 73.37 0 0 1 37 21.39 c -9.92 10.64 -22.74 17.98 -37 21.39 -2.07 -6.92 -3.2 -14.05 -3.2 -21.39 m -67.17 -0.31 a 74.41 74.41 0 0 1 53.63 -23.05 H 74.41 c -2.07 7.65 -3.1 15.4 -3.1 23.15 s 1.03 15.5 3.1 23.05 h -2.17 c -20.25 0.1 -39.79 -8.37 -53.63 -23.15" style="fill:none"/></svg>
