<?xml version="1.0" encoding="utf-8"?>
<!-- Generator: Adobe Illustrator 27.1.0, SVG Export Plug-In . SVG Version: 6.00 Build 0)  -->
<svg version="1.1" id="Layer_1" xmlns="http://www.w3.org/2000/svg" xmlns:xlink="http://www.w3.org/1999/xlink" x="0px" y="0px"
	 viewBox="0 0 350 71.5" style="enable-background:new 0 0 350 71.5;" xml:space="preserve">
<style type="text/css">
	.st0{fill:#FFFFFF;}
	.st1{fill:#2E3192;}
	.st2{fill:none;}
</style>
<g>
	<g>
		<rect x="315.6" y="16.2" class="st0" width="7.7" height="38"/>
		<ellipse class="st0" cx="280.2" cy="35.2" rx="13.8" ry="14.3"/>
		<path class="st1" d="M168.5,30.4v2.8C167.1,32.2,167.1,31.1,168.5,30.4 M168.6,39.5c0.1,0.4,0,0.8,0,1.4c-0.6-0.3-1-0.6-1.1-1.2
			c-0.1-0.6-0.1-1.5,0.6-1.5C168.9,38.2,168.6,39,168.6,39.5 M173.2,40.8c-0.9-0.1-1.8,0.1-2.7,0.3c-0.6,0.1-0.9-0.2-0.8-0.8
			c0.1-0.4,0.1-0.8,0-1.2c-0.1-0.8,0.2-1,1-1c0.8,0,1.6-0.1,2.4-0.3c1.3-0.2,1.9,0.2,1.5,1.5C174.9,40.6,174.3,40.9,173.2,40.8
			 M174.6,33c-0.1,0.4-0.4,0.4-0.7,0.4h-2.4c-1.8,0-1.8,0-1.8-1.8c0-1.2,0-1.2,2.4-1.2h0.5C174.6,30.4,175.1,31.1,174.6,33
			 M180.6,40.2c0,0.3-0.3,0.3-0.5,0.3c-0.9-0.1-1.8,0.1-2.7,0.3c-0.4,0.1-1.3,0.4-1.4-0.3c-0.2-0.8-0.3-2.1,0.1-2.4
			c0.6-0.6,1.8-0.6,3-0.4c0.3,0.1,1.2-0.4,1.4,0.2C180.8,38.4,180.6,39.3,180.6,40.2 M180.6,33.2c-0.1,0.3-0.3,0.4-0.6,0.4
			c-1.3,0.1-2.5-0.3-3.7-0.3c-0.3,0-0.3-0.2-0.4-0.4c-0.4-1.8-0.1-2.2,1.8-2.2h1C180.6,30.7,181.1,31.4,180.6,33.2 M182.2,30.8
			c0.8-0.4,2-0.4,3,0.2c0.5,0.3,0.7,1,0.6,1.5c-0.3,1-1.1,1.3-2.1,1.2h-0.2c-0.4-0.3-1.2,0.4-1.3-0.4
			C181.9,32.4,181.6,31.2,182.2,30.8 M183.1,40.6c-1.8,0.1-1-1.1-1.2-1.9c-0.3-1.5,0.7-1.2,1.7-1.2c1.2-0.3,2,0.3,2.2,1.5
			C186,40,184.9,40.4,183.1,40.6 M271.6,41.9l-0.2-0.2c-0.4-4-0.3-8.1-0.1-12.1v-0.1c0,0,0.1,0,0.1-0.1c0.1,0,0.3,0.1,0.6,0.1
			C272,33.4,271.6,37.9,271.6,41.9 M282.5,45.6c-4.1,1-7.6-0.1-10.4-3.1c0.6,0.1,1.3-0.1,1.7,0.3c2.3,1.9,4.9,2.9,7.9,2.1
			c5.1-1.2,8.6-5.8,7.2-11.6c-0.9-3.7-3.3-5.8-6.8-6.8c-3.1-0.8-6.2-0.1-8.6,2.3c-0.3,0.3-0.6,0.5-1,0.6c1.5-2.3,3.2-3.7,5.8-4
			c5.5-0.6,9.8,2.2,11.4,7.4C291.7,38.3,288.3,44.2,282.5,45.6 M274.2,35.6c0-1.5,0.1-3,0-4.5c-0.1-1.2,0.4-1.8,1.3-2.3
			c4.6-2.6,10.7-1.2,12.3,4.9c1.3,4.9-2.4,9.6-7.4,9.8c-2.1,0.1-3.9-0.3-5.5-1.7c-0.5-0.4-0.8-0.9-0.7-1.6V35.6z M339.8,4.5
			c-5.1-3.5-16-4.9-20.4-4.4c-4,0.4-7.7,1.8-11.3,3.5c-4.2,1.9-8.1,4.5-11.9,7.3c-3.1,2.2-6.4,2.4-9.8,0.8c-0.7-0.1-1.4-0.3-1.9-0.8
			c-0.2-0.1-0.3-0.1-0.5-0.1c-4.2-1.8-8.4-3.1-13-3.1c-6.7,0.1-11.6,3.3-14.7,9.1c-1.2,2.3-1.9,4.8-2.8,7.3
			c-0.1,0.6-0.2,1.1-0.3,1.7c-0.2,0.9-0.4,1.8-0.4,2.7c0,0.6-0.1,1.3-0.6,1.3h-0.1L198,29.8H198c-1.4,0.3-2.9,0-4.3,0.1h-4.9
			c-0.3,0.1-0.6,0.1-1-0.1c-0.4-0.1-0.8-0.3-1.3-0.6c-0.6-0.4-1-1.2-2-1c-0.6,0.1-0.9-0.1-1.1-0.8c-0.3-0.9-1-1.7-2.1-1.7
			c-1.1,0-1.9,0.6-2.2,1.7c-0.1,0.6-0.4,0.8-1,0.8c-0.6,0.1-0.8-0.4-0.9-0.8c-0.2-1-1-1.5-1.9-1.7c-1-0.2-1.7,0.4-2.2,1.2
			c-0.3,0.4-0.4,1-1.2,1c-0.8,0.1-0.8-0.6-1-1c-0.4-0.8-0.9-1.2-1.9-1.3c-1-0.1-1.9,0.3-2.1,1.2c-0.3,1-0.9,1-1.7,1.1
			c-1.6,0.1-3.6-0.8-4.7,1.3c-0.1,0.1-0.3,0.1-0.3,0.2c-0.2,0.3-0.8-0.1-0.9,0.4c-0.3,1.5-1.3,2.6-2.4,3.6c-0.2,0.2-0.3,0.4-0.3,0.7
			c0.1,1.7-0.4,3.5,1.4,4.6c0.6,0.4,0.8,1.2,1.1,1.8c0.4,1.2,2.2,1.3,2.3,2.8c0,0.1,0.7,0.1,1,0.1c1.1-0.1,2.1-0.3,3.2-0.3
			c0.6,0,1,0.1,1,0.8c0.2,1.1,1.1,1.6,2,1.7c1,0.1,1.9-0.6,2.2-1.6c0.2-0.4,0.3-0.8,1-0.8c0.6,0,0.8,0.3,1.1,0.8
			c0.4,0.9,1.1,1.4,2.1,1.5c1.1,0,1.7-0.7,2.2-1.5c0.2-0.3,0.1-1,0.8-0.9c0.7,0.1,0.8,0.4,1,1c0.5,1.4,2.1,1.9,3.3,1
			c1-0.8,1.4-1.9,3-2.4c1.1-0.3,2.1-0.9,3.2-1c0.3-0.1,0.7-0.1,1.1-0.1c0.3,0,0.4,0.1,0.7,0.1c2.4,0.1,4.8,0.1,7.2,0
			c0.9,0,1.7-0.1,2.6-0.1h9.8c1.9,0,3.7,0.1,5.6,0.1l36.4,0.1h0.1c0.6,0,0.6,0.7,0.6,1.2c0.2,0.8,0.2,1.7,0.3,2.5
			c0.3,0.4,0.4,0.9,0.3,1.3c0.1,0.1,0.3,0.3,0.3,0.4c1,3.9,2.4,7.6,5.1,10.8c3,3.6,6.7,5.4,11.3,5.7c5.3,0.3,10.1-1.3,14.9-3.5
			c0.4-0.2,0.9-0.3,1.4-0.5c2.1-0.8,4-1.3,6.3-1c1.8,0.3,3.1,1.4,4.6,2.3c4.8,3.2,9.6,6.4,15.1,8.2c4.9,1.7,9.9,2.8,15.1,2.1
			c4.9-0.8,9-2.8,12.5-6.4c4-3.9,10.4-9.2,10.4-29.4C350,15.4,344.9,8,339.8,4.5z M322.3,18.2v35.1c-1.9,0.5-3.8,0.5-5.7,0
			c0-11.6,0-23.2-0.1-34.8c0-0.8,0.2-1,1-1c1.5,0.1,3,0.1,4.5,0.1C322.5,17.7,322.3,18,322.3,18.2z"/>
		<path class="st0" d="M208.5,30.4V41c0,0.1,0,0.3-0.1,0.3c-0.1,0.1-0.1,0.3-0.3,0.3s-0.2-0.1-0.3-0.3c-0.1-0.1-0.1-0.2-0.1-0.3
			V30.4c0-0.1,0-0.3,0.1-0.3c0.1-0.1,0.1-0.3,0.3-0.3s0.2,0.1,0.3,0.3C208.5,30.1,208.5,30.2,208.5,30.4 M195.1,30.5v10.3
			c0,0.1,0,0.3-0.1,0.3c-0.1,0.1-0.2,0.3-0.3,0.3c-0.1,0-0.2-0.1-0.3-0.3c-0.1-0.1-0.1-0.2-0.1-0.3V30.5c0-0.1,0-0.3,0.1-0.3
			c0.1-0.1,0.2-0.3,0.3-0.3c0.1,0,0.2,0.1,0.3,0.3C195.1,30.3,195.1,30.4,195.1,30.5 M202.2,30.4v10.4c0,0.1,0,0.3-0.1,0.3
			c-0.1,0.1-0.1,0.3-0.3,0.3s-0.2-0.1-0.3-0.3c-0.1-0.1-0.1-0.2-0.1-0.3V30.4c0-0.1,0-0.3,0.1-0.3c0.1-0.1,0.1-0.3,0.3-0.3
			s0.2,0.1,0.3,0.3C202.2,30.2,202.2,30.3,202.2,30.4 M226.3,30.3v10.8c0,0.1,0,0.3-0.1,0.3c-0.1,0.1-0.1,0.3-0.3,0.3
			s-0.3-0.1-0.3-0.3c-0.1-0.1-0.1-0.2-0.1-0.3V30.3c0-0.1,0-0.3,0.1-0.3c0.1-0.1,0.1-0.3,0.3-0.3s0.3,0.1,0.3,0.3
			C226.3,30,226.3,30.2,226.3,30.3 M220.7,30.4V41c0,0.1,0,0.3-0.1,0.3c-0.1,0.1-0.2,0.3-0.3,0.3c-0.1,0-0.2-0.1-0.3-0.3
			c-0.1-0.1-0.1-0.2-0.1-0.3V30.4c0-0.1,0-0.3,0.1-0.3c0.1-0.1,0.2-0.3,0.3-0.3c0.1,0,0.2,0.1,0.3,0.3
			C220.7,30.1,220.7,30.2,220.7,30.4 M214.9,30.4V41c0,0.1,0,0.3-0.1,0.3c-0.1,0.1-0.2,0.3-0.3,0.3c-0.1,0-0.2-0.1-0.3-0.3
			c-0.1-0.1-0.1-0.2-0.1-0.3V30.4c0-0.1,0-0.3,0.1-0.3c0.1-0.1,0.2-0.3,0.3-0.3c0.1,0,0.2,0.1,0.3,0.3
			C214.9,30.1,214.9,30.2,214.9,30.4"/>
		<path class="st0" d="M240.7,29.8C240.7,29.8,240.6,29.8,240.7,29.8C240.6,29.8,240.7,29.8,240.7,29.8
			C240.7,29.8,240.7,29.8,240.7,29.8C240.7,29.8,240.7,29.8,240.7,29.8 M264,30c0.1,0.1,0.1,0.2,0.1,0.3V41c0,0.1,0,0.3-0.1,0.3
			c-0.1,0.1-0.1,0.3-0.3,0.3s-0.2-0.1-0.3-0.3c-0.1-0.1-0.1-0.2-0.1-0.3V30.4c0-0.1,0-0.3,0.1-0.3c0.1-0.1,0.1-0.3,0.3-0.3
			C263.8,29.7,263.9,29.8,264,30 M270,30.4V41c0,0.1,0,0.3-0.1,0.3c-0.1,0.1-0.1,0.3-0.3,0.3s-0.2-0.1-0.3-0.3
			c-0.1-0.1-0.1-0.2-0.1-0.3V30.4c0-0.1,0-0.3,0.1-0.3c0.1-0.1,0.1-0.3,0.3-0.3s0.2,0.1,0.3,0.3C270,30.1,270,30.2,270,30.4 M267,30
			c0.1,0.1,0.1,0.2,0.1,0.3V41c0,0.1,0,0.3-0.1,0.3c-0.1,0.1-0.1,0.3-0.3,0.3c-0.2,0-0.3-0.3-0.3-0.6V30.4c0-0.3,0.1-0.6,0.3-0.6
			C266.8,29.7,266.9,29.8,267,30 M260.7,30c0.1,0.1,0.1,0.2,0.1,0.3V41c0,0.1,0,0.3-0.1,0.3c-0.1,0.1-0.1,0.3-0.3,0.3
			c-0.1,0-0.2-0.1-0.3-0.3s-0.1-0.2-0.1-0.3V30.4c0-0.1,0-0.3,0.1-0.3c0.1-0.1,0.1-0.3,0.3-0.3C260.5,29.7,260.6,29.8,260.7,30
			 M231.3,29.9c0.1,0.1,0.1,0.2,0.1,0.3v10.9c0,0.1,0,0.3-0.1,0.3c-0.1,0.1-0.2,0.3-0.3,0.3c-0.1,0-0.2-0.1-0.3-0.3
			c-0.1-0.1-0.1-0.2-0.1-0.3V30.3c0-0.1,0-0.3,0.1-0.3c0.1-0.1,0.2-0.3,0.3-0.3C231.2,29.6,231.2,29.8,231.3,29.9 M236.3,29.9
			c0.1,0.1,0.1,0.2,0.1,0.3v10.9c0,0.1,0,0.3-0.1,0.3c-0.1,0.1-0.1,0.3-0.3,0.3s-0.2-0.1-0.3-0.3c-0.1-0.1-0.1-0.2-0.1-0.3V30.3
			c0-0.1,0-0.3,0.1-0.3c0.1-0.1,0.1-0.3,0.3-0.3C236.1,29.6,236.3,29.8,236.3,29.9"/>
		<path class="st0" d="M240.7,29.6c-0.1,0-0.3,0.1-0.3,0.3c-0.1,0.1-0.1,0.2-0.1,0.3v10.9c0,0.1,0,0.3,0.1,0.3
			c0.1,0.1,0.1,0.3,0.3,0.3s0.3-0.1,0.3-0.3c0.1-0.1,0.1-0.2,0.1-0.3V30.2c0-0.1,0-0.3-0.1-0.3C240.9,29.7,240.8,29.6,240.7,29.6
			 M245.2,29.9c0.1,0.1,0.1,0.2,0.1,0.3v10.9c0,0.1,0,0.3-0.1,0.3c-0.1,0.1-0.1,0.3-0.3,0.3s-0.2-0.1-0.3-0.3
			c-0.1-0.1-0.1-0.2-0.1-0.3V30.2c0-0.1,0-0.3,0.1-0.3c0.1-0.1,0.1-0.3,0.3-0.3S245.2,29.7,245.2,29.9 M249.5,29.9
			c0.1,0.1,0.1,0.2,0.1,0.3v10.9c0,0.1,0,0.3-0.1,0.3c-0.1,0.1-0.1,0.3-0.3,0.3c-0.1,0-0.2-0.1-0.3-0.3c-0.1-0.1-0.1-0.2-0.1-0.3
			V30.2c0-0.1,0-0.3,0.1-0.3c0.1-0.1,0.1-0.3,0.3-0.3C249.4,29.6,249.5,29.7,249.5,29.9 M253.4,30c0.1,0.1,0.1,0.2,0.1,0.3v10.9
			c0,0.1,0,0.2-0.1,0.3v0.1c-0.1,0.1-0.2,0.3-0.3,0.3c-0.1,0-0.2-0.1-0.3-0.3c-0.1-0.1-0.1-0.2-0.1-0.3V30.3c0-0.1,0-0.3,0.1-0.3
			c0.1-0.1,0.2-0.3,0.3-0.3C253.2,29.6,253.3,29.8,253.4,30 M256.9,30c0.1,0.1,0.1,0.2,0.1,0.3V41c0,0.1,0,0.3-0.1,0.3
			c-0.1,0.1-0.1,0.3-0.3,0.3c-0.2,0-0.3-0.3-0.3-0.6V30.4c0-0.3,0.1-0.6,0.3-0.6C256.7,29.7,256.9,29.8,256.9,30 M272.9,30.4V41
			c0,0.1,0,0.3-0.1,0.3c-0.1,0.1-0.1,0.3-0.3,0.3s-0.2-0.1-0.3-0.3c-0.1-0.1-0.1-0.2-0.1-0.3V30.4c0-0.1,0-0.3,0.1-0.3
			c0.1-0.1,0.1-0.3,0.3-0.3s0.2,0.1,0.3,0.3C272.8,30.1,272.9,30.2,272.9,30.4"/>
	</g>
	<g>
		
			<rect x="26.7" y="17.3" transform="matrix(-1 -8.972302e-11 8.972302e-11 -1 61.0413 72.6462)" class="st2" width="7.7" height="38"/>
		<ellipse class="st2" cx="69.8" cy="36.3" rx="13.8" ry="14.3"/>
		<path class="st2" d="M181.5,41.1v-2.8C182.9,39.4,182.9,40.4,181.5,41.1 M181.4,32c-0.1-0.4,0-0.8,0-1.4c0.6,0.3,1,0.6,1.1,1.2
			c0.1,0.6,0.1,1.5-0.6,1.5C181.1,33.3,181.4,32.5,181.4,32 M176.8,30.7c0.9,0.1,1.8-0.1,2.7-0.3c0.6-0.1,0.9,0.2,0.8,0.8
			c-0.1,0.4-0.1,0.8,0,1.2c0.1,0.8-0.2,1-1,1c-0.8,0-1.6,0.1-2.4,0.3c-1.3,0.2-1.9-0.2-1.5-1.5C175.1,30.9,175.7,30.6,176.8,30.7
			 M175.4,38.5c0.1-0.4,0.4-0.4,0.7-0.4h2.4c1.8,0,1.8,0,1.8,1.8c0,1.2,0,1.2-2.4,1.2h-0.5C175.4,41.2,174.9,40.4,175.4,38.5
			 M169.4,31.3c0-0.3,0.3-0.3,0.5-0.3c0.9,0.1,1.8-0.1,2.7-0.3c0.4-0.1,1.3-0.4,1.4,0.3c0.2,0.8,0.3,2.1-0.1,2.4
			c-0.6,0.6-1.8,0.6-3,0.4c-0.3-0.1-1.2,0.4-1.4-0.2C169.2,33.1,169.4,32.2,169.4,31.3 M169.4,38.3c0.1-0.3,0.3-0.4,0.6-0.4
			c1.3-0.1,2.5,0.3,3.7,0.3c0.3,0,0.3,0.2,0.4,0.4c0.4,1.8,0.1,2.2-1.8,2.2h-1C169.4,40.8,168.9,40.1,169.4,38.3 M167.8,40.7
			c-0.8,0.4-2,0.4-3-0.2c-0.5-0.3-0.7-1-0.6-1.5c0.3-1,1.1-1.3,2.1-1.2h0.2c0.4,0.3,1.2-0.4,1.3,0.4
			C168.1,39.1,168.4,40.3,167.8,40.7 M166.9,30.9c1.8-0.1,1,1.1,1.2,1.9c0.3,1.5-0.7,1.2-1.7,1.2c-1.2,0.3-2-0.3-2.2-1.5
			C164,31.5,165.1,31.1,166.9,30.9 M78.4,29.7l0.2,0.2c0.4,4,0.3,8.1,0.1,12.1v0.1c0,0-0.1,0-0.1,0.1c-0.1,0-0.3-0.1-0.6-0.1
			C78,38.1,78.4,33.6,78.4,29.7 M67.5,25.9c4.1-1,7.6,0.1,10.4,3.1c-0.6-0.1-1.3,0.1-1.7-0.3c-2.3-1.9-4.9-2.9-7.9-2.1
			c-5.1,1.2-8.6,5.8-7.2,11.6c0.9,3.7,3.3,5.8,6.8,6.8c3.1,0.8,6.2,0.1,8.6-2.3c0.3-0.3,0.6-0.5,1-0.6c-1.5,2.3-3.2,3.7-5.8,4
			c-5.5,0.6-9.8-2.2-11.4-7.4C58.3,33.3,61.7,27.4,67.5,25.9 M75.8,35.9c0,1.5-0.1,3,0,4.5c0.1,1.2-0.4,1.8-1.3,2.3
			c-4.6,2.6-10.7,1.2-12.3-4.9c-1.3-4.9,2.4-9.6,7.4-9.8c2.1-0.1,3.9,0.3,5.5,1.7c0.5,0.4,0.8,0.9,0.7,1.6V35.9z M10.2,67
			c5.1,3.5,16,4.9,20.4,4.4c4-0.4,7.7-1.8,11.3-3.5c4.2-1.9,8.1-4.5,11.9-7.3c3.1-2.2,6.4-2.4,9.8-0.8c0.7,0.1,1.4,0.3,1.9,0.8
			c0.2,0.1,0.3,0.1,0.5,0.1c4.2,1.8,8.4,3.1,13,3.1c6.7-0.1,11.6-3.3,14.7-9.1c1.2-2.3,1.9-4.8,2.8-7.3c0.1-0.6,0.2-1.1,0.3-1.7
			c0.2-0.9,0.4-1.8,0.4-2.7c0-0.6,0.1-1.3,0.6-1.3h0.1l54.1-0.2h0.1c1.4-0.3,2.9,0,4.3-0.1h4.9c0.3-0.1,0.6-0.1,1,0.1
			c0.4,0.1,0.8,0.3,1.3,0.6c0.6,0.4,1,1.2,2,1c0.6-0.1,0.9,0.1,1.1,0.8c0.3,0.9,1,1.7,2.1,1.7c1.1,0,1.9-0.6,2.2-1.7
			c0.1-0.6,0.4-0.8,1-0.8c0.6-0.1,0.8,0.4,0.9,0.8c0.2,1,1,1.5,1.9,1.7c1,0.2,1.7-0.4,2.2-1.2c0.3-0.4,0.4-1,1.2-1
			c0.8-0.1,0.8,0.6,1,1c0.4,0.8,0.9,1.2,1.9,1.3c1,0.1,1.9-0.3,2.1-1.2c0.3-1,0.9-1,1.7-1.1c1.6-0.1,3.6,0.8,4.7-1.3
			c0.1-0.1,0.3-0.1,0.3-0.2c0.2-0.3,0.8,0.1,0.9-0.4c0.3-1.5,1.3-2.6,2.4-3.6c0.2-0.2,0.3-0.4,0.3-0.7c-0.1-1.7,0.4-3.5-1.4-4.6
			c-0.6-0.4-0.8-1.2-1.1-1.8c-0.4-1.2-2.2-1.3-2.3-2.8c0-0.1-0.7-0.1-1-0.1c-1.1,0.1-2.1,0.3-3.2,0.3c-0.6,0-1-0.1-1-0.8
			c-0.2-1.1-1.1-1.6-2-1.7c-1-0.1-1.9,0.6-2.2,1.6c-0.2,0.4-0.3,0.8-1,0.8c-0.6,0-0.8-0.3-1.1-0.8c-0.4-0.9-1.1-1.4-2.1-1.5
			c-1.1,0-1.7,0.7-2.2,1.5c-0.2,0.3-0.1,1-0.8,0.9c-0.7-0.1-0.8-0.4-1-1c-0.5-1.4-2.1-1.9-3.3-1c-1,0.8-1.4,1.9-3,2.4
			c-1.1,0.3-2.1,0.9-3.2,1c-0.3,0.1-0.7,0.1-1.1,0.1c-0.3,0-0.4-0.1-0.7-0.1c-2.4-0.1-4.8-0.1-7.2,0c-0.9,0-1.7,0.1-2.6,0.1h-9.8
			c-1.9,0-3.7-0.1-5.6-0.1l-36.4-0.1h-0.1c-0.6,0-0.6-0.7-0.6-1.2c-0.2-0.8-0.2-1.7-0.3-2.5c-0.3-0.4-0.4-0.9-0.3-1.3
			c-0.1-0.1-0.3-0.3-0.3-0.4c-1-3.9-2.4-7.6-5.1-10.8c-3-3.6-6.7-5.4-11.3-5.7C75,7.6,70.1,9.2,65.4,11.4c-0.4,0.2-0.9,0.3-1.4,0.5
			c-2.1,0.8-4,1.3-6.3,1c-1.8-0.3-3.1-1.4-4.6-2.3C48.4,7.3,43.5,4.2,38,2.3c-4.9-1.7-9.9-2.8-15.1-2.1C18,1,13.9,3.1,10.4,6.6
			C6.4,10.5,0,15.8,0,36C0,56.1,5.1,63.5,10.2,67z M27.7,53.3V18.2c1.9-0.5,3.8-0.5,5.7,0c0,11.6,0,23.2,0.1,34.8c0,0.8-0.2,1-1,1
			c-1.5-0.1-3-0.1-4.5-0.1C27.5,53.8,27.7,53.5,27.7,53.3z"/>
		<path class="st2" d="M141.5,41.2V30.6c0-0.1,0-0.3,0.1-0.3c0.1-0.1,0.1-0.3,0.3-0.3s0.2,0.1,0.3,0.3c0.1,0.1,0.1,0.2,0.1,0.3v10.6
			c0,0.1,0,0.3-0.1,0.3c-0.1,0.1-0.1,0.3-0.3,0.3s-0.2-0.1-0.3-0.3C141.5,41.4,141.5,41.3,141.5,41.2 M154.9,41V30.6
			c0-0.1,0-0.3,0.1-0.3c0.1-0.1,0.2-0.3,0.3-0.3c0.1,0,0.2,0.1,0.3,0.3c0.1,0.1,0.1,0.2,0.1,0.3V41c0,0.1,0,0.3-0.1,0.3
			c-0.1,0.1-0.2,0.3-0.3,0.3c-0.1,0-0.2-0.1-0.3-0.3C154.9,41.2,154.9,41.1,154.9,41 M147.8,41.1V30.7c0-0.1,0-0.3,0.1-0.3
			c0.1-0.1,0.1-0.3,0.3-0.3s0.2,0.1,0.3,0.3c0.1,0.1,0.1,0.2,0.1,0.3v10.4c0,0.1,0,0.3-0.1,0.3c-0.1,0.1-0.1,0.3-0.3,0.3
			s-0.2-0.1-0.3-0.3C147.8,41.4,147.8,41.2,147.8,41.1 M123.7,41.2V30.4c0-0.1,0-0.3,0.1-0.3c0.1-0.1,0.1-0.3,0.3-0.3
			c0.1,0,0.3,0.1,0.3,0.3c0.1,0.1,0.1,0.2,0.1,0.3v10.8c0,0.1,0,0.3-0.1,0.3c-0.1,0.1-0.1,0.3-0.3,0.3c-0.1,0-0.3-0.1-0.3-0.3
			C123.7,41.5,123.7,41.4,123.7,41.2 M129.3,41.2V30.5c0-0.1,0-0.3,0.1-0.3c0.1-0.1,0.2-0.3,0.3-0.3c0.1,0,0.2,0.1,0.3,0.3
			c0.1,0.1,0.1,0.2,0.1,0.3v10.7c0,0.1,0,0.3-0.1,0.3c-0.1,0.1-0.2,0.3-0.3,0.3c-0.1,0-0.2-0.1-0.3-0.3
			C129.3,41.4,129.3,41.3,129.3,41.2 M135.1,41.2V30.5c0-0.1,0-0.3,0.1-0.3c0.1-0.1,0.2-0.3,0.3-0.3c0.1,0,0.2,0.1,0.3,0.3
			c0.1,0.1,0.1,0.2,0.1,0.3v10.7c0,0.1,0,0.3-0.1,0.3c-0.1,0.1-0.2,0.3-0.3,0.3c-0.1,0-0.2-0.1-0.3-0.3
			C135.1,41.4,135.1,41.3,135.1,41.2"/>
		<path class="st2" d="M109.3,41.7C109.3,41.7,109.4,41.7,109.3,41.7C109.4,41.7,109.3,41.7,109.3,41.7
			C109.3,41.7,109.3,41.7,109.3,41.7C109.3,41.7,109.3,41.7,109.3,41.7 M86,41.5c-0.1-0.1-0.1-0.2-0.1-0.3V30.6c0-0.1,0-0.3,0.1-0.3
			c0.1-0.1,0.1-0.3,0.3-0.3s0.2,0.1,0.3,0.3s0.1,0.2,0.1,0.3v10.6c0,0.1,0,0.3-0.1,0.3c-0.1,0.1-0.1,0.3-0.3,0.3
			C86.2,41.8,86.1,41.7,86,41.5 M80,41.2V30.5c0-0.1,0-0.3,0.1-0.3c0.1-0.1,0.1-0.3,0.3-0.3c0.1,0,0.2,0.1,0.3,0.3
			c0.1,0.1,0.1,0.2,0.1,0.3v10.7c0,0.1,0,0.3-0.1,0.3c-0.1,0.1-0.1,0.3-0.3,0.3c-0.1,0-0.2-0.1-0.3-0.3C80,41.4,80,41.3,80,41.2
			 M83,41.5C83,41.4,83,41.4,83,41.2V30.6c0-0.1,0-0.3,0.1-0.3c0.1-0.1,0.1-0.3,0.3-0.3c0.2,0,0.3,0.3,0.3,0.6v10.6
			c0,0.3-0.1,0.6-0.3,0.6C83.2,41.8,83.1,41.7,83,41.5 M89.3,41.5c-0.1-0.1-0.1-0.2-0.1-0.3V30.6c0-0.1,0-0.3,0.1-0.3
			c0.1-0.1,0.1-0.3,0.3-0.3s0.2,0.1,0.3,0.3c0.1,0.1,0.1,0.2,0.1,0.3v10.6c0,0.1,0,0.3-0.1,0.3c-0.1,0.1-0.1,0.3-0.3,0.3
			C89.5,41.8,89.4,41.7,89.3,41.5 M118.7,41.6c-0.1-0.1-0.1-0.2-0.1-0.3V30.4c0-0.1,0-0.3,0.1-0.3c0.1-0.1,0.2-0.3,0.3-0.3
			c0.1,0,0.2,0.1,0.3,0.3c0.1,0.1,0.1,0.2,0.1,0.3v10.8c0,0.1,0,0.3-0.1,0.3c-0.1,0.1-0.2,0.3-0.3,0.3
			C118.8,41.9,118.8,41.7,118.7,41.6 M113.7,41.6c-0.1-0.1-0.1-0.2-0.1-0.3V30.4c0-0.1,0-0.3,0.1-0.3c0.1-0.1,0.1-0.3,0.3-0.3
			s0.2,0.1,0.3,0.3c0.1,0.1,0.1,0.2,0.1,0.3v10.8c0,0.1,0,0.3-0.1,0.3c-0.1,0.1-0.1,0.3-0.3,0.3C113.9,41.9,113.7,41.7,113.7,41.6"
			/>
		<path class="st2" d="M109.3,41.9c0.1,0,0.3-0.1,0.3-0.3c0.1-0.1,0.1-0.2,0.1-0.3V30.4c0-0.1,0-0.3-0.1-0.3
			c-0.1-0.1-0.1-0.3-0.3-0.3c-0.1,0-0.3,0.1-0.3,0.3c-0.1,0.1-0.1,0.2-0.1,0.3v10.9c0,0.1,0,0.3,0.1,0.3
			C109.1,41.8,109.2,41.9,109.3,41.9 M104.8,41.6c-0.1-0.1-0.1-0.2-0.1-0.3V30.4c0-0.1,0-0.3,0.1-0.3c0.1-0.1,0.1-0.3,0.3-0.3
			s0.2,0.1,0.3,0.3c0.1,0.1,0.1,0.2,0.1,0.3v10.9c0,0.1,0,0.3-0.1,0.3c-0.1,0.1-0.1,0.3-0.3,0.3S104.8,41.8,104.8,41.6 M100.5,41.6
			c-0.1-0.1-0.1-0.2-0.1-0.3V30.4c0-0.1,0-0.3,0.1-0.3c0.1-0.1,0.1-0.3,0.3-0.3s0.2,0.1,0.3,0.3c0.1,0.1,0.1,0.2,0.1,0.3v10.9
			c0,0.1,0,0.3-0.1,0.3c-0.1,0.1-0.1,0.3-0.3,0.3S100.5,41.8,100.5,41.6 M96.6,41.5c-0.1-0.1-0.1-0.2-0.1-0.3V30.4
			c0-0.1,0-0.2,0.1-0.3v-0.1c0.1-0.1,0.2-0.3,0.3-0.3c0.1,0,0.2,0.1,0.3,0.3c0.1,0.1,0.1,0.2,0.1,0.3v10.8c0,0.1,0,0.3-0.1,0.3
			c-0.1,0.1-0.2,0.3-0.3,0.3C96.8,41.9,96.7,41.7,96.6,41.5 M93.1,41.5C93,41.4,93,41.4,93,41.2V30.6c0-0.1,0-0.3,0.1-0.3
			c0.1-0.1,0.1-0.3,0.3-0.3c0.2,0,0.3,0.3,0.3,0.6v10.6c0,0.3-0.1,0.6-0.3,0.6C93.3,41.8,93.1,41.7,93.1,41.5 M77.1,41.2V30.5
			c0-0.1,0-0.3,0.1-0.3c0.1-0.1,0.1-0.3,0.3-0.3c0.1,0,0.2,0.1,0.3,0.3c0.1,0.1,0.1,0.2,0.1,0.3v10.7c0,0.1,0,0.3-0.1,0.3
			c-0.1,0.1-0.1,0.3-0.3,0.3c-0.1,0-0.2-0.1-0.3-0.3C77.2,41.4,77.1,41.3,77.1,41.2"/>
	</g>
</g>
</svg>
