<?xml version="1.0" encoding="utf-8"?><svg version="1.1" id="Layer_1" xmlns="http://www.w3.org/2000/svg" x="0" y="0" viewBox="0 0 300 57.95" xml:space="preserve"><style>.st0{fill:none}.st1{fill:#fff}</style><path class="st0" d="M 300 28.52 c 0 -16.21 -4.14 -22.19 -8.16 -24.95 -4.14 -2.87 -12.88 -3.91 -16.33 -3.45 -3.22 0.34 -6.21 1.49 -9.08 2.76 -3.45 1.61 -6.55 3.68 -9.54 5.86 -2.53 1.84 -5.06 1.95 -7.82 0.57 -0.57 -0.11 -1.15 -0.23 -1.61 -0.57 -0.11 0 -0.23 -0.11 -0.34 -0.11 -3.33 -1.49 -6.78 -2.53 -10.46 -2.53 -5.4 0 -9.31 2.64 -11.84 7.36 -1.03 1.84 -1.61 3.91 -2.18 5.86 -0.11 0.46 -0.11 0.92 -0.23 1.38 -0.11 0.69 -0.34 1.49 -0.34 2.18 0 0.57 0 1.15 -0.46 1.15 l -43.46 0.11 c -1.15 0.23 -2.3 0 -3.45 0 h -4.71 c -0.34 -0.11 -0.69 -0.23 -1.03 -0.46 -0.46 -0.34 -0.8 -0.92 -1.61 -0.8 -0.46 0.11 -0.69 0 -0.92 -0.57 -0.23 -0.69 -0.8 -1.38 -1.61 -1.38 q -1.38 0 -1.72 1.38 c -0.11 0.57 -0.34 0.57 -0.8 0.69 -0.46 0 -0.69 -0.34 -0.69 -0.57 -0.11 -0.8 -0.8 -1.26 -1.49 -1.38 -0.8 -0.11 -1.38 0.34 -1.84 1.03 -0.23 0.34 -0.34 0.8 -0.92 0.8 -0.69 0 -0.69 -0.46 -0.8 -0.8 -0.34 -0.69 -0.69 -0.92 -1.49 -1.03 -0.8 0 -1.49 0.23 -1.72 0.92 -0.23 0.8 -0.69 0.8 -1.38 0.8 -1.26 0.11 -2.87 -0.69 -3.79 1.03 0 0.11 -0.23 0.11 -0.23 0.11 -0.23 0.23 -0.57 -0.11 -0.69 0.34 -0.23 1.26 -1.15 2.07 -1.95 2.87 -0.11 0.11 -0.23 0.34 -0.23 0.57 0 1.38 -0.34 2.76 1.15 3.68 0.46 0.34 0.69 0.92 0.92 1.49 0.34 1.03 1.84 1.03 1.84 2.3 0 0 0.57 0.11 0.8 0 0.8 -0.11 1.72 -0.23 2.53 -0.23 0.46 0 0.8 0.11 0.8 0.57 0.11 0.92 0.92 1.26 1.61 1.38 0.8 0.11 1.49 -0.46 1.84 -1.26 0.11 -0.34 0.23 -0.69 0.8 -0.69 s 0.69 0.23 0.8 0.57 c 0.34 0.69 0.92 1.15 1.72 1.15 0.92 0 1.38 -0.57 1.72 -1.26 0.11 -0.23 0 -0.8 0.69 -0.69 0.57 0 0.69 0.34 0.8 0.8 0.46 1.15 1.72 1.61 2.64 0.8 0.8 -0.69 1.15 -1.49 2.3 -1.84 0.92 -0.23 1.61 -0.69 2.53 -0.8 h 1.49 c 1.95 0.11 3.79 0 5.75 0 h 10 c 1.49 0 2.99 0 4.48 0.11 l 29.21 0.11 c 0.46 0 0.46 0.57 0.57 0.92 0.11 0.69 0.11 1.38 0.23 2.07 0.23 0.34 0.34 0.69 0.23 1.15 0.11 0.11 0.23 0.23 0.23 0.34 0.8 3.22 1.95 6.09 4.02 8.62 2.41 2.87 5.4 4.37 9.08 4.6 4.25 0.23 8.16 -1.03 11.96 -2.76 0.34 -0.11 0.69 -0.23 1.15 -0.46 1.61 -0.57 3.22 -1.03 5.06 -0.8 1.49 0.23 2.53 1.15 3.68 1.84 3.79 2.53 7.7 5.06 12.07 6.67 3.91 1.38 7.93 2.3 12.07 1.61 q 5.86 -0.86 10 -5.17 c 3.1 -3.56 8.16 -7.82 8.16 -24.03 m -145.8 -4.14 v 2.3 c -1.15 -0.92 -1.15 -1.72 0 -2.3 m 0 7.24 v 1.15 c -0.57 -0.23 -0.8 -0.46 -0.92 -0.92 0 -0.46 -0.11 -1.26 0.57 -1.26 0.57 0 0.34 0.69 0.34 1.03 m 3.68 1.15 c -0.69 0 -1.38 0.11 -2.18 0.23 -0.57 0.11 -0.69 -0.11 -0.69 -0.69 v -1.03 c -0.11 -0.57 0.11 -0.8 0.8 -0.8 s 1.26 -0.11 1.95 -0.23 c 1.03 -0.23 1.49 0.11 1.26 1.26 0.23 1.03 -0.11 1.26 -1.15 1.26 m 1.15 -6.32 c -0.11 0.34 -0.34 0.34 -0.57 0.34 h -1.95 c -1.49 0 -1.49 0 -1.38 -1.38 0 -1.03 0 -1.03 1.95 -1.03 h 0.46 c 1.49 0 1.95 0.57 1.49 2.07 m 4.83 5.75 c 0 0.23 -0.23 0.23 -0.34 0.23 -0.69 0 -1.38 0.11 -2.18 0.23 -0.34 0 -1.03 0.23 -1.15 -0.23 -0.11 -0.69 -0.23 -1.72 0.11 -1.95 0.46 -0.46 1.49 -0.46 2.41 -0.34 0.23 0.11 0.92 -0.34 1.15 0.11 0.23 0.57 0 1.26 0 1.95 m 0.11 -5.52 c -0.11 0.23 -0.23 0.34 -0.46 0.34 -1.03 0.11 -1.95 -0.23 -2.99 -0.23 -0.23 0 -0.23 -0.23 -0.34 -0.34 -0.34 -1.49 0 -1.84 1.49 -1.84 h 0.8 c 1.38 0 1.84 0.57 1.49 2.07 m 1.15 -1.95 c 0.69 -0.34 1.61 -0.34 2.41 0.11 0.46 0.23 0.57 0.8 0.46 1.15 -0.23 0.8 -0.8 1.03 -1.72 0.92 h -0.23 c -0.34 -0.23 -1.03 0.34 -1.15 -0.34 0.11 -0.57 -0.23 -1.61 0.23 -1.84 m 0.8 7.82 c -1.49 0.11 -0.8 -0.92 -0.92 -1.49 -0.23 -1.15 0.57 -0.92 1.26 -0.92 0.92 -0.23 1.61 0.23 1.72 1.15 0.23 0.8 -0.57 1.15 -2.07 1.26 m 71.06 1.03 -0.11 -0.11 c -0.34 -3.22 -0.23 -6.55 -0.11 -9.77 v -0.11 h 0.11 s 0.23 0 0.46 0.11 c 0 2.99 -0.23 6.67 -0.34 9.89 m 8.85 2.99 c -3.33 0.8 -6.09 0 -8.39 -2.53 0.46 0 1.03 -0.11 1.38 0.23 1.84 1.49 3.91 2.3 6.32 1.72 4.02 -1.03 6.9 -4.71 5.75 -9.31 -0.69 -2.99 -2.64 -4.71 -5.52 -5.52 a 6.78 6.78 0 0 0 -6.9 1.84 c -0.23 0.23 -0.46 0.46 -0.8 0.46 1.26 -1.84 2.53 -2.99 4.71 -3.22 4.37 -0.46 7.93 1.84 9.2 5.98 1.61 4.48 -1.15 9.2 -5.75 10.35 m -6.67 -8.05 c 0 -1.15 0.11 -2.41 0 -3.56 -0.11 -0.92 0.34 -1.49 1.03 -1.84 3.68 -2.18 8.62 -0.92 9.89 4.02 1.03 4.02 -1.95 7.7 -5.98 7.82 -1.61 0 -3.1 -0.23 -4.37 -1.38 -0.46 -0.34 -0.57 -0.69 -0.57 -1.26 zm 38.64 -13.91 v 28.17 c -1.49 0.46 -3.1 0.46 -4.6 0 V 14.83 c 0 -0.57 0.11 -0.8 0.8 -0.8 h 3.56 c 0.34 0.11 0.23 0.34 0.23 0.57"/><path class="st1" d="M 186.39 24.26 v 8.74 c 0 0.11 -0.11 0.23 -0.23 0.23 s -0.23 -0.11 -0.23 -0.23 v -8.97 c 0 -0.11 0.11 -0.23 0.23 -0.23 s 0.23 0.11 0.23 0.23 c -0.11 0.11 0 0.11 0 0.23 m -10.81 0.23 v 8.51 c 0 0.11 -0.11 0.23 -0.23 0.23 s -0.23 -0.11 -0.23 -0.23 v -8.74 c 0 -0.11 0.11 -0.23 0.23 -0.23 s 0.23 0.11 0.23 0.23 zm 5.63 -0.11 v 8.62 c 0 0.11 -0.11 0.23 -0.23 0.23 s -0.23 -0.11 -0.23 -0.23 V 24.15 c 0 -0.11 0.11 -0.23 0.23 -0.23 s 0.23 0.11 0.23 0.23 zm 19.43 -0.11 v 8.85 c 0 0.11 -0.11 0.23 -0.23 0.23 s -0.23 -0.11 -0.23 -0.23 v -9.08 c 0 -0.11 0.11 -0.23 0.23 -0.23 s 0.23 0.11 0.23 0.23 c -0.11 0 0 0.11 0 0.23 m -4.48 0 v 8.85 c 0 0.11 -0.11 0.23 -0.23 0.23 s -0.23 -0.11 -0.23 -0.23 v -9.08 c 0 -0.11 0.11 -0.23 0.23 -0.23 s 0.23 0.11 0.23 0.23 zm -4.71 0 v 8.85 c 0 0.11 -0.11 0.23 -0.23 0.23 s -0.23 -0.11 -0.23 -0.23 v -9.08 c 0 -0.11 0.11 -0.23 0.23 -0.23 s 0.23 0.11 0.23 0.23 z"/><path d="M 212.15 23.92 s 0.11 0 0 0 c 0.11 0 0 0 0 0"/><path class="st1" d="M 212.15 23.92 s 0.11 0 0 0 c 0.11 0 0 0 0 0 m 18.74 0.11 v 9.08 c 0 0.11 -0.11 0.23 -0.23 0.23 s -0.23 -0.11 -0.23 -0.23 v -9.08 c 0 -0.11 0.11 -0.23 0.23 -0.23 s 0.23 0.11 0.23 0.23 m 4.83 0.23 v 8.85 c 0 0.11 -0.11 0.23 -0.23 0.23 s -0.23 -0.11 -0.23 -0.23 v -9.08 c 0 -0.11 0.11 -0.23 0.23 -0.23 s 0.23 0.11 0.23 0.23 zm -2.41 -0.23 v 9.08 c 0 0.11 -0.11 0.23 -0.23 0.23 s -0.23 -0.23 -0.23 -0.46 v -8.62 c 0 -0.23 0.11 -0.46 0.23 -0.46 s 0.23 0.11 0.23 0.23 m -5.06 0 v 9.08 c 0 0.11 -0.11 0.23 -0.23 0.23 s -0.23 -0.11 -0.23 -0.23 v -9.08 c 0 -0.11 0.11 -0.23 0.23 -0.23 s 0.11 0.11 0.23 0.23 m -23.57 -0.11 v 9.08 c 0 0.11 -0.11 0.23 -0.23 0.23 s -0.23 -0.11 -0.23 -0.23 v -9.08 c 0 -0.11 0.11 -0.23 0.23 -0.23 zm 4.02 0 v 9.08 c 0 0.11 -0.11 0.23 -0.23 0.23 s -0.23 -0.11 -0.23 -0.23 v -9.08 c 0 -0.11 0.11 -0.23 0.23 -0.23 zm 3.45 -0.23 c -0.11 0 -0.23 0.11 -0.23 0.23 v 9.2 c 0 0.11 0.11 0.23 0.23 0.23 s 0.23 -0.11 0.23 -0.23 v -9.2 c 0 -0.11 -0.11 -0.23 -0.23 -0.23 m 3.68 0.23 v 9.2 c 0 0.11 -0.11 0.23 -0.23 0.23 s -0.23 -0.11 -0.23 -0.23 v -9.2 c 0 -0.11 0.11 -0.23 0.23 -0.23 s 0.23 0.11 0.23 0.23 m 3.45 0 v 9.2 c 0 0.11 -0.11 0.23 -0.23 0.23 s -0.23 -0.11 -0.23 -0.23 v -9.2 c 0 -0.11 0.11 -0.23 0.23 -0.23 s 0.23 0.11 0.23 0.23 m 3.1 0.11 v 9.08 c 0 0.11 -0.11 0.23 -0.23 0.23 s -0.23 -0.11 -0.23 -0.23 v -9.08 c 0 -0.11 0.11 -0.23 0.23 -0.23 s 0.23 0 0.23 0.23 m 2.87 0 v 9.08 c 0 0.11 -0.11 0.23 -0.23 0.23 s -0.23 -0.23 -0.23 -0.46 v -8.62 c 0 -0.23 0.11 -0.46 0.23 -0.46 s 0.11 0.11 0.23 0.23 m 12.76 0.23 v 8.85 c 0 0.11 -0.11 0.23 -0.23 0.23 s -0.23 -0.11 -0.23 -0.23 v -9.08 c 0 -0.11 0.11 -0.23 0.23 -0.23 s 0.23 0.11 0.23 0.23 z"/><path class="st0" d="M 0 29.44 c 0 16.21 4.14 22.19 8.16 24.95 4.14 2.87 12.88 3.91 16.33 3.45 3.22 -0.34 6.21 -1.49 9.08 -2.76 3.45 -1.61 6.55 -3.68 9.54 -5.86 2.53 -1.84 5.06 -1.95 7.82 -0.57 0.57 0.11 1.15 0.23 1.61 0.57 0.11 0 0.23 0.11 0.34 0.11 3.33 1.49 6.78 2.53 10.46 2.53 5.4 0 9.31 -2.64 11.84 -7.36 1.03 -1.84 1.61 -3.91 2.18 -5.86 0.11 -0.46 0.11 -0.92 0.23 -1.38 0.11 -0.69 0.34 -1.49 0.34 -2.18 0 -0.57 0 -1.15 0.46 -1.15 l 43.46 -0.11 c 1.15 -0.23 2.3 0 3.45 0 h 4.71 c 0.34 0.11 0.69 0.23 1.03 0.46 0.46 0.34 0.8 0.92 1.61 0.8 0.46 -0.11 0.69 0 0.92 0.57 0.23 0.69 0.8 1.38 1.61 1.38 q 1.38 0 1.72 -1.38 c 0.11 -0.57 0.34 -0.57 0.8 -0.69 0.46 0 0.69 0.34 0.69 0.57 0.11 0.8 0.8 1.26 1.49 1.38 0.8 0.11 1.38 -0.34 1.84 -1.03 0.23 -0.34 0.34 -0.8 0.92 -0.8 0.69 0 0.69 0.46 0.8 0.8 0.34 0.69 0.69 0.92 1.49 1.03 0.8 0 1.49 -0.23 1.72 -0.92 0.23 -0.8 0.69 -0.8 1.38 -0.8 1.26 -0.11 2.87 0.69 3.79 -1.03 0 -0.11 0.23 -0.11 0.23 -0.11 0.23 -0.23 0.57 0.11 0.69 -0.34 0.23 -1.26 1.15 -2.07 1.95 -2.87 0.11 -0.11 0.23 -0.34 0.23 -0.57 0 -1.38 0.34 -2.76 -1.15 -3.68 -0.46 -0.34 -0.69 -0.92 -0.92 -1.49 -0.34 -1.03 -1.84 -1.03 -1.84 -2.3 0 0 -0.57 -0.11 -0.8 0 -0.8 0.11 -1.72 0.23 -2.53 0.23 -0.46 0 -0.8 -0.11 -0.8 -0.57 -0.11 -0.92 -0.92 -1.26 -1.61 -1.38 -0.8 -0.11 -1.49 0.46 -1.84 1.26 -0.11 0.34 -0.23 0.69 -0.8 0.69 s -0.69 -0.23 -0.8 -0.57 c -0.34 -0.69 -0.92 -1.15 -1.72 -1.15 -0.92 0 -1.38 0.57 -1.72 1.26 -0.11 0.23 0 0.8 -0.69 0.69 -0.57 0 -0.69 -0.34 -0.8 -0.8 -0.46 -1.15 -1.72 -1.61 -2.64 -0.8 -0.8 0.69 -1.15 1.49 -2.3 1.84 -0.92 0.23 -1.61 0.69 -2.53 0.8 h -1.49 c -1.95 -0.11 -3.79 0 -5.75 0 h -10 c -1.49 0 -2.99 0 -4.48 -0.11 l -29.21 -0.11 c -0.46 0 -0.46 -0.57 -0.57 -0.92 -0.11 -0.69 -0.11 -1.38 -0.23 -2.07 -0.23 -0.34 -0.34 -0.69 -0.23 -1.15 -0.11 -0.11 -0.23 -0.23 -0.23 -0.34 -0.8 -3.22 -1.95 -6.09 -4.02 -8.62 -2.41 -2.87 -5.4 -4.37 -9.08 -4.6 -4.25 -0.23 -8.16 1.03 -11.96 2.76 -0.34 0.11 -0.69 0.23 -1.15 0.46 -1.61 0.57 -3.22 1.03 -5.06 0.8 -1.49 -0.23 -2.53 -1.15 -3.68 -1.84 -3.79 -2.53 -7.7 -5.06 -12.07 -6.67 C 26.33 0.46 22.31 -0.46 18.17 0.23 q -5.86 0.86 -10 5.17 C 5.06 8.97 0 13.22 0 29.44 m 145.8 4.14 v -2.3 c 1.15 0.92 1.15 1.72 0 2.3 m 0 -7.24 v -1.15 c 0.57 0.23 0.8 0.46 0.92 0.92 0 0.46 0.11 1.26 -0.57 1.26 -0.57 0 -0.34 -0.69 -0.34 -1.03 m -3.68 -1.15 c 0.69 0 1.38 -0.11 2.18 -0.23 0.57 -0.11 0.69 0.11 0.69 0.69 v 1.03 c 0.11 0.57 -0.11 0.8 -0.8 0.8 s -1.26 0.11 -1.95 0.23 c -1.03 0.23 -1.49 -0.11 -1.26 -1.26 -0.23 -1.03 0.11 -1.26 1.15 -1.26 m -1.15 6.32 c 0.11 -0.34 0.34 -0.34 0.57 -0.34 h 1.95 c 1.49 0 1.49 0 1.38 1.38 0 1.03 0 1.03 -1.95 1.03 h -0.46 c -1.49 0 -1.95 -0.57 -1.49 -2.07 m -4.83 -5.75 c 0 -0.23 0.23 -0.23 0.34 -0.23 0.69 0 1.38 -0.11 2.18 -0.23 0.34 0 1.03 -0.23 1.15 0.23 0.11 0.69 0.23 1.72 -0.11 1.95 -0.46 0.46 -1.49 0.46 -2.41 0.34 -0.23 -0.11 -0.92 0.34 -1.15 -0.11 -0.23 -0.57 0 -1.26 0 -1.95 m -0.11 5.52 c 0.11 -0.23 0.23 -0.34 0.46 -0.34 1.03 -0.11 1.95 0.23 2.99 0.23 0.23 0 0.23 0.23 0.34 0.34 0.34 1.49 0 1.84 -1.49 1.84 h -0.8 c -1.38 0 -1.84 -0.57 -1.49 -2.07 m -1.15 1.95 c -0.69 0.34 -1.61 0.34 -2.41 -0.11 -0.46 -0.23 -0.57 -0.8 -0.46 -1.15 0.23 -0.8 0.8 -1.03 1.72 -0.92 h 0.23 c 0.34 0.23 1.03 -0.34 1.15 0.34 -0.11 0.57 0.23 1.61 -0.23 1.84 m -0.8 -7.82 c 1.49 -0.11 0.8 0.92 0.92 1.49 0.23 1.15 -0.57 0.92 -1.26 0.92 -0.92 0.23 -1.61 -0.23 -1.72 -1.15 -0.23 -0.8 0.57 -1.15 2.07 -1.26 m -71.06 -1.03 0.11 0.11 c 0.34 3.22 0.23 6.55 0.11 9.77 v 0.11 h -0.11 s -0.23 0 -0.46 -0.11 c 0 -2.99 0.23 -6.67 0.34 -9.89 m -8.85 -2.99 c 3.33 -0.8 6.09 0 8.39 2.53 -0.46 0 -1.03 0.11 -1.38 -0.23 -1.84 -1.49 -3.91 -2.3 -6.32 -1.72 -4.02 1.03 -6.9 4.71 -5.75 9.31 0.69 2.99 2.64 4.71 5.52 5.52 2.53 0.69 4.94 0.11 6.9 -1.84 0.23 -0.23 0.46 -0.46 0.8 -0.46 -1.26 1.84 -2.53 2.99 -4.71 3.22 -4.37 0.46 -7.93 -1.84 -9.2 -5.98 -1.61 -4.48 1.15 -9.2 5.75 -10.35 m 6.67 8.05 c 0 1.15 -0.11 2.41 0 3.56 0.11 0.92 -0.34 1.49 -1.03 1.84 -3.68 2.18 -8.62 0.92 -9.89 -4.02 -1.03 -4.02 1.95 -7.7 5.98 -7.82 1.61 0 3.1 0.23 4.37 1.38 0.46 0.34 0.57 0.69 0.57 1.26 zm 22.19 43.35 V 15.18 c 1.49 -0.46 3.1 -0.46 4.6 0 v 27.94 c 0 0.57 -0.11 0.8 -0.8 0.8 h -3.56 c -0.34 -0.11 -0.23 -0.34 -0.23 -0.57"/><path class="st1" d="M 103.49 33.69 v -8.74 c 0 -0.11 0.11 -0.23 0.23 -0.23 s 0.23 0.11 0.23 0.23 v 8.97 c 0 0.11 -0.11 0.23 -0.23 0.23 s -0.23 -0.11 -0.23 -0.23 c 0.11 -0.11 0 -0.11 0 -0.23 m 10.81 -0.23 v -8.51 c 0 -0.11 0.11 -0.23 0.23 -0.23 s 0.23 0.11 0.23 0.23 v 8.74 c 0 0.11 -0.11 0.23 -0.23 0.23 s -0.23 -0.11 -0.23 -0.23 zm -5.63 0.11 v -8.62 c 0 -0.11 0.11 -0.23 0.23 -0.23 s 0.23 0.11 0.23 0.23 v 8.85 c 0 0.11 -0.11 0.23 -0.23 0.23 s -0.23 -0.11 -0.23 -0.23 zm -19.43 0.11 v -8.85 c 0 -0.11 0.11 -0.23 0.23 -0.23 s 0.23 0.11 0.23 0.23 v 9.08 c 0 0.11 -0.11 0.23 -0.23 0.23 s -0.23 -0.11 -0.23 -0.23 c 0.11 0 0 -0.11 0 -0.23 m 4.48 0 v -8.85 c 0 -0.11 0.11 -0.23 0.23 -0.23 s 0.23 0.11 0.23 0.23 v 9.08 c 0 0.11 -0.11 0.23 -0.23 0.23 s -0.23 -0.11 -0.23 -0.23 zm 4.71 0 v -8.85 c 0 -0.11 0.11 -0.23 0.23 -0.23 s 0.23 0.11 0.23 0.23 v 9.08 c 0 0.11 -0.11 0.23 -0.23 0.23 s -0.23 -0.11 -0.23 -0.23 z"/><path d="M 77.73 34.04 s -0.11 0 0 0 c -0.11 0 0 0 0 0"/><path class="st1" d="M 77.73 34.04 s -0.11 0 0 0 c -0.11 0 0 0 0 0 m -18.74 -0.11 v -9.08 c 0 -0.11 0.11 -0.23 0.23 -0.23 s 0.23 0.11 0.23 0.23 v 9.08 c 0 0.11 -0.11 0.23 -0.23 0.23 s -0.23 -0.11 -0.23 -0.23 m -4.83 -0.23 v -8.85 c 0 -0.11 0.11 -0.23 0.23 -0.23 s 0.23 0.11 0.23 0.23 v 9.08 c 0 0.11 -0.11 0.23 -0.23 0.23 s -0.23 -0.11 -0.23 -0.23 zm 2.41 0.23 v -9.08 c 0 -0.11 0.11 -0.23 0.23 -0.23 s 0.23 0.23 0.23 0.46 v 8.62 c 0 0.23 -0.11 0.46 -0.23 0.46 s -0.23 -0.11 -0.23 -0.23 m 5.06 0 v -9.08 c 0 -0.11 0.11 -0.23 0.23 -0.23 s 0.23 0.11 0.23 0.23 v 9.08 c 0 0.11 -0.11 0.23 -0.23 0.23 s -0.11 -0.11 -0.23 -0.23 m 23.57 0.11 v -9.08 c 0 -0.11 0.11 -0.23 0.23 -0.23 s 0.23 0.11 0.23 0.23 v 9.08 c 0 0.11 -0.11 0.23 -0.23 0.23 zm -4.02 0 v -9.08 c 0 -0.11 0.11 -0.23 0.23 -0.23 s 0.23 0.11 0.23 0.23 v 9.08 c 0 0.11 -0.11 0.23 -0.23 0.23 zm -3.45 0.23 c 0.11 0 0.23 -0.11 0.23 -0.23 v -9.2 c 0 -0.11 -0.11 -0.23 -0.23 -0.23 s -0.23 0.11 -0.23 0.23 v 9.2 c 0 0.11 0.11 0.23 0.23 0.23 m -3.68 -0.23 v -9.2 c 0 -0.11 0.11 -0.23 0.23 -0.23 s 0.23 0.11 0.23 0.23 v 9.2 c 0 0.11 -0.11 0.23 -0.23 0.23 s -0.23 -0.11 -0.23 -0.23 m -3.45 0 v -9.2 c 0 -0.11 0.11 -0.23 0.23 -0.23 s 0.23 0.11 0.23 0.23 v 9.2 c 0 0.11 -0.11 0.23 -0.23 0.23 s -0.23 -0.11 -0.23 -0.23 m -3.1 -0.11 v -9.08 c 0 -0.11 0.11 -0.23 0.23 -0.23 s 0.23 0.11 0.23 0.23 v 9.08 c 0 0.11 -0.11 0.23 -0.23 0.23 s -0.23 0 -0.23 -0.23 m -2.87 0 v -9.08 c 0 -0.11 0.11 -0.23 0.23 -0.23 s 0.23 0.23 0.23 0.46 v 8.62 c 0 0.23 -0.11 0.46 -0.23 0.46 s -0.11 -0.11 -0.23 -0.23 m -12.76 -0.23 v -8.85 c 0 -0.11 0.11 -0.23 0.23 -0.23 s 0.23 0.11 0.23 0.23 v 9.08 c 0 0.11 -0.11 0.23 -0.23 0.23 s -0.23 -0.11 -0.23 -0.23 z"/></svg>