<?xml version="1.0" encoding="utf-8"?>
<!-- Generator: Adobe Illustrator 27.1.0, SVG Export Plug-In . SVG Version: 6.00 Build 0)  -->
<svg version="1.1" id="Layer_2_00000067943470925853274430000014016169332394375836_"
	 xmlns="http://www.w3.org/2000/svg" xmlns:xlink="http://www.w3.org/1999/xlink" x="0px" y="0px" viewBox="0 0 211.9 218.3"
	 style="enable-background:new 0 0 211.9 218.3;" xml:space="preserve">
<style type="text/css">
	.st0{fill:#2E3192;}
</style>
<g id="Layer_1-2_00000018938558089964873080000002854381780436272281_">
	<g>
		<path class="st0" d="M211.9,117.2c-0.7,32.6-17.3,52.6-31.2,63.7c-17.2,13.7-40,21.4-63,21.4c-51.8,0-83.5-36.3-82.7-84.9
			c0.4-19.6,8.2-39.3,21.6-54.1c14.1-15.6,32.9-24.1,52.8-24.1c19,0,36.8,7.4,50.1,20.7c12.7,12.8,20.1,30.2,20.1,47.7
			c0,17.2-11.2,40.9-35.8,52.3l25.6,6.6c0,0-2.3,10.5-9.4,10c-9.9-0.8-36.6-9.2-39.3-9.9c0.6-2.8,5-30.4,8.7-39.6
			c1.5-3.8,5.5-4.6,8.7-4.6c2.5,0,4.5,0.5,4.5,0.5l-5.8,25.8c18.2-10.2,29.1-25.6,29.1-41.3c0-26.4-22.7-54.6-56.4-54.6
			c-33.4,0-62.7,29.9-61.6,65.2c1.4,44,23.1,70.2,71.1,70.9c38.4,0.5,79.2-25.1,79.2-71.7c0-68.6-59.1-97-86.2-104.6
			c-8.5-2.3-5.4-14.6,3-12.3C135.2,5.9,213.6,32.7,211.9,117.2z"/>
	</g>
</g>
</svg>
