<?xml version="1.0" encoding="utf-8"?>
<!-- Generator: Adobe Illustrator 27.1.0, SVG Export Plug-In . SVG Version: 6.00 Build 0)  -->
<svg version="1.1" id="Layer_2_00000067943470925853274430000014016169332394375836_"
	 xmlns="http://www.w3.org/2000/svg" xmlns:xlink="http://www.w3.org/1999/xlink" x="0px" y="0px" viewBox="0 0 169.5 189.2"
	 style="enable-background:new 0 0 169.5 189.2;" xml:space="preserve">
<style type="text/css">
	.st0{fill:#2E3192;}
</style>
<g id="Layer_1-2_00000144313412631531932790000009516445523293907880_">
	<path class="st0" d="M54.4,56c5.9-8,17.1-33.6,18.4-36.1C70.4,18.4,46.6,3.6,37.2,0.4c-6.8-2.3-11.6,7.3-11.6,7.3l23.6,12.4
		C3.8,33.5,0,80.1,0,91.7c0,50.2,38.2,85,84.4,85c48.5,0,85.2-37.6,85.2-86.1c0-36.6-24.1-67.1-59.3-77.7
		c-12.1-3.5-15.7,10.6-3.9,14.3c29.2,9,48.4,33.2,48.4,63.4c0,40.3-30,71.3-70.4,71.3c-37.9,0-69.6-32.2-69.6-70.2
		c0-11.6,1.9-44.6,38.5-58.7L40.6,56.5C40.6,56.5,50.1,61.7,54.4,56L54.4,56z"/>
</g>
</svg>
