<?xml version="1.0" encoding="utf-8"?><svg xmlns="http://www.w3.org/2000/svg" viewBox="0 0 169.4 161.2" xml:space="preserve"><path d="M170.2 80.1c-1.1 21.5-8.3 40.3-20.8 54.6a79 79 0 0 1-43.8 25.4 78 78 0 0 1-17 1.8c-26.4 0-55.2-12.4-70.9-42.8l-8.9 23.8s-10-3.6-8.7-10.6c2.2-9.6 13.9-34.6 15-37.1 2.7.7 29.1 8.8 37.6 13.7 6.2 3.6 2.2 13.5 2.2 13.5l-23.5-9.2c10.1 24.9 38.2 38.6 68.5 33.3 25.8-4.5 53.8-24.2 55-66.1.5-17.8-4.9-32.7-16-44.2-17.5-18-43.4-21.9-48.9-21.9-5.7 0-8.3-3.9-8.3-7.5 0-2 .7-3.8 2.1-5.2C85.3.1 87.4-.7 89.9-.7c16.9 0 35.4 6.8 49.6 18.1 12.8 10.2 28.6 29.4 30.7 62.7" style="fill:#2e3192"/></svg>