<?xml version="1.0" encoding="utf-8"?><svg xmlns="http://www.w3.org/2000/svg" viewBox="0 0 211.9 218.3" xml:space="preserve"><path d="M211.9 117.2c-.7 32.6-17.3 52.6-31.2 63.7-17.2 13.7-40 21.4-63 21.4-51.8 0-83.5-36.3-82.7-84.9.4-19.6 8.2-39.3 21.6-54.1 14.1-15.6 32.9-24.1 52.8-24.1 19 0 36.8 7.4 50.1 20.7 12.7 12.8 20.1 30.2 20.1 47.7 0 17.2-11.2 40.9-35.8 52.3l25.6 6.6s-2.3 10.5-9.4 10c-9.9-.8-36.6-9.2-39.3-9.9.6-2.8 5-30.4 8.7-39.6 1.5-3.8 5.5-4.6 8.7-4.6 2.5 0 4.5.5 4.5.5l-5.8 25.8c18.2-10.2 29.1-25.6 29.1-41.3 0-26.4-22.7-54.6-56.4-54.6-33.4 0-62.7 29.9-61.6 65.2 1.4 44 23.1 70.2 71.1 70.9 38.4.5 79.2-25.1 79.2-71.7 0-68.6-59.1-97-86.2-104.6-8.5-2.3-5.4-14.6 3-12.3 20.2 5.6 98.6 32.4 96.9 116.9" style="fill:#2e3192"/></svg>