<?xml version="1.0" encoding="utf-8"?><svg xmlns="http://www.w3.org/2000/svg" viewBox="0 0 169.5 189.2" xml:space="preserve"><path d="M54.4 56c5.9-8 17.1-33.6 18.4-36.1C70.4 18.4 46.6 3.6 37.2.4c-6.8-2.3-11.6 7.3-11.6 7.3l23.6 12.4C3.8 33.5 0 80.1 0 91.7c0 50.2 38.2 85 84.4 85 48.5 0 85.2-37.6 85.2-86.1 0-36.6-24.1-67.1-59.3-77.7-12.1-3.5-15.7 10.6-3.9 14.3 29.2 9 48.4 33.2 48.4 63.4 0 40.3-30 71.3-70.4 71.3-37.9 0-69.6-32.2-69.6-70.2 0-11.6 1.9-44.6 38.5-58.7L40.6 56.5s9.5 5.2 13.8-.5" style="fill:#2e3192"/></svg>