<?xml version="1.0" encoding="utf-8"?><svg xmlns="http://www.w3.org/2000/svg" viewBox="0 0 182.9 261.5" xml:space="preserve"><path d="m107 94.1 25.9 6.3c-10.7-21.1-38-37.1-59.1-37.1-32.2 0-59.1 29.5-59.1 67.4 0 40.3 31 71.8 71.3 70.4 95.6-2.1 129.2-154.5-2.8-187.5C73.3 9.7 79-4.1 91.5 1.2c143.5 44.9 102 213-6.3 213.8-46 .3-85.2-35.7-85.2-84.2 0-46.1 32.5-82.2 73.9-82.2 18.6 0 57.3 12.2 70.6 44.6l6.1-25.9s10.5 2.3 10 9.4c-.8 9.9-9.2 36.6-9.9 39.3-2.8-.6-30.4-5-39.6-8.7-6.7-2.7-4.1-13.2-4.1-13.2" style="fill:#2e3192"/></svg>