<?xml version="1.0" encoding="utf-8"?><svg xmlns="http://www.w3.org/2000/svg" viewBox="0 0 364.2 115.4" xml:space="preserve"><path d="M8.1 19.1c38.3 27.7 94.3 45.8 153.1 40.2 22.9 21.6 76.5 19.5 172.4 22.5l-22 28.7c2.7 2 11.1 7.9 17 3 0 0 .1-.1.1 0 10-8.7 31.7-37.9 35.4-42.9-4.6-4.3-32.6-31.3-41.7-36.8-5-3.2-10.5 0-14.3 3.3-.8.7-1.5 1.3-2 1.9l27.5 27.2c3.9-1-136.4-3.4-146.1-11.6-.1-.1 11.7-2.3 15.1-11.1 5-13.1.9-28.9-14.4-36.1s-31.5-3-38.8 12.7c-4.3 9.3-.5 17 1.3 23.3-60.4.3-98-13-134.1-40.4C1.8-6.8-7.6 9.3 8.1 19.1m156.1 8.5c3.3-7.3 12.1-9.4 18.3-6.6 6.1 2.8 8.6 11.4 5.6 17.6s-11.5 7.4-17.6 7.8c-5.2-4.8-9.6-11.5-6.3-18.8" style="fill:#2e3192"/></svg>