<svg xmlns="http://www.w3.org/2000/svg" style="style=&quot;enable-background:new 0 0 200.0 100.0&quot;" viewBox="15.75 0 88.4 100.1"><path d="M92.8 27.8c-7.1-5.1-15.5-8.2-24.5-9.1v-11c0-4.2-3.4-7.7-7.7-7.7h-1.2c-4.3 0-7.7 3.4-7.7 7.7v11.1a50 50 0 0 0-24.5 9.1c-7.1 4.8-10.9 10.8-11.4 17.5-.6 8.5 4.2 16.2 8.5 20.1 7 6.6 16.4 10.5 27.4 11.4v15.5c0 4.2 3.4 7.7 7.7 7.7h1.2c4.3 0 7.7-3.4 7.7-7.7V76.9c11-.9 20.4-4.8 27.3-11.4 4.3-3.9 9.1-11.7 8.5-20.1-.4-6.8-4.2-12.7-11.3-17.6M68.3 46.3c0-4.1.1-7.5.4-10.8.1-1.1 1-2 2.1-2.1h.7c8 0 14 2.8 16.8 7.9 2.4 4.5 2.2 10.1-.9 14.5-3.4 5.2-9.7 7.7-17.2 6.9-1-.1-1.8-1-1.8-2.1.1-2.8 0-5.6 0-8.5-.1-1.9-.1-3.9-.1-5.8m-36.5-4.9c2.8-5.1 8.7-7.9 16.7-7.9h.7c1.2.1 2.1 1 2.2 2.1.3 3.3.4 6.9.4 10.8 0 2 0 4-.1 6 0 2.8-.1 5.7 0 8.4 0 1.1-.8 2-1.8 2.1-7.5.9-13.7-1.7-17.2-6.9a13.8 13.8 0 0 1-.9-14.6"/></svg>