<svg xmlns="http://www.w3.org/2000/svg" style="style=&quot;enable-background:new 0 0 200.0 100.0&quot;" viewBox="16.3 -0.05 87.23 100.05"><path fill="#000000" d="M103.2 16.7c-5 25.1-10.3 33.7-33.9 38.2-.4.1-.7.4-.8.7v36c0 2.2-1 4.4-2.6 6S62.3 100 60 100s-4.3-.9-6.1-2.4a8.6 8.6 0 0 1-2.5-6l-.1-36c0-.3-.4-.6-.8-.7C27 50.4 21.7 41.8 16.7 16.7c-.8-3.6-.4-6.5 1.2-8.3C19.7 6.3 22.3 6 23.6 6c2.4 0 4.3 2.2 5.6 4.5 1.3 2.2 2 4.7 2.1 5.4 2.6 17 7.2 22.9 18.5 22.9h.9c.3 0 .7-.2.9-.6V8.4l.1-.6c1.1-2.8 1.9-4.8 3-6 .7-.6 1.5-1 2.2-1.3.5-.2 1-.3 1.4-.4 1.1-.2 2.3-.2 3.3 0 .5.1 1 .2 1.5.4.7.1 1.5.6 2.2 1.3 1.2 1.2 2.1 3.1 3 6l.1.3c0 .1.1.3.1.5L68.4 38c0 .1 0 .2.1.4.1.3.5.5.9.5 11.9.4 16.8-5.4 19.3-22.9.3-1.3 2.8-10 7.6-10h.1c1.4 0 3.9.3 5.6 2.4 1.5 1.8 1.9 4.7 1.2 8.3"/></svg>