<?xml version="1.0" encoding="utf-8"?>
<!-- Generator: Adobe Illustrator 27.1.0, SVG Export Plug-In . SVG Version: 6.00 Build 0)  -->
<svg version="1.1" id="Layer_1" xmlns="http://www.w3.org/2000/svg" xmlns:xlink="http://www.w3.org/1999/xlink" x="0px" y="0px"
	 viewBox="129.4 0 129.4 23.5" style="enable-background:new 129.4 0 129.4 23.5;" xml:space="preserve">
<style type="text/css">
	.st0{fill:#2E3192;stroke:#FFFFFF;stroke-width:0.25;stroke-miterlimit:10;}
</style>
<g transform="rotate(180 194.1 11.75)">
	<g>
		<path class="st0" d="M219.7,0.6c2.9,0.3,5.7,1.4,8.6,1.6c3.1,0.3,6.1,0.1,9.2,0.1c1.4,0,2.6-0.5,4-0.5c0.3,0,1.3-0.1,1.4,0.4
			c0.1,0.5-0.7,0.5-0.6,0.9c0.1,0.5,3.1,0.2,3.5,0.3c1.4,0.1,2.6,0.6,4,0.9c0.7,0.2,2.9,0.3,3.2,1.1c0.4,1.1-1.9,0.6-2.4,0.6
			c-0.5,0-2-0.5-1.3,0.3s2.6,1.1,3.5,1.5c0.8,0.4,2.6,0.7,3.2,1.5c0.7,0.8,0.4,1.3-0.6,1c-0.5-0.2-2-0.7-1.4,0.1
			c0.3,0.4,3,0.6,2.2,1.4c-0.5,0.5-3.1-0.3-3.7-0.4c-0.9-0.1-2.1-0.2-0.8,0.6c0.9,0.5,1.8,1,2.7,1.4c0.6,0.3,1.2,0.4,1.8,0.5
			c0.2,0,0.8-0.1,1,0.2c0.6,0.5-0.5,0.5-0.4,1.1c0.1,0.3,2,2.2,2,2.1c0,0.5,0,1.1,0,1.6c-1.1-0.3-1.4-1.2-2.2-1.9
			c-0.7-0.7-1.7-1.4-2.6-1.9c-1.8-0.9-3.5,0.5-5.2,0.7c-1.3,0.1-2.3-0.4-3.5-0.6c-1.4-0.3-2.7-0.4-4.1-0.4c-2.6,0-5,0.6-7.6,1
			c-2.3,0.3-4.1,1.3-6.4,1c-1.4-0.2-2.7-0.3-4,0c-3.9,0.7-7,2.7-10.5,3.9c-1,0.4-1.9,0.7-2.6,1.4c-0.4,0.4-0.9,0.6-1.4,0.7
			c-4.3,1.3-12.2-0.1-13.6-0.5c-1.4-0.5-3-1.2-4.5-1.4c-1.4-0.2-2.9,0.5-4.2,0.7c-1.5,0.3-3.1,0.4-4.6,0.3c-2.7-0.1-5.4-0.5-7.9-1.7
			c-2.2-1-4.7-2.3-7.1-2.6c-2.9-0.3-5.8,0.2-8.6-0.2c-2.8-0.4-5.7-0.3-8.6-0.5c-2.8-0.2-5.7-0.7-8.4-0.2c-1.3,0.3-1.8,0.8-2.6,1.7
			c-0.6,0.7-1.5,2.2-2.4,2.3c-0.6,0.1-0.9-0.7-1.4-0.9c-0.6-0.3-1,0.4-1.6,0.5c-1.2,0.3-1.6-1.1-2.9-1.3c-0.5-0.1-1.3,0.5-1.6,0.1
			c-0.4-0.3-0.2-0.5-0.6-0.8c-0.5-0.4-0.6-0.3-1.3-0.8c-0.7-0.5-1.9-2.5-1.7-3.4c0.3-1.4,0.9-0.9,1-1.9c0.1-0.9-0.2-1.3-0.5-2.1
			c-0.9-2.8,2.1,0.6,2.8-0.7c0.3-0.5-0.9-2.2,0-2.2c0.6,0,1.3,1,1.7,1.3c1.2,0.8,4.2,1.9,4.2-0.5c0-1.6,2.6-3.4,5-0.4
			c0.7,1.2,1.4,2.4,2.9,2.6c1.7,0.3,3.6,0.1,5.4,0.1s3.5-0.3,5.3-0.4c1.8-0.1,3.6,0,5.4-0.2c1.9-0.2,3.7-0.3,5.6-0.5
			c1.6-0.2,3.2-1.3,4.7-2c1.5-0.8,3.1-1.5,4.6-2.4c1.4-0.7,2.5-1.8,4-2.3c2.8-1.1,6.8-1.7,9.6-1.1c0.3,0.1,0.6,0.4,0.8,0.5
			c1.1,0.5,3,0.7,4.1,0.7c1.7-0.1,3.4-0.4,5-0.8c3.3-0.8,16.5-1.3,20-1.5C219.7,0.6,219.7,0.6,219.7,0.6z M210.9,0 M247.6,9.2
			C247.4,9,247.1,9,247,9c-1.4-0.4-2.9-0.6-4.3-1.2c-1.2-0.5-2.2-1.2-3.4-1.4c-2.8-0.6-5.4-1.3-8.3-0.7c-1.3,0.3-2.4,0.7-3.7,0.7
			c-1.1,0-2.1-0.3-3.2-0.4c-2.4-0.3-4.7-1.2-7.1-1c-0.8,0.1-2.5,0.3-3,1.1c-0.5,1.1,1.1,2.4,1.6,2.9c0.9,0.6,2.8,1.5,5.3,1.6
			c1.2,0,2.4,0.2,3.6,0.1c2.6-0.1,5.2,0.1,7.8,0.1c2.6,0.1,5.2,0,7.8-0.3C242.5,10.5,245.8,10.4,247.6,9.2z"/>
	</g>
</g>
</svg>
