<?xml version="1.0" encoding="utf-8"?><svg xmlns="http://www.w3.org/2000/svg" viewBox="129.3 0 129.3 206.4" xml:space="preserve"><g transform="rotate(-90 193.95 103.2)"><path d="M201.9 205.2c2.3-1.4 56.2-36.2 56.6-102-.4-65.8-54.4-100.5-56.6-102q-2.85-1.8-5.1-.9c-2.7 1.1-3.7 4.7-4.7 8.3-.2.6-.3 1.3-.5 1.9-1.5 5.1-11.1 27-14.9 34.7-2.4 5-9.6 18.4-24.5 37.1-.7 0-1.4 0-1.9.1H149c-11.7 1.1-19.9 9.6-19.9 20.9s8.2 19.8 19.9 20.9h1.3c.5.1 1.3.1 1.9.1 14.9 18.7 22.1 32.1 24.5 37.1 3.8 7.8 13.4 29.7 14.9 34.7.2.6.3 1.3.5 1.9 1 3.5 2 7.2 4.7 8.3 1.5.4 3.2 0 5.1-1.1zM179.2 66.1c4-6.4 7.4-12.3 8.7-14.8 3-6.2 12-25.5 15.3-33.9 6.4 5.1 16.6 14.5 25.3 28l-61.6 38.8c3.6-4.8 8.3-11.7 12.3-18.1zM234.6 56a107 107 0 0 1 11.5 41h-76.4c-.1-.1-.1-.1-.1-.2zM142 111.4c-.9-.9-1.7-2-2.4-3.5-.5-1.2-.8-2.7-.8-4.1v-1.2c0-1.4.3-2.9.8-4.1.7-1.4 1.4-2.5 2.4-3.5 1.9-2 4.6-3.1 7.6-3.1 2.9 0 5.6 1.1 7.6 3.2 1 .9 1.9 2 2.4 3.5.5 1.1.8 2.6.8 4v1.2c0 1.4-.3 2.9-.8 4-.5 1.4-1.3 2.5-2.4 3.5-2 2.1-4.6 3.2-7.6 3.2s-5.7-1.1-7.6-3.1zm27.6-1.9c0-.1 0-.1.1-.2h76.4c-.9 14.1-4.8 27.8-11.5 41zm18.3 45.6c-1.3-2.5-4.6-8.4-8.7-14.8-4-6.4-8.7-13.3-12.4-18l61.6 38.8c-8.7 13.5-18.9 22.8-25.3 28-3.3-8.5-12.2-27.8-15.2-34z" style="fill:#2e3192;stroke:#fff;stroke-width:1.75;stroke-miterlimit:10"/></g></svg>
