<?xml version='1.0' encoding='utf-8'?><svg xmlns="http://www.w3.org/2000/svg" viewBox="11.15 0 237.61 219.09"><g transform="rotate(-90 129.955 109.545)"><path d="m78.12 5.76 53.13 92.07H237.4c6.16 0 11.11 5.06 11.11 11.11v1.32c0 6.05-4.95 11.11-11.11 11.11H131.14l-53.13 91.96a11.1 11.1 0 0 1-15.07 4.07l-1.21-.66a11.24 11.24 0 0 1-4.07-15.18l53.24-92.07-53.24-91.96a11.35 11.35 0 0 1 4.07-15.18l1.21-.66a11.24 11.24 0 0 1 15.18 4.07Z" style="fill:#2e3192;stroke:#fff;stroke-width:2.75;stroke-miterlimit:10"/></g></svg>
