<?xml version="1.0" encoding="utf-8"?><svg xmlns="http://www.w3.org/2000/svg" viewBox="135.15 0 155.15 169.6" xml:space="preserve"><g transform="rotate(-90 212.725 84.8)"><path d="M289.1 83.2a85.4 85.4 0 0 0-76-34.6C209.6 41 205 34.1 199.4 28A84.4 84.4 0 0 0 145.3.2l-1.7-.2-1 1.6-.1.2a85 85 0 0 0-7.2 34.4c0 17.6 5.2 34.4 15.2 48.6a84.3 84.3 0 0 0-15.2 48.6c0 11.9 2.4 23.5 7.2 34.4l.9 1.8 1.8-.2a84.4 84.4 0 0 0 54.2-27.8 85 85 0 0 0 13.7-20.6 85.2 85.2 0 0 0 76-34.6l1.1-1.6zm-139.9-47c0-7.1 1-14.1 3.1-20.7 20.1 4.6 37 17.5 46.7 35.6a85 85 0 0 0-38.7 22.2l-.4.4c-7-11.2-10.7-24.2-10.7-37.5zm3.1 118a71.2 71.2 0 0 1 7.5-58.1l.3.3a83.4 83.4 0 0 0 38.7 22.2 71 71 0 0 1-46.5 35.6zm51.9-48.6a72 72 0 0 1-35.8-20.7c9.7-10.4 22-17.5 35.8-20.7 2 6.7 3.1 13.6 3.1 20.7-.1 7.1-1.1 14-3.1 20.7zm16.1 1.5h-2.1c2-7.3 3-14.8 3-22.3s-1-15-3-22.4h2.1c19.5 0 38.4 8.1 51.9 22.3a71.3 71.3 0 0 1-51.9 22.4z" style="fill:#2e3192;stroke:#fff;stroke-width:2.75;stroke-miterlimit:10"/></g></svg>
