<?xml version="1.0" encoding="utf-8"?><svg xmlns="http://www.w3.org/2000/svg" viewBox="0 0 241.8 220.6" xml:space="preserve"><path d="M194.8 220.6c-4-4.7-28.2-33-33.9-43.6-3.6-6.7 4-13.8 6.5-15.9l22.4 29.6c12.5-49.3-3.3-98.1-22.1-107 1.2 12 0 23.3-7.1 30.4-9.6 9.6-34.3 15.1-50.2-.8-17.6-17.6-11-38.9-.5-49.9 8.3-8.6 21.8-9.5 29.2-9.5-25.4-44.5-97.8-37.3-128-33.2-13.9 1.9-15.4-15-.8-16.8 92.2-11.1 120 3.2 153.3 56.2 43.1 14.4 56.2 82.7 44 133l30-22.1c1.8 2.7 7.1 11.5 1.8 17.1-8.2 8.8-39.4 29.2-44.6 32.5m-71.5-144c-7.2 7.2-6.6 18.4-.6 24.4 5.9 5.9 19.2 5.2 24.6-.3 7.8-7.8 6.3-17.8 1.9-26.3-8.9-3.5-18.7-5-25.9 2.2" style="fill:#2e3192"/></svg>