<?xml version="1.0" encoding="utf-8"?><svg xmlns="http://www.w3.org/2000/svg" viewBox="0 0 247.7 150" xml:space="preserve"><path d="m184.2 9.6 32.2 16.5C189.8 33.8 136.3 62 124.5 75c-8.9-8.8-61.2-44-113.1-55.9C.3 16.5-3.1 31.3 5.6 33.9 85 57.7 112.3 88.5 112.3 88.5c-9.8 8.6-16.6 17.8-16.6 31.6 0 8.5 5.3 29.9 27.9 29.9 22.5 0 29.9-20.5 29.9-29.9 0-15.9-10.7-25.4-16.7-31.9 14-15.7 53.9-35.8 86.2-45.3l.2.7-16.5 33.2c3 1.3 12.7 5 17.2-1.2 7.1-9.8 21.6-44.1 24-49.7-5.2-3.1-37.4-22-49-25.6-7.5-2.2-13.1 6.5-14.7 9.3m-46.1 110.5c0 10-8 15.4-14.6 15.4s-12.7-5.2-12.7-15.4 7.2-17.8 12.7-21.1c5.5 3.1 14.6 11.1 14.6 21.1" style="fill:#2e3192"/></svg>