<?xml version="1.0" encoding="utf-8"?><svg xmlns="http://www.w3.org/2000/svg" viewBox="0 0 350 118.9" xml:space="preserve"><path d="M348.4 112.9c-6.2.4-43.3 2.8-55.2.9-7.6-1.2-8.7-11.5-8.8-14.8l37.1-.2c-20.8-16.6-63.2-45.8-111-52.4 4.9 11 4.1 24.2-1.9 34.6s-23 22.5-45.4 11.7-16.2-35.2-11.7-42.5 9.8-13.6 26.5-18C131.1 19 68.5 18.7 13.3 18.7-1 18.7-6.1.1 9.7.1c68.7 0 164.5 2.8 190.1 26.4 60.8 9.7 105.7 35.3 134.3 59.6l.3-37.3c3.3.1 13.5 1.2 14.8 8.8 2 12-.4 49.2-.8 55.3M164.9 57.4c-5 7.3-1.8 17 5.8 20.7 7.5 3.7 18.8.7 23.1-6.6s4.7-10.3-2.8-26.3c-16.3 3.5-21.1 4.9-26.1 12.2" style="fill:#2e3192"/></svg>